{"glyphs":{"0":{"ha":938,"x_min":68,"x_max":869,"o":"m 468 -22 q 256 40 346 -22 q 117 218 165 103 q 68 492 68 333 q 117 766 68 650 q 256 945 165 882 q 468 1008 346 1008 q 682 946 592 1008 q 821 767 772 883 q 869 492 869 651 q 821 218 869 333 q 682 40 772 103 q 468 -22 592 -22 m 468 115 q 650 212 586 115 q 714 492 714 308 q 650 773 714 675 q 468 871 586 871 q 288 773 351 871 q 224 492 224 675 q 288 212 224 308 q 468 115 351 115 z "},"1":{"ha":564,"x_min":54,"x_max":413,"o":"m 263 0 l 263 703 l 54 703 l 54 824 l 139 824 q 259 858 224 824 q 294 986 294 893 l 413 986 l 413 0 l 263 0 z "},"2":{"ha":875,"x_min":82,"x_max":793,"o":"m 82 0 q 115 199 82 111 q 229 361 149 286 q 451 511 310 436 q 560 575 519 546 q 619 637 601 604 q 638 715 638 669 q 593 828 638 785 q 460 871 549 871 q 310 820 365 871 q 242 675 256 769 l 86 685 q 199 922 103 835 q 460 1008 294 1008 q 706 928 618 1008 q 793 718 793 847 q 768 589 793 643 q 685 488 743 535 q 526 389 626 442 q 333 254 399 321 q 264 138 268 188 l 793 138 l 793 0 l 82 0 z "},"3":{"ha":868,"x_min":67,"x_max":801,"o":"m 429 -22 q 166 57 258 -22 q 67 265 74 136 l 221 274 q 285 152 229 189 q 429 115 342 115 q 537 131 488 115 q 616 184 586 147 q 646 281 646 221 q 586 412 646 369 q 428 454 526 454 l 346 454 l 346 585 l 428 585 q 560 617 507 585 q 613 728 613 650 q 567 834 613 797 q 432 871 522 871 q 297 836 342 871 q 243 742 251 801 l 89 750 q 191 937 103 865 q 432 1008 279 1008 q 679 935 590 1008 q 768 739 768 863 q 597 528 768 581 q 747 435 693 501 q 801 275 801 369 q 755 115 801 182 q 624 13 708 49 q 429 -22 540 -22 z "},"4":{"ha":874,"x_min":39,"x_max":807,"o":"m 536 0 l 536 206 l 39 206 l 39 333 l 518 986 l 686 986 l 686 342 l 807 342 l 807 206 l 686 206 l 686 0 l 536 0 m 210 342 l 536 342 l 536 778 l 210 342 z "},"5":{"ha":890,"x_min":82,"x_max":808,"o":"m 443 -22 q 185 56 279 -22 q 82 260 92 133 l 236 269 q 302 153 247 192 q 443 115 357 115 q 597 169 540 115 q 653 321 653 224 q 597 473 653 417 q 442 529 540 529 q 324 501 375 529 q 251 425 274 472 l 96 425 l 163 986 l 740 986 l 740 849 l 296 849 l 261 575 q 355 636 299 615 q 476 657 411 657 q 651 613 576 657 q 767 494 725 569 q 808 321 808 418 q 762 141 808 218 q 633 21 715 64 q 443 -22 551 -22 z "},"6":{"ha":883,"x_min":82,"x_max":801,"o":"m 443 -22 q 175 94 268 -22 q 82 422 82 210 q 103 651 82 544 q 172 838 125 758 q 295 963 219 918 q 479 1008 371 1008 q 692 942 615 1008 q 797 767 768 876 l 649 754 q 594 840 632 808 q 479 872 556 872 q 311 791 375 872 q 233 543 247 710 q 329 626 268 593 q 472 658 390 658 q 644 617 571 658 q 760 501 718 576 q 801 326 801 426 q 756 140 801 218 q 629 19 710 61 q 443 -22 549 -22 m 444 111 q 590 168 533 111 q 647 326 647 225 q 594 476 647 419 q 454 532 540 532 q 300 476 361 532 q 239 326 239 421 q 294 172 239 232 q 444 111 350 111 z "},"7":{"ha":738,"x_min":28,"x_max":738,"o":"m 240 0 q 331 448 240 229 q 579 849 422 667 l 28 849 l 28 986 l 738 986 l 738 858 q 544 592 619 725 q 431 315 468 460 q 393 0 393 169 l 240 0 z "},"8":{"ha":868,"x_min":54,"x_max":815,"o":"m 435 -22 q 235 11 321 -22 q 102 110 150 44 q 54 269 54 175 q 106 433 54 367 q 247 531 158 500 q 141 608 181 557 q 101 738 101 660 q 142 878 101 817 q 256 974 182 939 q 435 1008 331 1008 q 612 974 538 1008 q 726 878 686 939 q 767 738 767 817 q 728 608 767 660 q 621 531 689 557 q 763 433 710 500 q 815 269 815 367 q 767 110 815 175 q 633 11 718 44 q 435 -22 547 -22 m 435 586 q 566 622 519 586 q 613 731 613 657 q 567 833 613 794 q 435 872 521 872 q 301 833 347 872 q 256 731 256 794 q 303 622 256 657 q 435 586 350 586 m 435 115 q 597 158 536 115 q 658 285 658 200 q 603 414 658 365 q 435 463 547 463 q 265 414 321 463 q 210 285 210 365 q 271 158 210 200 q 435 115 332 115 z "},"9":{"ha":886,"x_min":82,"x_max":803,"o":"m 413 -22 q 205 39 285 -22 q 96 201 125 100 l 247 211 q 305 140 264 165 q 413 114 346 114 q 579 190 519 114 q 649 438 639 267 q 410 317 568 317 q 239 359 313 317 q 124 478 165 401 q 82 656 82 554 q 126 843 82 764 q 251 965 171 922 q 433 1008 331 1008 q 713 883 624 1008 q 803 543 803 758 q 765 249 803 376 q 641 49 726 121 q 413 -22 556 -22 m 431 446 q 582 501 524 446 q 640 656 640 556 q 586 813 640 751 q 436 875 532 875 q 288 815 342 875 q 235 657 235 754 q 289 503 235 560 q 431 446 343 446 z "},"A":{"ha":957,"x_min":28,"x_max":929,"o":"m 28 0 l 383 986 l 574 986 l 929 0 l 769 0 l 679 257 l 276 257 l 188 0 l 28 0 m 324 393 l 633 393 l 478 843 l 324 393 z "},"Á":{"ha":957,"x_min":28,"x_max":929,"o":"m 28 0 l 383 986 l 574 986 l 929 0 l 769 0 l 679 257 l 276 257 l 188 0 l 28 0 m 324 393 l 633 393 l 478 843 l 324 393 m 413 1075 l 500 1261 l 654 1261 l 529 1075 l 413 1075 z "},"Ă":{"ha":957,"x_min":28,"x_max":929,"o":"m 28 0 l 383 986 l 574 986 l 929 0 l 769 0 l 679 257 l 276 257 l 188 0 l 28 0 m 324 393 l 633 393 l 478 843 l 324 393 m 478 1079 q 335 1129 389 1079 q 276 1267 281 1179 l 369 1267 q 403 1197 375 1218 q 478 1175 432 1175 q 551 1197 524 1175 q 585 1267 579 1218 l 679 1267 q 621 1129 675 1179 q 478 1079 567 1079 z "},"Ǎ":{"ha":957,"x_min":28,"x_max":929,"o":"m 28 0 l 383 986 l 574 986 l 929 0 l 769 0 l 679 257 l 276 257 l 188 0 l 28 0 m 324 393 l 633 393 l 478 843 l 324 393 m 274 1268 l 386 1268 l 478 1144 l 569 1268 l 682 1268 l 554 1075 l 401 1075 l 274 1268 z "},"Â":{"ha":957,"x_min":28,"x_max":929,"o":"m 28 0 l 383 986 l 574 986 l 929 0 l 769 0 l 679 257 l 276 257 l 188 0 l 28 0 m 324 393 l 633 393 l 478 843 l 324 393 m 274 1075 l 401 1268 l 554 1268 l 682 1075 l 569 1075 l 478 1199 l 386 1075 l 274 1075 z "},"Ä":{"ha":957,"x_min":28,"x_max":929,"o":"m 28 0 l 383 986 l 574 986 l 929 0 l 769 0 l 679 257 l 276 257 l 188 0 l 28 0 m 324 393 l 633 393 l 478 843 l 324 393 m 275 1092 l 275 1239 l 422 1239 l 422 1092 l 275 1092 m 535 1092 l 535 1239 l 683 1239 l 683 1092 l 535 1092 z "},"À":{"ha":957,"x_min":28,"x_max":929,"o":"m 28 0 l 383 986 l 574 986 l 929 0 l 769 0 l 679 257 l 276 257 l 188 0 l 28 0 m 324 393 l 633 393 l 478 843 l 324 393 m 428 1082 l 303 1269 l 457 1269 l 544 1082 l 428 1082 z "},"Ā":{"ha":957,"x_min":28,"x_max":929,"o":"m 28 0 l 383 986 l 574 986 l 929 0 l 769 0 l 679 257 l 276 257 l 188 0 l 28 0 m 324 393 l 633 393 l 478 843 l 324 393 m 286 1107 l 286 1225 l 672 1225 l 672 1107 l 286 1107 z "},"Ą":{"ha":957,"x_min":28,"x_max":978,"o":"m 28 0 l 383 986 l 574 986 l 929 0 l 769 0 l 679 257 l 276 257 l 188 0 l 28 0 m 324 393 l 633 393 l 478 843 l 324 393 m 849 -294 q 748 -268 785 -294 q 711 -190 711 -242 q 735 -108 711 -150 q 786 -29 760 -67 l 829 28 l 929 0 l 882 -62 q 849 -117 858 -96 q 839 -156 839 -137 q 850 -181 839 -172 q 878 -190 861 -190 q 943 -172 917 -190 l 978 -258 q 925 -284 961 -274 q 849 -294 889 -294 z "},"Å":{"ha":960,"x_min":24,"x_max":925,"o":"m 24 0 l 379 986 l 569 986 l 925 0 l 765 0 l 675 257 l 272 257 l 183 0 l 24 0 m 319 393 l 629 393 l 474 843 l 319 393 m 474 1050 q 380 1088 418 1050 q 342 1182 342 1125 q 380 1276 342 1238 q 474 1314 418 1314 q 569 1276 531 1314 q 607 1182 607 1238 q 569 1088 607 1125 q 474 1050 531 1050 m 474 1125 q 515 1141 499 1125 q 531 1182 531 1157 q 515 1222 531 1206 q 474 1238 499 1238 q 434 1222 450 1238 q 418 1182 418 1206 q 434 1141 418 1157 q 474 1125 450 1125 z "},"Ã":{"ha":960,"x_min":24,"x_max":925,"o":"m 24 0 l 379 986 l 569 986 l 925 0 l 765 0 l 675 257 l 272 257 l 183 0 l 24 0 m 319 393 l 629 393 l 474 843 l 319 393 m 543 1093 q 492 1103 515 1093 q 443 1132 468 1113 q 409 1158 422 1150 q 378 1165 396 1165 q 338 1149 354 1165 q 319 1083 322 1132 l 238 1083 q 277 1213 239 1168 q 376 1258 315 1258 q 435 1248 410 1258 q 485 1217 460 1238 q 549 1186 522 1186 q 587 1203 572 1186 q 604 1271 601 1221 l 688 1271 q 646 1140 683 1188 q 543 1093 608 1093 z "},"Æ":{"ha":1382,"x_min":28,"x_max":1308,"o":"m 28 0 l 556 986 l 1297 986 l 1297 849 l 849 849 l 849 561 l 1281 561 l 1281 428 l 849 428 l 849 138 l 1308 138 l 1308 0 l 699 0 l 699 257 l 324 257 l 192 0 l 28 0 m 699 853 l 632 853 l 394 392 l 699 392 l 699 853 z "},"B":{"ha":956,"x_min":119,"x_max":874,"o":"m 119 0 l 119 986 l 474 986 q 742 922 651 986 q 832 719 832 858 q 783 578 832 635 q 649 510 735 522 q 815 433 756 497 q 874 271 874 369 q 783 68 874 136 q 526 0 693 0 l 119 0 m 269 565 l 471 565 q 624 603 569 565 q 678 708 678 640 q 471 851 678 851 l 269 851 l 269 565 m 269 135 l 522 135 q 667 173 615 135 q 719 285 719 211 q 667 397 719 357 q 522 438 615 438 l 269 438 l 269 135 z "},"C":{"ha":990,"x_min":61,"x_max":936,"o":"m 511 -22 q 276 40 378 -22 q 118 217 175 101 q 61 492 61 332 q 117 766 61 650 q 275 945 174 882 q 513 1008 376 1008 q 797 916 696 1008 q 929 663 899 824 l 772 654 q 689 813 753 754 q 513 871 625 871 q 356 825 422 871 q 253 694 290 779 q 217 492 217 610 q 253 289 217 374 q 357 160 290 204 q 511 115 424 115 q 696 178 631 115 q 779 353 761 242 l 936 344 q 801 77 908 176 q 511 -22 693 -22 z "},"Ć":{"ha":990,"x_min":61,"x_max":936,"o":"m 511 -22 q 276 40 378 -22 q 118 217 175 101 q 61 492 61 332 q 117 766 61 650 q 275 945 174 882 q 513 1008 376 1008 q 797 916 696 1008 q 929 663 899 824 l 772 654 q 689 813 753 754 q 513 871 625 871 q 356 825 422 871 q 253 694 290 779 q 217 492 217 610 q 253 289 217 374 q 357 160 290 204 q 511 115 424 115 q 696 178 631 115 q 779 353 761 242 l 936 344 q 801 77 908 176 q 511 -22 693 -22 m 444 1075 l 532 1261 l 686 1261 l 561 1075 l 444 1075 z "},"Č":{"ha":990,"x_min":61,"x_max":936,"o":"m 511 -22 q 276 40 378 -22 q 118 217 175 101 q 61 492 61 332 q 117 766 61 650 q 275 945 174 882 q 513 1008 376 1008 q 797 916 696 1008 q 929 663 899 824 l 772 654 q 689 813 753 754 q 513 871 625 871 q 356 825 422 871 q 253 694 290 779 q 217 492 217 610 q 253 289 217 374 q 357 160 290 204 q 511 115 424 115 q 696 178 631 115 q 779 353 761 242 l 936 344 q 801 77 908 176 q 511 -22 693 -22 m 306 1268 l 418 1268 l 510 1144 l 601 1268 l 714 1268 l 586 1075 l 433 1075 l 306 1268 z "},"Ç":{"ha":990,"x_min":61,"x_max":936,"o":"m 511 -22 q 276 40 378 -22 q 118 217 175 101 q 61 492 61 332 q 117 766 61 650 q 275 945 174 882 q 513 1008 376 1008 q 797 916 696 1008 q 929 663 899 824 l 772 654 q 689 813 753 754 q 513 871 625 871 q 356 825 422 871 q 253 694 290 779 q 217 492 217 610 q 253 289 217 374 q 357 160 290 204 q 511 115 424 115 q 696 178 631 115 q 779 353 761 242 l 936 344 q 801 77 908 176 q 511 -22 693 -22 m 501 -311 q 392 -280 435 -311 q 335 -200 350 -249 l 413 -169 q 499 -225 435 -225 q 551 -211 532 -225 q 571 -172 571 -197 q 552 -129 571 -146 q 471 -112 533 -112 l 425 -67 l 476 14 l 575 14 l 531 -47 q 631 -87 599 -51 q 664 -175 664 -122 q 617 -275 664 -239 q 501 -311 571 -311 z "},"Ĉ":{"ha":990,"x_min":61,"x_max":936,"o":"m 511 -22 q 276 40 378 -22 q 118 217 175 101 q 61 492 61 332 q 117 766 61 650 q 275 945 174 882 q 513 1008 376 1008 q 797 916 696 1008 q 929 663 899 824 l 772 654 q 689 813 753 754 q 513 871 625 871 q 356 825 422 871 q 253 694 290 779 q 217 492 217 610 q 253 289 217 374 q 357 160 290 204 q 511 115 424 115 q 696 178 631 115 q 779 353 761 242 l 936 344 q 801 77 908 176 q 511 -22 693 -22 m 306 1075 l 433 1268 l 586 1268 l 714 1075 l 601 1075 l 510 1199 l 418 1075 l 306 1075 z "},"Ċ":{"ha":990,"x_min":61,"x_max":936,"o":"m 511 -22 q 276 40 378 -22 q 118 217 175 101 q 61 492 61 332 q 117 766 61 650 q 275 945 174 882 q 513 1008 376 1008 q 797 916 696 1008 q 929 663 899 824 l 772 654 q 689 813 753 754 q 513 871 625 871 q 356 825 422 871 q 253 694 290 779 q 217 492 217 610 q 253 289 217 374 q 357 160 290 204 q 511 115 424 115 q 696 178 631 115 q 779 353 761 242 l 936 344 q 801 77 908 176 q 511 -22 693 -22 m 433 1093 l 433 1240 l 586 1240 l 586 1093 l 433 1093 z "},"D":{"ha":979,"x_min":119,"x_max":918,"o":"m 119 0 l 119 986 l 436 986 q 793 858 668 986 q 918 492 918 729 q 795 128 918 256 q 444 0 672 0 l 119 0 m 269 138 l 436 138 q 763 492 763 138 q 436 849 763 849 l 269 849 l 269 138 z "},"Ď":{"ha":979,"x_min":119,"x_max":918,"o":"m 119 0 l 119 986 l 436 986 q 793 858 668 986 q 918 492 918 729 q 795 128 918 256 q 444 0 672 0 l 119 0 m 269 138 l 436 138 q 763 492 763 138 q 436 849 763 849 l 269 849 l 269 138 m 246 1268 l 358 1268 l 450 1144 l 542 1268 l 654 1268 l 526 1075 l 374 1075 l 246 1268 z "},"Đ":{"ha":979,"x_min":22,"x_max":918,"o":"m 119 0 l 119 986 l 436 986 q 793 858 668 986 q 918 492 918 729 q 795 128 918 256 q 444 0 672 0 l 119 0 m 269 138 l 436 138 q 763 492 763 138 q 436 849 763 849 l 269 849 l 269 138 m 22 431 l 22 556 l 542 556 l 542 431 l 22 431 z "},"Ð":{"ha":979,"x_min":22,"x_max":918,"o":"m 119 0 l 119 986 l 436 986 q 793 858 668 986 q 918 492 918 729 q 795 128 918 256 q 444 0 672 0 l 119 0 m 269 138 l 436 138 q 763 492 763 138 q 436 849 763 849 l 269 849 l 269 138 m 22 431 l 22 556 l 542 556 l 542 431 l 22 431 z "},"E":{"ha":846,"x_min":119,"x_max":772,"o":"m 119 0 l 119 986 l 761 986 l 761 849 l 269 849 l 269 561 l 744 561 l 744 428 l 269 428 l 269 138 l 772 138 l 772 0 l 119 0 z "},"É":{"ha":846,"x_min":119,"x_max":772,"o":"m 119 0 l 119 986 l 761 986 l 761 849 l 269 849 l 269 561 l 744 561 l 744 428 l 269 428 l 269 138 l 772 138 l 772 0 l 119 0 m 378 1075 l 465 1261 l 619 1261 l 494 1075 l 378 1075 z "},"Ě":{"ha":846,"x_min":119,"x_max":772,"o":"m 119 0 l 119 986 l 761 986 l 761 849 l 269 849 l 269 561 l 744 561 l 744 428 l 269 428 l 269 138 l 772 138 l 772 0 l 119 0 m 239 1268 l 351 1268 l 443 1144 l 535 1268 l 647 1268 l 519 1075 l 367 1075 l 239 1268 z "},"Ê":{"ha":846,"x_min":119,"x_max":772,"o":"m 119 0 l 119 986 l 761 986 l 761 849 l 269 849 l 269 561 l 744 561 l 744 428 l 269 428 l 269 138 l 772 138 l 772 0 l 119 0 m 239 1075 l 367 1268 l 519 1268 l 647 1075 l 535 1075 l 443 1199 l 351 1075 l 239 1075 z "},"Ë":{"ha":846,"x_min":119,"x_max":772,"o":"m 119 0 l 119 986 l 761 986 l 761 849 l 269 849 l 269 561 l 744 561 l 744 428 l 269 428 l 269 138 l 772 138 l 772 0 l 119 0 m 239 1092 l 239 1239 l 386 1239 l 386 1092 l 239 1092 m 499 1092 l 499 1239 l 647 1239 l 647 1092 l 499 1092 z "},"Ė":{"ha":846,"x_min":119,"x_max":772,"o":"m 119 0 l 119 986 l 761 986 l 761 849 l 269 849 l 269 561 l 744 561 l 744 428 l 269 428 l 269 138 l 772 138 l 772 0 l 119 0 m 367 1093 l 367 1240 l 519 1240 l 519 1093 l 367 1093 z "},"È":{"ha":846,"x_min":119,"x_max":772,"o":"m 119 0 l 119 986 l 761 986 l 761 849 l 269 849 l 269 561 l 744 561 l 744 428 l 269 428 l 269 138 l 772 138 l 772 0 l 119 0 m 392 1082 l 267 1269 l 421 1269 l 508 1082 l 392 1082 z "},"Ē":{"ha":846,"x_min":119,"x_max":772,"o":"m 119 0 l 119 986 l 761 986 l 761 849 l 269 849 l 269 561 l 744 561 l 744 428 l 269 428 l 269 138 l 772 138 l 772 0 l 119 0 m 250 1107 l 250 1225 l 636 1225 l 636 1107 l 250 1107 z "},"Ę":{"ha":846,"x_min":119,"x_max":821,"o":"m 119 0 l 119 986 l 761 986 l 761 849 l 269 849 l 269 561 l 744 561 l 744 428 l 269 428 l 269 138 l 772 138 l 772 0 l 119 0 m 692 -294 q 591 -268 628 -294 q 554 -190 554 -242 q 578 -108 554 -150 q 629 -29 603 -67 l 672 28 l 772 0 l 725 -62 q 692 -117 701 -96 q 682 -156 682 -137 q 693 -181 682 -172 q 721 -190 704 -190 q 786 -172 760 -190 l 821 -258 q 768 -284 804 -274 q 692 -294 732 -294 z "},"Ẽ":{"ha":846,"x_min":119,"x_max":772,"o":"m 119 0 l 119 986 l 761 986 l 761 849 l 269 849 l 269 561 l 744 561 l 744 428 l 269 428 l 269 138 l 772 138 l 772 0 l 119 0 m 522 1090 q 471 1100 494 1090 q 422 1129 447 1110 q 388 1155 401 1147 q 357 1163 375 1163 q 317 1146 333 1163 q 299 1081 301 1129 l 217 1081 q 256 1210 218 1165 q 356 1256 294 1256 q 414 1245 389 1256 q 464 1214 439 1235 q 528 1183 501 1183 q 566 1201 551 1183 q 583 1268 581 1218 l 667 1268 q 625 1138 663 1185 q 522 1090 588 1090 z "},"Ə":{"ha":1011,"x_min":61,"x_max":950,"o":"m 950 493 q 890 213 950 328 q 728 38 831 99 q 494 -22 625 -22 q 332 9 410 -22 q 193 103 254 40 q 97 259 132 165 q 61 476 61 353 l 61 549 l 793 549 q 744 724 785 651 q 638 833 703 796 q 494 871 572 871 q 349 826 414 871 q 249 692 285 781 l 90 704 q 242 926 135 844 q 494 1008 349 1008 q 734 946 632 1008 q 893 768 836 883 q 950 493 950 653 m 496 115 q 696 192 614 115 q 792 415 778 268 l 222 415 q 312 191 240 267 q 496 115 383 115 z "},"F":{"ha":826,"x_min":119,"x_max":760,"o":"m 119 0 l 119 986 l 760 986 l 760 849 l 269 849 l 269 549 l 735 549 l 735 415 l 269 415 l 269 0 l 119 0 z "},"G":{"ha":990,"x_min":61,"x_max":922,"o":"m 507 -22 q 267 44 367 -22 q 114 226 167 110 q 61 492 61 342 q 115 757 61 640 q 270 941 169 874 q 513 1008 371 1008 q 717 965 633 1008 q 851 847 801 922 q 919 676 900 772 l 763 668 q 688 815 746 758 q 513 871 629 871 q 344 819 410 871 q 248 682 279 768 q 217 492 217 596 q 248 299 217 383 q 345 165 279 214 q 514 115 411 115 q 653 150 594 115 q 744 244 711 185 q 779 376 776 304 l 515 376 l 515 503 l 922 503 l 922 0 l 819 0 l 813 157 q 692 27 775 76 q 507 -22 608 -22 z "},"Ğ":{"ha":990,"x_min":61,"x_max":922,"o":"m 507 -22 q 267 44 367 -22 q 114 226 167 110 q 61 492 61 342 q 115 757 61 640 q 270 941 169 874 q 513 1008 371 1008 q 717 965 633 1008 q 851 847 801 922 q 919 676 900 772 l 763 668 q 688 815 746 758 q 513 871 629 871 q 344 819 410 871 q 248 682 279 768 q 217 492 217 596 q 248 299 217 383 q 345 165 279 214 q 514 115 411 115 q 653 150 594 115 q 744 244 711 185 q 779 376 776 304 l 515 376 l 515 503 l 922 503 l 922 0 l 819 0 l 813 157 q 692 27 775 76 q 507 -22 608 -22 m 513 1079 q 369 1129 424 1079 q 311 1267 315 1179 l 404 1267 q 438 1197 410 1218 q 513 1175 467 1175 q 586 1197 558 1175 q 619 1267 614 1218 l 714 1267 q 656 1129 710 1179 q 513 1079 601 1079 z "},"Ǧ":{"ha":990,"x_min":61,"x_max":922,"o":"m 507 -22 q 267 44 367 -22 q 114 226 167 110 q 61 492 61 342 q 115 757 61 640 q 270 941 169 874 q 513 1008 371 1008 q 717 965 633 1008 q 851 847 801 922 q 919 676 900 772 l 763 668 q 688 815 746 758 q 513 871 629 871 q 344 819 410 871 q 248 682 279 768 q 217 492 217 596 q 248 299 217 383 q 345 165 279 214 q 514 115 411 115 q 653 150 594 115 q 744 244 711 185 q 779 376 776 304 l 515 376 l 515 503 l 922 503 l 922 0 l 819 0 l 813 157 q 692 27 775 76 q 507 -22 608 -22 m 308 1268 l 421 1268 l 513 1144 l 604 1268 l 717 1268 l 589 1075 l 436 1075 l 308 1268 z "},"Ĝ":{"ha":990,"x_min":61,"x_max":922,"o":"m 507 -22 q 267 44 367 -22 q 114 226 167 110 q 61 492 61 342 q 115 757 61 640 q 270 941 169 874 q 513 1008 371 1008 q 717 965 633 1008 q 851 847 801 922 q 919 676 900 772 l 763 668 q 688 815 746 758 q 513 871 629 871 q 344 819 410 871 q 248 682 279 768 q 217 492 217 596 q 248 299 217 383 q 345 165 279 214 q 514 115 411 115 q 653 150 594 115 q 744 244 711 185 q 779 376 776 304 l 515 376 l 515 503 l 922 503 l 922 0 l 819 0 l 813 157 q 692 27 775 76 q 507 -22 608 -22 m 308 1075 l 436 1268 l 589 1268 l 717 1075 l 604 1075 l 513 1199 l 421 1075 l 308 1075 z "},"Ģ":{"ha":990,"x_min":61,"x_max":922,"o":"m 507 -22 q 267 44 367 -22 q 114 226 167 110 q 61 492 61 342 q 115 757 61 640 q 270 941 169 874 q 513 1008 371 1008 q 717 965 633 1008 q 851 847 801 922 q 919 676 900 772 l 763 668 q 688 815 746 758 q 513 871 629 871 q 344 819 410 871 q 248 682 279 768 q 217 492 217 596 q 248 299 217 383 q 345 165 279 214 q 514 115 411 115 q 653 150 594 115 q 744 244 711 185 q 779 376 776 304 l 515 376 l 515 503 l 922 503 l 922 0 l 819 0 l 813 157 q 692 27 775 76 q 507 -22 608 -22 m 415 -339 l 490 -208 l 440 -208 l 440 -72 l 593 -72 l 593 -196 l 510 -339 l 415 -339 z "},"Ġ":{"ha":990,"x_min":61,"x_max":922,"o":"m 507 -22 q 267 44 367 -22 q 114 226 167 110 q 61 492 61 342 q 115 757 61 640 q 270 941 169 874 q 513 1008 371 1008 q 717 965 633 1008 q 851 847 801 922 q 919 676 900 772 l 763 668 q 688 815 746 758 q 513 871 629 871 q 344 819 410 871 q 248 682 279 768 q 217 492 217 596 q 248 299 217 383 q 345 165 279 214 q 514 115 411 115 q 653 150 594 115 q 744 244 711 185 q 779 376 776 304 l 515 376 l 515 503 l 922 503 l 922 0 l 819 0 l 813 157 q 692 27 775 76 q 507 -22 608 -22 m 438 1093 l 438 1240 l 590 1240 l 590 1093 l 438 1093 z "},"Ḡ":{"ha":990,"x_min":61,"x_max":922,"o":"m 507 -22 q 267 44 367 -22 q 114 226 167 110 q 61 492 61 342 q 115 757 61 640 q 270 941 169 874 q 513 1008 371 1008 q 717 965 633 1008 q 851 847 801 922 q 919 676 900 772 l 763 668 q 688 815 746 758 q 513 871 629 871 q 344 819 410 871 q 248 682 279 768 q 217 492 217 596 q 248 299 217 383 q 345 165 279 214 q 514 115 411 115 q 653 150 594 115 q 744 244 711 185 q 779 376 776 304 l 515 376 l 515 503 l 922 503 l 922 0 l 819 0 l 813 157 q 692 27 775 76 q 507 -22 608 -22 m 321 1107 l 321 1225 l 707 1225 l 707 1107 l 321 1107 z "},"Ǥ":{"ha":1050,"x_min":61,"x_max":996,"o":"m 511 -22 q 264 47 364 -22 q 113 231 164 115 q 61 492 61 347 q 115 753 61 636 q 269 940 168 871 q 517 1008 371 1008 q 790 918 689 1008 q 919 676 890 828 l 763 668 q 689 813 746 756 q 515 871 632 871 q 344 819 410 871 q 247 682 278 768 q 217 492 217 596 q 248 298 217 383 q 344 164 279 213 q 510 115 410 115 q 640 142 586 115 q 728 217 694 168 l 515 217 l 515 314 l 769 314 q 779 389 778 349 l 515 389 l 515 503 l 922 503 l 922 443 q 911 314 922 375 l 996 314 l 996 217 l 885 217 q 745 39 840 100 q 511 -22 650 -22 z "},"H":{"ha":994,"x_min":119,"x_max":875,"o":"m 119 0 l 119 986 l 269 986 l 269 564 l 725 564 l 725 986 l 875 986 l 875 0 l 725 0 l 725 428 l 269 428 l 269 0 l 119 0 z "},"Ħ":{"ha":994,"x_min":17,"x_max":978,"o":"m 119 0 l 119 986 l 269 986 l 269 564 l 725 564 l 725 986 l 875 986 l 875 0 l 725 0 l 725 428 l 269 428 l 269 0 l 119 0 m 17 731 l 17 856 l 978 856 l 978 731 l 17 731 z "},"Ĥ":{"ha":994,"x_min":119,"x_max":875,"o":"m 119 0 l 119 986 l 269 986 l 269 564 l 725 564 l 725 986 l 875 986 l 875 0 l 725 0 l 725 428 l 269 428 l 269 0 l 119 0 m 293 1075 l 421 1268 l 574 1268 l 701 1075 l 589 1075 l 497 1199 l 406 1075 l 293 1075 z "},"I":{"ha":389,"x_min":119,"x_max":269,"o":"m 119 0 l 119 986 l 269 986 l 269 0 l 119 0 z "},"Ĳ":{"ha":1207,"x_min":119,"x_max":1108,"o":"m 119 0 l 119 986 l 269 986 l 269 0 l 119 0 m 778 -22 q 606 23 679 -22 q 491 148 532 68 q 449 332 450 228 l 601 340 q 649 173 603 231 q 778 115 694 115 q 911 175 864 115 q 958 347 958 235 l 958 986 l 1108 986 l 1108 347 q 1067 151 1108 235 q 953 23 1026 68 q 778 -22 879 -22 z "},"Í":{"ha":389,"x_min":119,"x_max":371,"o":"m 119 0 l 119 986 l 269 986 l 269 0 l 119 0 m 129 1075 l 217 1261 l 371 1261 l 246 1075 l 129 1075 z "},"Î":{"ha":389,"x_min":-10,"x_max":399,"o":"m 119 0 l 119 986 l 269 986 l 269 0 l 119 0 m -10 1075 l 118 1268 l 271 1268 l 399 1075 l 286 1075 l 194 1199 l 103 1075 l -10 1075 z "},"Ï":{"ha":389,"x_min":-10,"x_max":399,"o":"m 119 0 l 119 986 l 269 986 l 269 0 l 119 0 m -10 1092 l -10 1239 l 138 1239 l 138 1092 l -10 1092 m 250 1092 l 250 1239 l 399 1239 l 399 1092 l 250 1092 z "},"İ":{"ha":389,"x_min":118,"x_max":271,"o":"m 119 0 l 119 986 l 269 986 l 269 0 l 119 0 m 118 1093 l 118 1240 l 271 1240 l 271 1093 l 118 1093 z "},"Ì":{"ha":389,"x_min":19,"x_max":269,"o":"m 119 0 l 119 986 l 269 986 l 269 0 l 119 0 m 144 1082 l 19 1269 l 174 1269 l 261 1082 l 144 1082 z "},"Ī":{"ha":389,"x_min":1,"x_max":388,"o":"m 119 0 l 119 986 l 269 986 l 269 0 l 119 0 m 1 1107 l 1 1225 l 388 1225 l 388 1107 l 1 1107 z "},"Į":{"ha":389,"x_min":51,"x_max":318,"o":"m 119 0 l 119 986 l 269 986 l 269 0 l 119 0 m 189 -294 q 88 -268 125 -294 q 51 -190 51 -242 q 76 -108 51 -150 q 126 -29 100 -67 l 169 28 l 269 0 l 222 -62 q 189 -117 199 -96 q 179 -156 179 -137 q 190 -181 179 -172 q 218 -190 201 -190 q 283 -172 257 -190 l 318 -258 q 265 -284 301 -274 q 189 -294 229 -294 z "},"Ĩ":{"ha":389,"x_min":-31,"x_max":419,"o":"m 119 0 l 119 986 l 269 986 l 269 0 l 119 0 m 275 1090 q 224 1100 247 1090 q 175 1129 200 1110 q 141 1155 154 1147 q 110 1163 128 1163 q 70 1146 86 1163 q 51 1081 54 1129 l -31 1081 q 9 1210 -29 1165 q 108 1256 47 1256 q 167 1245 142 1256 q 217 1214 192 1235 q 281 1183 254 1183 q 319 1201 304 1183 q 336 1268 333 1218 l 419 1268 q 378 1138 415 1185 q 275 1090 340 1090 z "},"J":{"ha":843,"x_min":85,"x_max":744,"o":"m 414 -22 q 242 23 315 -22 q 127 148 168 68 q 85 332 86 228 l 238 340 q 285 173 239 231 q 414 115 331 115 q 547 175 500 115 q 594 347 594 235 l 594 986 l 744 986 l 744 347 q 703 151 744 235 q 589 23 663 68 q 414 -22 515 -22 z "},"Ĵ":{"ha":843,"x_min":85,"x_max":875,"o":"m 414 -22 q 242 23 315 -22 q 127 148 168 68 q 85 332 86 228 l 238 340 q 285 173 239 231 q 414 115 331 115 q 547 175 500 115 q 594 347 594 235 l 594 986 l 744 986 l 744 347 q 703 151 744 235 q 589 23 663 68 q 414 -22 515 -22 m 467 1075 l 594 1268 l 747 1268 l 875 1075 l 763 1075 l 671 1199 l 579 1075 l 467 1075 z "},"K":{"ha":911,"x_min":119,"x_max":892,"o":"m 119 0 l 119 986 l 269 986 l 269 515 l 685 986 l 867 986 l 489 556 l 892 0 l 715 0 l 389 450 l 269 317 l 269 0 l 119 0 z "},"Ǩ":{"ha":911,"x_min":119,"x_max":892,"o":"m 119 0 l 119 986 l 269 986 l 269 515 l 685 986 l 867 986 l 489 556 l 892 0 l 715 0 l 389 450 l 269 317 l 269 0 l 119 0 m 260 1268 l 372 1268 l 464 1144 l 556 1268 l 668 1268 l 540 1075 l 388 1075 l 260 1268 z "},"Ķ":{"ha":911,"x_min":119,"x_max":892,"o":"m 119 0 l 119 986 l 269 986 l 269 515 l 685 986 l 867 986 l 489 556 l 892 0 l 715 0 l 389 450 l 269 317 l 269 0 l 119 0 m 385 -339 l 460 -208 l 410 -208 l 410 -72 l 563 -72 l 563 -196 l 479 -339 l 385 -339 z "},"L":{"ha":810,"x_min":119,"x_max":750,"o":"m 119 0 l 119 986 l 269 986 l 269 138 l 750 138 l 750 0 l 119 0 z "},"Ĺ":{"ha":810,"x_min":119,"x_max":750,"o":"m 119 0 l 119 986 l 269 986 l 269 138 l 750 138 l 750 0 l 119 0 m 129 1075 l 217 1261 l 371 1261 l 246 1075 l 129 1075 z "},"Ľ":{"ha":810,"x_min":119,"x_max":750,"o":"m 119 0 l 119 986 l 269 986 l 269 138 l 750 138 l 750 0 l 119 0 m 547 618 l 589 986 l 726 986 l 653 618 l 547 618 z "},"Ļ":{"ha":810,"x_min":119,"x_max":750,"o":"m 119 0 l 119 986 l 269 986 l 269 138 l 750 138 l 750 0 l 119 0 m 333 -339 l 408 -208 l 358 -208 l 358 -72 l 511 -72 l 511 -196 l 428 -339 l 333 -339 z "},"Ł":{"ha":810,"x_min":21,"x_max":750,"o":"m 119 0 l 119 986 l 269 986 l 269 138 l 750 138 l 750 0 l 119 0 m 21 356 l 21 472 l 471 701 l 471 583 l 21 356 z "},"M":{"ha":1236,"x_min":119,"x_max":1117,"o":"m 119 0 l 119 986 l 325 986 l 618 176 l 911 986 l 1117 986 l 1117 0 l 967 0 l 967 722 l 701 1 l 535 1 l 269 722 l 269 0 l 119 0 z "},"N":{"ha":1035,"x_min":119,"x_max":915,"o":"m 119 0 l 119 986 l 310 986 l 765 182 l 765 986 l 915 986 l 915 0 l 718 0 l 269 786 l 269 0 l 119 0 z "},"Ń":{"ha":1035,"x_min":119,"x_max":915,"o":"m 119 0 l 119 986 l 310 986 l 765 182 l 765 986 l 915 986 l 915 0 l 718 0 l 269 786 l 269 0 l 119 0 m 468 1075 l 556 1261 l 710 1261 l 585 1075 l 468 1075 z "},"Ň":{"ha":1035,"x_min":119,"x_max":915,"o":"m 119 0 l 119 986 l 310 986 l 765 182 l 765 986 l 915 986 l 915 0 l 718 0 l 269 786 l 269 0 l 119 0 m 329 1268 l 442 1268 l 533 1144 l 625 1268 l 738 1268 l 610 1075 l 457 1075 l 329 1268 z "},"Ņ":{"ha":1035,"x_min":119,"x_max":915,"o":"m 119 0 l 119 986 l 310 986 l 765 182 l 765 986 l 915 986 l 915 0 l 718 0 l 269 786 l 269 0 l 119 0 m 417 -339 l 492 -208 l 442 -208 l 442 -72 l 594 -72 l 594 -196 l 511 -339 l 417 -339 z "},"Ñ":{"ha":1035,"x_min":119,"x_max":915,"o":"m 119 0 l 119 986 l 310 986 l 765 182 l 765 986 l 915 986 l 915 0 l 718 0 l 269 786 l 269 0 l 119 0 m 614 1090 q 563 1100 586 1090 q 514 1129 539 1110 q 480 1155 493 1147 q 449 1163 467 1163 q 409 1146 425 1163 q 390 1081 393 1129 l 308 1081 q 348 1210 310 1165 q 447 1256 386 1256 q 506 1245 481 1256 q 556 1214 531 1235 q 619 1183 593 1183 q 658 1201 643 1183 q 675 1268 672 1218 l 758 1268 q 717 1138 754 1185 q 614 1090 679 1090 z "},"Ŋ":{"ha":1035,"x_min":119,"x_max":915,"o":"m 119 0 l 119 986 l 310 986 l 765 183 l 765 986 l 915 986 l 915 -10 q 859 -158 915 -103 q 703 -214 803 -214 l 547 -214 l 547 -92 l 686 -92 q 769 -11 769 -92 l 769 0 l 718 0 l 269 785 l 269 0 l 119 0 z "},"O":{"ha":1043,"x_min":61,"x_max":982,"o":"m 521 -22 q 275 40 378 -22 q 117 217 172 101 q 61 492 61 332 q 117 767 61 651 q 275 946 172 883 q 521 1008 378 1008 q 769 946 665 1008 q 927 767 872 883 q 982 492 982 651 q 927 217 982 332 q 769 40 872 101 q 521 -22 665 -22 m 521 115 q 745 215 664 115 q 826 492 826 314 q 745 770 826 669 q 521 871 664 871 q 298 770 379 871 q 217 492 217 669 q 298 215 217 314 q 521 115 379 115 z "},"Ó":{"ha":1043,"x_min":61,"x_max":982,"o":"m 521 -22 q 275 40 378 -22 q 117 217 172 101 q 61 492 61 332 q 117 767 61 651 q 275 946 172 883 q 521 1008 378 1008 q 769 946 665 1008 q 927 767 872 883 q 982 492 982 651 q 927 217 982 332 q 769 40 872 101 q 521 -22 665 -22 m 521 115 q 745 215 664 115 q 826 492 826 314 q 745 770 826 669 q 521 871 664 871 q 298 770 379 871 q 217 492 217 669 q 298 215 217 314 q 521 115 379 115 m 456 1075 l 543 1261 l 697 1261 l 572 1075 l 456 1075 z "},"Ô":{"ha":1043,"x_min":61,"x_max":982,"o":"m 521 -22 q 275 40 378 -22 q 117 217 172 101 q 61 492 61 332 q 117 767 61 651 q 275 946 172 883 q 521 1008 378 1008 q 769 946 665 1008 q 927 767 872 883 q 982 492 982 651 q 927 217 982 332 q 769 40 872 101 q 521 -22 665 -22 m 521 115 q 745 215 664 115 q 826 492 826 314 q 745 770 826 669 q 521 871 664 871 q 298 770 379 871 q 217 492 217 669 q 298 215 217 314 q 521 115 379 115 m 317 1075 l 444 1268 l 597 1268 l 725 1075 l 613 1075 l 521 1199 l 429 1075 l 317 1075 z "},"Ö":{"ha":1043,"x_min":61,"x_max":982,"o":"m 521 -22 q 275 40 378 -22 q 117 217 172 101 q 61 492 61 332 q 117 767 61 651 q 275 946 172 883 q 521 1008 378 1008 q 769 946 665 1008 q 927 767 872 883 q 982 492 982 651 q 927 217 982 332 q 769 40 872 101 q 521 -22 665 -22 m 521 115 q 745 215 664 115 q 826 492 826 314 q 745 770 826 669 q 521 871 664 871 q 298 770 379 871 q 217 492 217 669 q 298 215 217 314 q 521 115 379 115 m 318 1092 l 318 1239 l 465 1239 l 465 1092 l 318 1092 m 578 1092 l 578 1239 l 726 1239 l 726 1092 l 578 1092 z "},"Ò":{"ha":1043,"x_min":61,"x_max":982,"o":"m 521 -22 q 275 40 378 -22 q 117 217 172 101 q 61 492 61 332 q 117 767 61 651 q 275 946 172 883 q 521 1008 378 1008 q 769 946 665 1008 q 927 767 872 883 q 982 492 982 651 q 927 217 982 332 q 769 40 872 101 q 521 -22 665 -22 m 521 115 q 745 215 664 115 q 826 492 826 314 q 745 770 826 669 q 521 871 664 871 q 298 770 379 871 q 217 492 217 669 q 298 215 217 314 q 521 115 379 115 m 471 1082 l 346 1269 l 500 1269 l 588 1082 l 471 1082 z "},"Ő":{"ha":1043,"x_min":61,"x_max":982,"o":"m 521 -22 q 275 40 378 -22 q 117 217 172 101 q 61 492 61 332 q 117 767 61 651 q 275 946 172 883 q 521 1008 378 1008 q 769 946 665 1008 q 927 767 872 883 q 982 492 982 651 q 927 217 982 332 q 769 40 872 101 q 521 -22 665 -22 m 521 115 q 745 215 664 115 q 826 492 826 314 q 745 770 826 669 q 521 871 664 871 q 298 770 379 871 q 217 492 217 669 q 298 215 217 314 q 521 115 379 115 m 358 1075 l 446 1261 l 600 1261 l 475 1075 l 358 1075 m 561 1075 l 649 1261 l 803 1261 l 678 1075 l 561 1075 z "},"Ō":{"ha":1043,"x_min":61,"x_max":982,"o":"m 521 -22 q 275 40 378 -22 q 117 217 172 101 q 61 492 61 332 q 117 767 61 651 q 275 946 172 883 q 521 1008 378 1008 q 769 946 665 1008 q 927 767 872 883 q 982 492 982 651 q 927 217 982 332 q 769 40 872 101 q 521 -22 665 -22 m 521 115 q 745 215 664 115 q 826 492 826 314 q 745 770 826 669 q 521 871 664 871 q 298 770 379 871 q 217 492 217 669 q 298 215 217 314 q 521 115 379 115 m 328 1107 l 328 1225 l 714 1225 l 714 1107 l 328 1107 z "},"Ø":{"ha":1043,"x_min":61,"x_max":982,"o":"m 521 -22 q 275 40 378 -22 q 117 217 172 101 q 61 492 61 332 q 117 767 61 651 q 275 946 172 883 q 521 1008 378 1008 q 769 946 665 1008 q 927 767 872 883 q 982 492 982 651 q 927 217 982 332 q 769 40 872 101 q 521 -22 665 -22 m 521 115 q 745 215 664 115 q 826 492 826 314 q 745 770 826 669 q 521 871 664 871 q 298 770 379 871 q 217 492 217 669 q 298 215 217 314 q 521 115 379 115 m 103 -22 l 811 1008 l 940 1008 l 232 -22 l 103 -22 z "},"Õ":{"ha":1043,"x_min":61,"x_max":982,"o":"m 521 -22 q 275 40 378 -22 q 117 217 172 101 q 61 492 61 332 q 117 767 61 651 q 275 946 172 883 q 521 1008 378 1008 q 769 946 665 1008 q 927 767 872 883 q 982 492 982 651 q 927 217 982 332 q 769 40 872 101 q 521 -22 665 -22 m 521 115 q 745 215 664 115 q 826 492 826 314 q 745 770 826 669 q 521 871 664 871 q 298 770 379 871 q 217 492 217 669 q 298 215 217 314 q 521 115 379 115 m 601 1090 q 550 1100 574 1090 q 501 1129 526 1110 q 467 1155 481 1147 q 436 1163 454 1163 q 397 1146 413 1163 q 378 1081 381 1129 l 296 1081 q 335 1210 297 1165 q 435 1256 374 1256 q 493 1245 468 1256 q 543 1214 518 1235 q 607 1183 581 1183 q 645 1201 631 1183 q 663 1268 660 1218 l 746 1268 q 704 1138 742 1185 q 601 1090 667 1090 z "},"Œ":{"ha":1526,"x_min":61,"x_max":1451,"o":"m 519 -22 q 274 42 376 -22 q 116 222 171 106 q 61 492 61 338 q 116 763 61 647 q 273 944 171 879 q 519 1008 375 1008 q 706 970 625 1008 q 840 861 786 932 l 840 986 l 1440 986 l 1440 849 l 990 849 l 990 561 l 1424 561 l 1424 428 l 990 428 l 990 138 l 1451 138 l 1451 0 l 840 0 l 840 125 q 706 17 786 56 q 519 -22 625 -22 m 519 115 q 690 163 622 115 q 792 297 758 211 q 826 492 826 382 q 793 686 826 600 q 692 822 760 772 q 519 871 624 871 q 350 822 417 871 q 250 687 283 772 q 217 492 217 601 q 250 297 217 382 q 351 163 283 211 q 519 115 418 115 z "},"P":{"ha":913,"x_min":119,"x_max":846,"o":"m 119 0 l 119 986 l 488 986 q 751 905 656 986 q 846 679 846 824 q 751 452 846 535 q 488 369 656 369 l 269 369 l 269 0 l 119 0 m 269 506 l 483 506 q 690 679 690 506 q 483 849 690 849 l 269 849 l 269 506 z "},"Þ":{"ha":871,"x_min":119,"x_max":804,"o":"m 119 0 l 119 986 l 269 986 l 269 808 l 449 808 q 710 729 617 808 q 804 508 804 650 q 710 288 804 367 q 449 208 617 208 l 269 208 l 269 0 l 119 0 m 447 671 l 269 671 l 269 344 l 447 344 q 649 508 649 344 q 447 671 649 671 z "},"Q":{"ha":1035,"x_min":61,"x_max":974,"o":"m 769 -93 l 690 10 q 612 -14 657 -6 q 517 -22 567 -22 q 272 46 374 -22 q 115 230 169 114 q 61 492 61 346 q 114 753 61 636 q 269 940 167 871 q 517 1008 371 1008 q 767 940 665 1008 q 921 753 868 871 q 974 492 974 636 q 926 244 974 356 q 788 64 878 133 l 913 -93 l 769 -93 m 517 115 q 565 118 543 115 q 601 128 586 121 l 461 304 l 604 304 l 699 179 q 818 492 818 279 q 785 681 818 594 q 686 819 753 767 q 517 871 619 871 q 349 819 415 871 q 249 681 282 767 q 217 492 217 594 q 250 304 217 390 q 350 167 283 218 q 517 115 417 115 z "},"R":{"ha":944,"x_min":119,"x_max":864,"o":"m 119 0 l 119 986 l 513 986 q 762 906 669 986 q 854 689 854 825 q 805 541 854 603 q 686 458 756 479 q 792 406 754 447 q 838 288 831 364 l 864 0 l 713 0 l 689 268 q 649 356 685 328 q 531 385 613 385 l 269 385 l 269 0 l 119 0 m 269 522 l 515 522 q 649 564 600 522 q 699 685 699 606 q 648 806 699 764 q 503 849 597 849 l 269 849 l 269 522 z "},"Ŕ":{"ha":944,"x_min":119,"x_max":864,"o":"m 119 0 l 119 986 l 513 986 q 762 906 669 986 q 854 689 854 825 q 805 541 854 603 q 686 458 756 479 q 792 406 754 447 q 838 288 831 364 l 864 0 l 713 0 l 689 268 q 649 356 685 328 q 531 385 613 385 l 269 385 l 269 0 l 119 0 m 269 522 l 515 522 q 649 564 600 522 q 699 685 699 606 q 648 806 699 764 q 503 849 597 849 l 269 849 l 269 522 m 407 1075 l 494 1261 l 649 1261 l 524 1075 l 407 1075 z "},"Ř":{"ha":944,"x_min":119,"x_max":864,"o":"m 119 0 l 119 986 l 513 986 q 762 906 669 986 q 854 689 854 825 q 805 541 854 603 q 686 458 756 479 q 792 406 754 447 q 838 288 831 364 l 864 0 l 713 0 l 689 268 q 649 356 685 328 q 531 385 613 385 l 269 385 l 269 0 l 119 0 m 269 522 l 515 522 q 649 564 600 522 q 699 685 699 606 q 648 806 699 764 q 503 849 597 849 l 269 849 l 269 522 m 268 1268 l 381 1268 l 472 1144 l 564 1268 l 676 1268 l 549 1075 l 396 1075 l 268 1268 z "},"Ŗ":{"ha":944,"x_min":119,"x_max":864,"o":"m 119 0 l 119 986 l 513 986 q 762 906 669 986 q 854 689 854 825 q 805 541 854 603 q 686 458 756 479 q 792 406 754 447 q 838 288 831 364 l 864 0 l 713 0 l 689 268 q 649 356 685 328 q 531 385 613 385 l 269 385 l 269 0 l 119 0 m 269 522 l 515 522 q 649 564 600 522 q 699 685 699 606 q 648 806 699 764 q 503 849 597 849 l 269 849 l 269 522 m 389 -339 l 464 -208 l 414 -208 l 414 -72 l 567 -72 l 567 -196 l 483 -339 l 389 -339 z "},"S":{"ha":908,"x_min":75,"x_max":833,"o":"m 475 -22 q 270 21 357 -22 q 133 140 183 64 q 75 318 83 217 l 229 328 q 305 169 243 225 q 478 114 367 114 q 626 150 574 114 q 679 256 679 186 q 659 330 679 297 q 583 390 639 363 q 418 443 526 417 q 229 506 300 471 q 127 594 158 542 q 96 722 96 646 q 137 872 96 807 q 254 972 178 936 q 438 1008 331 1008 q 631 967 550 1008 q 757 853 711 925 q 814 688 803 781 l 660 679 q 592 818 649 764 q 435 872 536 872 q 299 833 349 872 q 250 728 250 793 q 270 657 250 685 q 342 608 290 629 q 490 564 394 586 q 693 492 618 535 q 801 393 768 450 q 833 264 833 336 q 788 112 833 176 q 663 13 743 47 q 475 -22 582 -22 z "},"Ś":{"ha":908,"x_min":75,"x_max":833,"o":"m 475 -22 q 270 21 357 -22 q 133 140 183 64 q 75 318 83 217 l 229 328 q 305 169 243 225 q 478 114 367 114 q 626 150 574 114 q 679 256 679 186 q 659 330 679 297 q 583 390 639 363 q 418 443 526 417 q 229 506 300 471 q 127 594 158 542 q 96 722 96 646 q 137 872 96 807 q 254 972 178 936 q 438 1008 331 1008 q 631 967 550 1008 q 757 853 711 925 q 814 688 803 781 l 660 679 q 592 818 649 764 q 435 872 536 872 q 299 833 349 872 q 250 728 250 793 q 270 657 250 685 q 342 608 290 629 q 490 564 394 586 q 693 492 618 535 q 801 393 768 450 q 833 264 833 336 q 788 112 833 176 q 663 13 743 47 q 475 -22 582 -22 m 372 1075 l 460 1261 l 614 1261 l 489 1075 l 372 1075 z "},"Š":{"ha":908,"x_min":75,"x_max":833,"o":"m 475 -22 q 270 21 357 -22 q 133 140 183 64 q 75 318 83 217 l 229 328 q 305 169 243 225 q 478 114 367 114 q 626 150 574 114 q 679 256 679 186 q 659 330 679 297 q 583 390 639 363 q 418 443 526 417 q 229 506 300 471 q 127 594 158 542 q 96 722 96 646 q 137 872 96 807 q 254 972 178 936 q 438 1008 331 1008 q 631 967 550 1008 q 757 853 711 925 q 814 688 803 781 l 660 679 q 592 818 649 764 q 435 872 536 872 q 299 833 349 872 q 250 728 250 793 q 270 657 250 685 q 342 608 290 629 q 490 564 394 586 q 693 492 618 535 q 801 393 768 450 q 833 264 833 336 q 788 112 833 176 q 663 13 743 47 q 475 -22 582 -22 m 233 1268 l 346 1268 l 438 1144 l 529 1268 l 642 1268 l 514 1075 l 361 1075 l 233 1268 z "},"Ş":{"ha":908,"x_min":75,"x_max":833,"o":"m 475 -22 q 270 21 357 -22 q 133 140 183 64 q 75 318 83 217 l 229 328 q 305 169 243 225 q 478 114 367 114 q 626 150 574 114 q 679 256 679 186 q 659 330 679 297 q 583 390 639 363 q 418 443 526 417 q 229 506 300 471 q 127 594 158 542 q 96 722 96 646 q 137 872 96 807 q 254 972 178 936 q 438 1008 331 1008 q 631 967 550 1008 q 757 853 711 925 q 814 688 803 781 l 660 679 q 592 818 649 764 q 435 872 536 872 q 299 833 349 872 q 250 728 250 793 q 270 657 250 685 q 342 608 290 629 q 490 564 394 586 q 693 492 618 535 q 801 393 768 450 q 833 264 833 336 q 788 112 833 176 q 663 13 743 47 q 475 -22 582 -22 m 451 -311 q 342 -280 385 -311 q 285 -200 300 -249 l 363 -169 q 449 -225 385 -225 q 501 -211 482 -225 q 521 -172 521 -197 q 502 -129 521 -146 q 421 -112 483 -112 l 375 -67 l 426 14 l 525 14 l 481 -47 q 581 -87 549 -51 q 614 -175 614 -122 q 567 -275 614 -239 q 451 -311 521 -311 z "},"Ŝ":{"ha":908,"x_min":75,"x_max":833,"o":"m 475 -22 q 270 21 357 -22 q 133 140 183 64 q 75 318 83 217 l 229 328 q 305 169 243 225 q 478 114 367 114 q 626 150 574 114 q 679 256 679 186 q 659 330 679 297 q 583 390 639 363 q 418 443 526 417 q 229 506 300 471 q 127 594 158 542 q 96 722 96 646 q 137 872 96 807 q 254 972 178 936 q 438 1008 331 1008 q 631 967 550 1008 q 757 853 711 925 q 814 688 803 781 l 660 679 q 592 818 649 764 q 435 872 536 872 q 299 833 349 872 q 250 728 250 793 q 270 657 250 685 q 342 608 290 629 q 490 564 394 586 q 693 492 618 535 q 801 393 768 450 q 833 264 833 336 q 788 112 833 176 q 663 13 743 47 q 475 -22 582 -22 m 233 1075 l 361 1268 l 514 1268 l 642 1075 l 529 1075 l 438 1199 l 346 1075 l 233 1075 z "},"Ș":{"ha":908,"x_min":75,"x_max":833,"o":"m 475 -22 q 270 21 357 -22 q 133 140 183 64 q 75 318 83 217 l 229 328 q 305 169 243 225 q 478 114 367 114 q 626 150 574 114 q 679 256 679 186 q 659 330 679 297 q 583 390 639 363 q 418 443 526 417 q 229 506 300 471 q 127 594 158 542 q 96 722 96 646 q 137 872 96 807 q 254 972 178 936 q 438 1008 331 1008 q 631 967 550 1008 q 757 853 711 925 q 814 688 803 781 l 660 679 q 592 818 649 764 q 435 872 536 872 q 299 833 349 872 q 250 728 250 793 q 270 657 250 685 q 342 608 290 629 q 490 564 394 586 q 693 492 618 535 q 801 393 768 450 q 833 264 833 336 q 788 112 833 176 q 663 13 743 47 q 475 -22 582 -22 m 363 -339 l 438 -208 l 388 -208 l 388 -72 l 540 -72 l 540 -196 l 457 -339 l 363 -339 z "},"ẞ":{"ha":983,"x_min":119,"x_max":903,"o":"m 119 0 l 119 681 q 200 906 119 825 q 425 986 281 986 l 843 986 l 843 840 l 569 592 q 819 507 736 581 q 903 307 903 433 q 806 83 903 165 q 543 0 710 0 l 363 0 l 363 138 l 543 138 q 692 182 638 138 q 747 306 747 226 q 688 430 747 386 q 528 474 629 474 l 388 474 l 388 594 l 660 849 l 425 849 q 269 681 269 849 l 269 0 l 119 0 z "},"T":{"ha":789,"x_min":17,"x_max":772,"o":"m 319 0 l 319 849 l 17 849 l 17 986 l 772 986 l 772 849 l 469 849 l 469 0 l 319 0 z "},"Ŧ":{"ha":789,"x_min":17,"x_max":772,"o":"m 319 0 l 319 849 l 17 849 l 17 986 l 772 986 l 772 849 l 469 849 l 469 0 l 319 0 m 135 411 l 135 536 l 654 536 l 654 411 l 135 411 z "},"Ť":{"ha":789,"x_min":17,"x_max":772,"o":"m 319 0 l 319 849 l 17 849 l 17 986 l 772 986 l 772 849 l 469 849 l 469 0 l 319 0 m 190 1268 l 303 1268 l 394 1144 l 486 1268 l 599 1268 l 471 1075 l 318 1075 l 190 1268 z "},"Ţ":{"ha":789,"x_min":17,"x_max":772,"o":"m 319 0 l 319 849 l 17 849 l 17 986 l 772 986 l 772 849 l 469 849 l 469 0 l 319 0 m 382 -311 q 273 -280 315 -311 q 215 -200 231 -249 l 293 -169 q 379 -225 315 -225 q 432 -211 413 -225 q 451 -172 451 -197 q 433 -129 451 -146 q 351 -112 414 -112 l 306 -67 l 357 14 l 456 14 l 411 -47 q 512 -87 479 -51 q 544 -175 544 -122 q 498 -275 544 -239 q 382 -311 451 -311 z "},"Ț":{"ha":789,"x_min":17,"x_max":772,"o":"m 319 0 l 319 849 l 17 849 l 17 986 l 772 986 l 772 849 l 469 849 l 469 0 l 319 0 m 293 -339 l 368 -208 l 318 -208 l 318 -72 l 471 -72 l 471 -196 l 388 -339 l 293 -339 z "},"U":{"ha":964,"x_min":99,"x_max":865,"o":"m 482 -22 q 278 23 364 -22 q 145 151 192 68 q 99 349 99 235 l 99 988 l 249 988 l 249 349 q 310 176 249 236 q 482 115 371 115 q 654 176 593 115 q 715 349 715 236 l 715 988 l 865 988 l 865 349 q 819 151 865 235 q 686 23 772 68 q 482 -22 600 -22 z "},"Ú":{"ha":964,"x_min":99,"x_max":865,"o":"m 482 -22 q 278 23 364 -22 q 145 151 192 68 q 99 349 99 235 l 99 988 l 249 988 l 249 349 q 310 176 249 236 q 482 115 371 115 q 654 176 593 115 q 715 349 715 236 l 715 988 l 865 988 l 865 349 q 819 151 865 235 q 686 23 772 68 q 482 -22 600 -22 m 417 1075 l 504 1261 l 658 1261 l 533 1075 l 417 1075 z "},"Ŭ":{"ha":964,"x_min":99,"x_max":865,"o":"m 482 -22 q 278 23 364 -22 q 145 151 192 68 q 99 349 99 235 l 99 988 l 249 988 l 249 349 q 310 176 249 236 q 482 115 371 115 q 654 176 593 115 q 715 349 715 236 l 715 988 l 865 988 l 865 349 q 819 151 865 235 q 686 23 772 68 q 482 -22 600 -22 m 482 1079 q 339 1129 393 1079 q 281 1267 285 1179 l 374 1267 q 408 1197 379 1218 q 482 1175 436 1175 q 556 1197 528 1175 q 589 1267 583 1218 l 683 1267 q 625 1129 679 1179 q 482 1079 571 1079 z "},"Û":{"ha":964,"x_min":99,"x_max":865,"o":"m 482 -22 q 278 23 364 -22 q 145 151 192 68 q 99 349 99 235 l 99 988 l 249 988 l 249 349 q 310 176 249 236 q 482 115 371 115 q 654 176 593 115 q 715 349 715 236 l 715 988 l 865 988 l 865 349 q 819 151 865 235 q 686 23 772 68 q 482 -22 600 -22 m 278 1075 l 406 1268 l 558 1268 l 686 1075 l 574 1075 l 482 1199 l 390 1075 l 278 1075 z "},"Ü":{"ha":964,"x_min":99,"x_max":865,"o":"m 482 -22 q 278 23 364 -22 q 145 151 192 68 q 99 349 99 235 l 99 988 l 249 988 l 249 349 q 310 176 249 236 q 482 115 371 115 q 654 176 593 115 q 715 349 715 236 l 715 988 l 865 988 l 865 349 q 819 151 865 235 q 686 23 772 68 q 482 -22 600 -22 m 279 1092 l 279 1239 l 426 1239 l 426 1092 l 279 1092 m 539 1092 l 539 1239 l 688 1239 l 688 1092 l 539 1092 z "},"Ù":{"ha":964,"x_min":99,"x_max":865,"o":"m 482 -22 q 278 23 364 -22 q 145 151 192 68 q 99 349 99 235 l 99 988 l 249 988 l 249 349 q 310 176 249 236 q 482 115 371 115 q 654 176 593 115 q 715 349 715 236 l 715 988 l 865 988 l 865 349 q 819 151 865 235 q 686 23 772 68 q 482 -22 600 -22 m 432 1082 l 307 1269 l 461 1269 l 549 1082 l 432 1082 z "},"Ű":{"ha":964,"x_min":99,"x_max":865,"o":"m 482 -22 q 278 23 364 -22 q 145 151 192 68 q 99 349 99 235 l 99 988 l 249 988 l 249 349 q 310 176 249 236 q 482 115 371 115 q 654 176 593 115 q 715 349 715 236 l 715 988 l 865 988 l 865 349 q 819 151 865 235 q 686 23 772 68 q 482 -22 600 -22 m 319 1075 l 407 1261 l 561 1261 l 436 1075 l 319 1075 m 522 1075 l 610 1261 l 764 1261 l 639 1075 l 522 1075 z "},"Ū":{"ha":964,"x_min":99,"x_max":865,"o":"m 482 -22 q 278 23 364 -22 q 145 151 192 68 q 99 349 99 235 l 99 988 l 249 988 l 249 349 q 310 176 249 236 q 482 115 371 115 q 654 176 593 115 q 715 349 715 236 l 715 988 l 865 988 l 865 349 q 819 151 865 235 q 686 23 772 68 q 482 -22 600 -22 m 289 1107 l 289 1225 l 675 1225 l 675 1107 l 289 1107 z "},"Ų":{"ha":964,"x_min":99,"x_max":865,"o":"m 482 -22 q 278 23 364 -22 q 145 151 192 68 q 99 349 99 235 l 99 988 l 249 988 l 249 349 q 310 176 249 236 q 482 115 371 115 q 654 176 593 115 q 715 349 715 236 l 715 988 l 865 988 l 865 349 q 819 151 865 235 q 686 23 772 68 q 482 -22 600 -22 m 560 -292 q 459 -265 496 -292 q 422 -187 422 -239 q 447 -106 422 -147 q 497 -26 471 -64 l 540 31 l 640 3 l 593 -60 q 560 -114 569 -93 q 550 -153 550 -135 q 561 -178 550 -169 q 589 -187 572 -187 q 654 -169 628 -187 l 689 -256 q 636 -281 672 -271 q 560 -292 600 -292 z "},"Ů":{"ha":964,"x_min":99,"x_max":865,"o":"m 482 -22 q 278 23 364 -22 q 145 151 192 68 q 99 349 99 235 l 99 988 l 249 988 l 249 349 q 310 176 249 236 q 482 115 371 115 q 654 176 593 115 q 715 349 715 236 l 715 988 l 865 988 l 865 349 q 819 151 865 235 q 686 23 772 68 q 482 -22 600 -22 m 482 1047 q 388 1085 426 1047 q 350 1179 350 1122 q 388 1273 350 1235 q 482 1311 426 1311 q 577 1273 539 1311 q 615 1179 615 1235 q 577 1085 615 1122 q 482 1047 539 1047 m 482 1122 q 523 1138 507 1122 q 539 1179 539 1154 q 523 1219 539 1203 q 482 1235 507 1235 q 442 1219 458 1235 q 426 1179 426 1203 q 442 1138 426 1154 q 482 1122 458 1122 z "},"Ũ":{"ha":964,"x_min":99,"x_max":865,"o":"m 482 -22 q 278 23 364 -22 q 145 151 192 68 q 99 349 99 235 l 99 988 l 249 988 l 249 349 q 310 176 249 236 q 482 115 371 115 q 654 176 593 115 q 715 349 715 236 l 715 988 l 865 988 l 865 349 q 819 151 865 235 q 686 23 772 68 q 482 -22 600 -22 m 563 1090 q 511 1100 535 1090 q 463 1129 488 1110 q 428 1155 442 1147 q 397 1163 415 1163 q 358 1146 374 1163 q 339 1081 342 1129 l 257 1081 q 297 1210 258 1165 q 396 1256 335 1256 q 454 1245 429 1256 q 504 1214 479 1235 q 568 1183 542 1183 q 606 1201 592 1183 q 624 1268 621 1218 l 707 1268 q 665 1138 703 1185 q 563 1090 628 1090 z "},"V":{"ha":956,"x_min":28,"x_max":928,"o":"m 383 0 l 28 986 l 188 986 l 478 167 l 768 986 l 928 986 l 571 0 l 383 0 z "},"W":{"ha":1344,"x_min":53,"x_max":1293,"o":"m 314 0 l 53 986 l 213 986 l 404 207 l 596 986 l 749 986 l 940 207 l 1131 986 l 1293 986 l 1031 0 l 856 0 l 672 719 l 489 0 l 314 0 z "},"Ẃ":{"ha":1344,"x_min":53,"x_max":1293,"o":"m 314 0 l 53 986 l 213 986 l 404 207 l 596 986 l 749 986 l 940 207 l 1131 986 l 1293 986 l 1031 0 l 856 0 l 672 719 l 489 0 l 314 0 m 607 1075 l 694 1261 l 849 1261 l 724 1075 l 607 1075 z "},"Ŵ":{"ha":1344,"x_min":53,"x_max":1293,"o":"m 314 0 l 53 986 l 213 986 l 404 207 l 596 986 l 749 986 l 940 207 l 1131 986 l 1293 986 l 1031 0 l 856 0 l 672 719 l 489 0 l 314 0 m 468 1075 l 596 1268 l 749 1268 l 876 1075 l 764 1075 l 672 1199 l 581 1075 l 468 1075 z "},"Ẅ":{"ha":1344,"x_min":53,"x_max":1293,"o":"m 314 0 l 53 986 l 213 986 l 404 207 l 596 986 l 749 986 l 940 207 l 1131 986 l 1293 986 l 1031 0 l 856 0 l 672 719 l 489 0 l 314 0 m 468 1092 l 468 1239 l 615 1239 l 615 1092 l 468 1092 m 728 1092 l 728 1239 l 876 1239 l 876 1092 l 728 1092 z "},"Ẁ":{"ha":1344,"x_min":53,"x_max":1293,"o":"m 314 0 l 53 986 l 213 986 l 404 207 l 596 986 l 749 986 l 940 207 l 1131 986 l 1293 986 l 1031 0 l 856 0 l 672 719 l 489 0 l 314 0 m 622 1082 l 497 1269 l 651 1269 l 739 1082 l 622 1082 z "},"X":{"ha":879,"x_min":19,"x_max":860,"o":"m 19 0 l 347 494 l 22 986 l 199 986 l 442 611 l 681 986 l 856 986 l 531 497 l 860 0 l 683 0 l 439 381 l 194 0 l 19 0 z "},"Y":{"ha":825,"x_min":-8,"x_max":835,"o":"m 338 0 l 338 396 l -8 986 l 164 986 l 413 546 l 663 986 l 835 986 l 488 396 l 488 0 l 338 0 z "},"Ý":{"ha":825,"x_min":-8,"x_max":835,"o":"m 338 0 l 338 396 l -8 986 l 164 986 l 413 546 l 663 986 l 835 986 l 488 396 l 488 0 l 338 0 m 347 1075 l 435 1261 l 589 1261 l 464 1075 l 347 1075 z "},"Ŷ":{"ha":825,"x_min":-8,"x_max":835,"o":"m 338 0 l 338 396 l -8 986 l 164 986 l 413 546 l 663 986 l 835 986 l 488 396 l 488 0 l 338 0 m 208 1075 l 336 1268 l 489 1268 l 617 1075 l 504 1075 l 413 1199 l 321 1075 l 208 1075 z "},"Ÿ":{"ha":825,"x_min":-8,"x_max":835,"o":"m 338 0 l 338 396 l -8 986 l 164 986 l 413 546 l 663 986 l 835 986 l 488 396 l 488 0 l 338 0 m 210 1092 l 210 1239 l 357 1239 l 357 1092 l 210 1092 m 469 1092 l 469 1239 l 618 1239 l 618 1092 l 469 1092 z "},"Ỳ":{"ha":825,"x_min":-8,"x_max":835,"o":"m 338 0 l 338 396 l -8 986 l 164 986 l 413 546 l 663 986 l 835 986 l 488 396 l 488 0 l 338 0 m 363 1082 l 238 1269 l 392 1269 l 479 1082 l 363 1082 z "},"Ỹ":{"ha":825,"x_min":-8,"x_max":835,"o":"m 338 0 l 338 396 l -8 986 l 164 986 l 413 546 l 663 986 l 835 986 l 488 396 l 488 0 l 338 0 m 493 1090 q 442 1100 465 1090 q 393 1129 418 1110 q 359 1155 372 1147 q 328 1163 346 1163 q 288 1146 304 1163 q 269 1081 272 1129 l 188 1081 q 227 1210 189 1165 q 326 1256 265 1256 q 385 1245 360 1256 q 435 1214 410 1235 q 499 1183 472 1183 q 537 1201 522 1183 q 554 1268 551 1218 l 638 1268 q 596 1138 633 1185 q 493 1090 558 1090 z "},"Z":{"ha":779,"x_min":39,"x_max":740,"o":"m 39 0 l 39 139 l 547 849 l 58 849 l 58 986 l 725 986 l 725 847 l 214 138 l 740 138 l 740 0 l 39 0 z "},"Ź":{"ha":779,"x_min":39,"x_max":740,"o":"m 39 0 l 39 139 l 547 849 l 58 849 l 58 986 l 725 986 l 725 847 l 214 138 l 740 138 l 740 0 l 39 0 m 336 1075 l 424 1261 l 578 1261 l 453 1075 l 336 1075 z "},"Ž":{"ha":779,"x_min":39,"x_max":740,"o":"m 39 0 l 39 139 l 547 849 l 58 849 l 58 986 l 725 986 l 725 847 l 214 138 l 740 138 l 740 0 l 39 0 m 197 1268 l 310 1268 l 401 1144 l 493 1268 l 606 1268 l 478 1075 l 325 1075 l 197 1268 z "},"Ż":{"ha":779,"x_min":39,"x_max":740,"o":"m 39 0 l 39 139 l 547 849 l 58 849 l 58 986 l 725 986 l 725 847 l 214 138 l 740 138 l 740 0 l 39 0 m 325 1093 l 325 1240 l 478 1240 l 478 1093 l 325 1093 z "},"Ꞌ":{"ha":268,"x_min":61,"x_max":207,"o":"m 78 476 l 61 810 l 61 986 l 207 986 l 207 810 l 189 476 l 78 476 z "},"a":{"ha":785,"x_min":58,"x_max":761,"o":"m 311 -17 q 127 36 196 -17 q 58 185 58 89 q 116 333 58 279 q 294 411 174 388 l 549 460 q 389 631 549 631 q 278 599 318 631 q 222 507 238 567 l 71 517 q 174 692 92 628 q 389 756 257 756 q 617 676 539 756 q 696 451 696 596 l 696 164 q 705 127 696 138 q 735 117 714 117 l 761 117 l 761 0 q 707 -4 742 -4 q 607 22 644 -4 q 561 114 569 49 q 465 19 533 56 q 311 -17 397 -17 m 335 100 q 492 157 435 100 q 549 301 549 214 l 549 349 l 332 307 q 238 267 265 294 q 211 199 211 240 q 244 126 211 151 q 335 100 276 100 z "},"á":{"ha":785,"x_min":58,"x_max":761,"o":"m 311 -17 q 127 36 196 -17 q 58 185 58 89 q 116 333 58 279 q 294 411 174 388 l 549 460 q 389 631 549 631 q 278 599 318 631 q 222 507 238 567 l 71 517 q 174 692 92 628 q 389 756 257 756 q 617 676 539 756 q 696 451 696 596 l 696 164 q 705 127 696 138 q 735 117 714 117 l 761 117 l 761 0 q 707 -4 742 -4 q 607 22 644 -4 q 561 114 569 49 q 465 19 533 56 q 311 -17 397 -17 m 335 100 q 492 157 435 100 q 549 301 549 214 l 549 349 l 332 307 q 238 267 265 294 q 211 199 211 240 q 244 126 211 151 q 335 100 276 100 m 329 828 l 417 1014 l 571 1014 l 446 828 l 329 828 z "},"ă":{"ha":785,"x_min":58,"x_max":761,"o":"m 311 -17 q 127 36 196 -17 q 58 185 58 89 q 116 333 58 279 q 294 411 174 388 l 549 460 q 389 631 549 631 q 278 599 318 631 q 222 507 238 567 l 71 517 q 174 692 92 628 q 389 756 257 756 q 617 676 539 756 q 696 451 696 596 l 696 164 q 705 127 696 138 q 735 117 714 117 l 761 117 l 761 0 q 707 -4 742 -4 q 607 22 644 -4 q 561 114 569 49 q 465 19 533 56 q 311 -17 397 -17 m 335 100 q 492 157 435 100 q 549 301 549 214 l 549 349 l 332 307 q 238 267 265 294 q 211 199 211 240 q 244 126 211 151 q 335 100 276 100 m 394 832 q 251 882 306 832 q 193 1019 197 932 l 286 1019 q 320 949 292 971 q 394 928 349 928 q 468 949 440 928 q 501 1019 496 971 l 596 1019 q 538 882 592 932 q 394 832 483 832 z "},"ǎ":{"ha":785,"x_min":58,"x_max":761,"o":"m 311 -17 q 127 36 196 -17 q 58 185 58 89 q 116 333 58 279 q 294 411 174 388 l 549 460 q 389 631 549 631 q 278 599 318 631 q 222 507 238 567 l 71 517 q 174 692 92 628 q 389 756 257 756 q 617 676 539 756 q 696 451 696 596 l 696 164 q 705 127 696 138 q 735 117 714 117 l 761 117 l 761 0 q 707 -4 742 -4 q 607 22 644 -4 q 561 114 569 49 q 465 19 533 56 q 311 -17 397 -17 m 335 100 q 492 157 435 100 q 549 301 549 214 l 549 349 l 332 307 q 238 267 265 294 q 211 199 211 240 q 244 126 211 151 q 335 100 276 100 m 190 1021 l 303 1021 l 394 897 l 486 1021 l 599 1021 l 471 828 l 318 828 l 190 1021 z "},"â":{"ha":785,"x_min":58,"x_max":761,"o":"m 311 -17 q 127 36 196 -17 q 58 185 58 89 q 116 333 58 279 q 294 411 174 388 l 549 460 q 389 631 549 631 q 278 599 318 631 q 222 507 238 567 l 71 517 q 174 692 92 628 q 389 756 257 756 q 617 676 539 756 q 696 451 696 596 l 696 164 q 705 127 696 138 q 735 117 714 117 l 761 117 l 761 0 q 707 -4 742 -4 q 607 22 644 -4 q 561 114 569 49 q 465 19 533 56 q 311 -17 397 -17 m 335 100 q 492 157 435 100 q 549 301 549 214 l 549 349 l 332 307 q 238 267 265 294 q 211 199 211 240 q 244 126 211 151 q 335 100 276 100 m 190 828 l 318 1021 l 471 1021 l 599 828 l 486 828 l 394 951 l 303 828 l 190 828 z "},"ä":{"ha":785,"x_min":58,"x_max":761,"o":"m 311 -17 q 127 36 196 -17 q 58 185 58 89 q 116 333 58 279 q 294 411 174 388 l 549 460 q 389 631 549 631 q 278 599 318 631 q 222 507 238 567 l 71 517 q 174 692 92 628 q 389 756 257 756 q 617 676 539 756 q 696 451 696 596 l 696 164 q 705 127 696 138 q 735 117 714 117 l 761 117 l 761 0 q 707 -4 742 -4 q 607 22 644 -4 q 561 114 569 49 q 465 19 533 56 q 311 -17 397 -17 m 335 100 q 492 157 435 100 q 549 301 549 214 l 549 349 l 332 307 q 238 267 265 294 q 211 199 211 240 q 244 126 211 151 q 335 100 276 100 m 192 844 l 192 992 l 339 992 l 339 844 l 192 844 m 451 844 l 451 992 l 600 992 l 600 844 l 451 844 z "},"à":{"ha":785,"x_min":58,"x_max":761,"o":"m 311 -17 q 127 36 196 -17 q 58 185 58 89 q 116 333 58 279 q 294 411 174 388 l 549 460 q 389 631 549 631 q 278 599 318 631 q 222 507 238 567 l 71 517 q 174 692 92 628 q 389 756 257 756 q 617 676 539 756 q 696 451 696 596 l 696 164 q 705 127 696 138 q 735 117 714 117 l 761 117 l 761 0 q 707 -4 742 -4 q 607 22 644 -4 q 561 114 569 49 q 465 19 533 56 q 311 -17 397 -17 m 335 100 q 492 157 435 100 q 549 301 549 214 l 549 349 l 332 307 q 238 267 265 294 q 211 199 211 240 q 244 126 211 151 q 335 100 276 100 m 344 835 l 219 1022 l 374 1022 l 461 835 l 344 835 z "},"ā":{"ha":785,"x_min":58,"x_max":761,"o":"m 311 -17 q 127 36 196 -17 q 58 185 58 89 q 116 333 58 279 q 294 411 174 388 l 549 460 q 389 631 549 631 q 278 599 318 631 q 222 507 238 567 l 71 517 q 174 692 92 628 q 389 756 257 756 q 617 676 539 756 q 696 451 696 596 l 696 164 q 705 127 696 138 q 735 117 714 117 l 761 117 l 761 0 q 707 -4 742 -4 q 607 22 644 -4 q 561 114 569 49 q 465 19 533 56 q 311 -17 397 -17 m 335 100 q 492 157 435 100 q 549 301 549 214 l 549 349 l 332 307 q 238 267 265 294 q 211 199 211 240 q 244 126 211 151 q 335 100 276 100 m 201 860 l 201 978 l 588 978 l 588 860 l 201 860 z "},"ą":{"ha":785,"x_min":58,"x_max":811,"o":"m 311 -17 q 127 36 196 -17 q 58 185 58 89 q 116 333 58 279 q 294 411 174 388 l 549 460 q 389 631 549 631 q 278 599 318 631 q 222 507 238 567 l 71 517 q 174 692 92 628 q 389 756 257 756 q 617 676 539 756 q 696 451 696 596 l 696 164 q 705 127 696 138 q 735 117 714 117 l 761 117 l 761 0 q 707 -4 742 -4 q 607 22 644 -4 q 561 114 569 49 q 465 19 533 56 q 311 -17 397 -17 m 335 100 q 492 157 435 100 q 549 301 549 214 l 549 349 l 332 307 q 238 267 265 294 q 211 199 211 240 q 244 126 211 151 q 335 100 276 100 m 682 -294 q 581 -268 618 -294 q 544 -190 544 -242 q 569 -108 544 -150 q 619 -29 593 -67 l 663 28 l 763 0 l 715 -62 q 682 -117 692 -96 q 672 -156 672 -137 q 683 -181 672 -172 q 711 -190 694 -190 q 776 -172 750 -190 l 811 -258 q 758 -284 794 -274 q 682 -294 722 -294 z "},"å":{"ha":785,"x_min":58,"x_max":761,"o":"m 311 -17 q 127 36 196 -17 q 58 185 58 89 q 116 333 58 279 q 294 411 174 388 l 549 460 q 389 631 549 631 q 278 599 318 631 q 222 507 238 567 l 71 517 q 174 692 92 628 q 389 756 257 756 q 617 676 539 756 q 696 451 696 596 l 696 164 q 705 127 696 138 q 735 117 714 117 l 761 117 l 761 0 q 707 -4 742 -4 q 607 22 644 -4 q 561 114 569 49 q 465 19 533 56 q 311 -17 397 -17 m 335 100 q 492 157 435 100 q 549 301 549 214 l 549 349 l 332 307 q 238 267 265 294 q 211 199 211 240 q 244 126 211 151 q 335 100 276 100 m 394 800 q 301 838 339 800 q 263 932 263 875 q 301 1026 263 988 q 394 1064 339 1064 q 490 1026 451 1064 q 528 932 528 988 q 490 838 528 875 q 394 800 451 800 m 394 875 q 435 891 419 875 q 451 932 451 907 q 435 972 451 956 q 394 988 419 988 q 355 972 371 988 q 339 932 339 956 q 355 891 339 907 q 394 875 371 875 z "},"ã":{"ha":785,"x_min":58,"x_max":761,"o":"m 311 -17 q 127 36 196 -17 q 58 185 58 89 q 116 333 58 279 q 294 411 174 388 l 549 460 q 389 631 549 631 q 278 599 318 631 q 222 507 238 567 l 71 517 q 174 692 92 628 q 389 756 257 756 q 617 676 539 756 q 696 451 696 596 l 696 164 q 705 127 696 138 q 735 117 714 117 l 761 117 l 761 0 q 707 -4 742 -4 q 607 22 644 -4 q 561 114 569 49 q 465 19 533 56 q 311 -17 397 -17 m 335 100 q 492 157 435 100 q 549 301 549 214 l 549 349 l 332 307 q 238 267 265 294 q 211 199 211 240 q 244 126 211 151 q 335 100 276 100 m 475 843 q 424 853 447 843 q 375 882 400 863 q 341 908 354 900 q 310 915 328 915 q 270 899 286 915 q 251 833 254 882 l 169 833 q 209 963 171 918 q 308 1008 247 1008 q 367 998 342 1008 q 417 967 392 988 q 481 936 454 936 q 519 953 504 936 q 536 1021 533 971 l 619 1021 q 578 890 615 938 q 475 843 540 843 z "},"æ":{"ha":1294,"x_min":58,"x_max":1238,"o":"m 313 -17 q 130 35 201 -17 q 58 185 58 86 q 90 306 58 260 q 176 376 122 351 q 294 411 229 401 l 549 449 q 508 587 547 543 q 386 631 469 631 q 275 597 315 631 q 222 507 235 563 l 71 517 q 174 692 92 628 q 385 756 257 756 q 643 646 565 756 q 753 727 688 699 q 899 756 818 756 q 1076 709 1000 756 q 1194 575 1151 663 q 1238 364 1238 488 l 1238 326 l 706 326 q 764 164 711 218 q 904 110 817 110 q 1013 140 969 110 q 1072 222 1056 169 l 1226 213 q 1111 46 1197 108 q 903 -17 1025 -17 q 728 25 803 -17 q 608 142 653 67 q 492 26 569 68 q 313 -17 415 -17 m 706 438 l 1081 438 q 1024 583 1074 536 q 899 631 975 631 q 769 581 819 631 q 706 438 718 532 m 354 99 q 493 153 438 103 q 549 300 549 204 l 549 338 l 332 307 q 235 267 260 297 q 211 199 211 238 q 246 123 211 150 q 354 99 281 96 z "},"b":{"ha":844,"x_min":104,"x_max":786,"o":"m 472 -17 q 335 17 394 -17 q 246 111 276 50 l 242 0 l 104 0 l 104 986 l 251 986 l 251 635 q 338 719 279 683 q 472 756 396 756 q 639 708 568 756 q 748 574 710 661 q 786 369 786 488 q 748 165 786 251 q 639 31 710 78 q 472 -17 568 -17 m 449 111 q 583 181 533 111 q 633 369 633 250 q 584 560 633 492 q 450 628 535 628 q 304 560 357 628 q 251 369 251 492 q 303 181 251 250 q 449 111 356 111 z "},"c":{"ha":782,"x_min":58,"x_max":739,"o":"m 408 -17 q 224 31 303 -17 q 101 166 144 79 q 58 369 58 253 q 101 573 58 486 q 224 708 144 660 q 408 756 303 756 q 632 685 543 756 q 739 488 721 615 l 585 479 q 526 590 574 551 q 408 628 479 628 q 263 559 315 628 q 211 369 211 490 q 263 179 211 247 q 408 111 315 111 q 526 151 479 111 q 585 271 574 190 l 739 263 q 633 59 721 135 q 408 -17 544 -17 z "},"ć":{"ha":782,"x_min":58,"x_max":739,"o":"m 408 -17 q 224 31 303 -17 q 101 166 144 79 q 58 369 58 253 q 101 573 58 486 q 224 708 144 660 q 408 756 303 756 q 632 685 543 756 q 739 488 721 615 l 585 479 q 526 590 574 551 q 408 628 479 628 q 263 559 315 628 q 211 369 211 490 q 263 179 211 247 q 408 111 315 111 q 526 151 479 111 q 585 271 574 190 l 739 263 q 633 59 721 135 q 408 -17 544 -17 m 343 828 l 431 1014 l 585 1014 l 460 828 l 343 828 z "},"č":{"ha":782,"x_min":58,"x_max":739,"o":"m 408 -17 q 224 31 303 -17 q 101 166 144 79 q 58 369 58 253 q 101 573 58 486 q 224 708 144 660 q 408 756 303 756 q 632 685 543 756 q 739 488 721 615 l 585 479 q 526 590 574 551 q 408 628 479 628 q 263 559 315 628 q 211 369 211 490 q 263 179 211 247 q 408 111 315 111 q 526 151 479 111 q 585 271 574 190 l 739 263 q 633 59 721 135 q 408 -17 544 -17 m 204 1021 l 317 1021 l 408 897 l 500 1021 l 613 1021 l 485 828 l 332 828 l 204 1021 z "},"ç":{"ha":782,"x_min":58,"x_max":739,"o":"m 408 -17 q 224 31 303 -17 q 101 166 144 79 q 58 369 58 253 q 101 573 58 486 q 224 708 144 660 q 408 756 303 756 q 632 685 543 756 q 739 488 721 615 l 585 479 q 526 590 574 551 q 408 628 479 628 q 263 559 315 628 q 211 369 211 490 q 263 179 211 247 q 408 111 315 111 q 526 151 479 111 q 585 271 574 190 l 739 263 q 633 59 721 135 q 408 -17 544 -17 m 396 -311 q 287 -280 329 -311 q 229 -200 244 -249 l 307 -169 q 393 -225 329 -225 q 446 -211 426 -225 q 465 -172 465 -197 q 447 -129 465 -146 q 365 -112 428 -112 l 319 -67 l 371 14 l 469 14 l 425 -47 q 526 -87 493 -51 q 558 -175 558 -122 q 512 -275 558 -239 q 396 -311 465 -311 z "},"ĉ":{"ha":782,"x_min":58,"x_max":739,"o":"m 408 -17 q 224 31 303 -17 q 101 166 144 79 q 58 369 58 253 q 101 573 58 486 q 224 708 144 660 q 408 756 303 756 q 632 685 543 756 q 739 488 721 615 l 585 479 q 526 590 574 551 q 408 628 479 628 q 263 559 315 628 q 211 369 211 490 q 263 179 211 247 q 408 111 315 111 q 526 151 479 111 q 585 271 574 190 l 739 263 q 633 59 721 135 q 408 -17 544 -17 m 204 828 l 332 1021 l 485 1021 l 613 828 l 500 828 l 408 951 l 317 828 l 204 828 z "},"ċ":{"ha":782,"x_min":58,"x_max":739,"o":"m 408 -17 q 224 31 303 -17 q 101 166 144 79 q 58 369 58 253 q 101 573 58 486 q 224 708 144 660 q 408 756 303 756 q 632 685 543 756 q 739 488 721 615 l 585 479 q 526 590 574 551 q 408 628 479 628 q 263 559 315 628 q 211 369 211 490 q 263 179 211 247 q 408 111 315 111 q 526 151 479 111 q 585 271 574 190 l 739 263 q 633 59 721 135 q 408 -17 544 -17 m 333 846 l 333 993 l 486 993 l 486 846 l 333 846 z "},"d":{"ha":844,"x_min":58,"x_max":740,"o":"m 367 -17 q 203 31 272 -17 q 96 165 133 78 q 58 369 58 251 q 96 574 58 488 q 203 708 133 661 q 367 756 272 756 q 503 724 443 756 q 593 635 563 692 l 593 986 l 740 986 l 740 0 l 603 0 l 599 111 q 506 17 568 50 q 367 -17 444 -17 m 406 111 q 544 179 496 111 q 593 369 593 247 q 544 560 593 493 q 406 628 496 628 q 264 559 317 628 q 211 369 211 490 q 264 181 211 251 q 406 111 317 111 z "},"ď":{"ha":956,"x_min":58,"x_max":989,"o":"m 367 -17 q 203 31 272 -17 q 96 165 133 78 q 58 369 58 251 q 96 574 58 488 q 203 708 133 661 q 367 756 272 756 q 503 724 443 756 q 593 635 563 692 l 593 986 l 740 986 l 740 0 l 603 0 l 599 111 q 506 17 568 50 q 367 -17 444 -17 m 406 111 q 544 179 496 111 q 593 369 593 247 q 544 560 593 493 q 406 628 496 628 q 264 559 317 628 q 211 369 211 490 q 264 181 211 251 q 406 111 317 111 m 810 618 l 851 986 l 989 986 l 915 618 l 810 618 z "},"đ":{"ha":844,"x_min":58,"x_max":832,"o":"m 367 -17 q 203 31 272 -17 q 96 165 133 78 q 58 369 58 251 q 96 574 58 488 q 203 708 133 661 q 367 756 272 756 q 503 724 443 756 q 593 635 563 692 l 593 986 l 740 986 l 740 0 l 603 0 l 599 111 q 506 17 568 50 q 367 -17 444 -17 m 406 111 q 544 179 496 111 q 593 369 593 247 q 544 560 593 493 q 406 628 496 628 q 264 559 317 628 q 211 369 211 490 q 264 181 211 251 q 406 111 317 111 m 393 806 l 393 910 l 832 910 l 832 806 l 393 806 z "},"ð":{"ha":817,"x_min":58,"x_max":768,"o":"m 408 -17 q 152 78 246 -17 q 58 336 58 172 q 152 593 58 499 q 408 688 246 688 q 505 673 460 688 q 589 633 550 658 q 499 783 558 726 l 328 719 l 293 810 l 399 850 q 233 888 328 879 l 271 1003 q 424 969 356 994 q 544 906 492 944 l 733 976 l 768 885 l 622 831 q 726 622 694 743 q 758 358 758 500 q 665 81 758 178 q 408 -17 571 -17 m 408 110 q 554 169 503 110 q 606 347 606 229 q 554 503 606 446 q 408 561 503 561 q 263 502 315 561 q 211 336 211 443 q 263 169 211 229 q 408 110 315 110 z "},"e":{"ha":800,"x_min":58,"x_max":742,"o":"m 408 -17 q 222 31 300 -17 q 101 166 143 79 q 58 369 58 253 q 101 573 58 486 q 221 708 143 660 q 404 756 299 756 q 581 709 504 756 q 699 575 657 663 q 742 364 742 488 l 742 326 l 211 326 q 269 164 217 218 q 410 110 321 110 q 517 140 475 110 q 578 222 560 169 l 731 213 q 616 46 701 108 q 408 -17 531 -17 m 211 438 l 586 438 q 529 583 579 536 q 404 631 479 631 q 274 581 325 631 q 211 438 224 532 z "},"é":{"ha":800,"x_min":58,"x_max":742,"o":"m 408 -17 q 222 31 300 -17 q 101 166 143 79 q 58 369 58 253 q 101 573 58 486 q 221 708 143 660 q 404 756 299 756 q 581 709 504 756 q 699 575 657 663 q 742 364 742 488 l 742 326 l 211 326 q 269 164 217 218 q 410 110 321 110 q 517 140 475 110 q 578 222 560 169 l 731 213 q 616 46 701 108 q 408 -17 531 -17 m 211 438 l 586 438 q 529 583 579 536 q 404 631 479 631 q 274 581 325 631 q 211 438 224 532 m 343 825 l 431 1011 l 585 1011 l 460 825 l 343 825 z "},"ě":{"ha":800,"x_min":58,"x_max":742,"o":"m 408 -17 q 222 31 300 -17 q 101 166 143 79 q 58 369 58 253 q 101 573 58 486 q 221 708 143 660 q 404 756 299 756 q 581 709 504 756 q 699 575 657 663 q 742 364 742 488 l 742 326 l 211 326 q 269 164 217 218 q 410 110 321 110 q 517 140 475 110 q 578 222 560 169 l 731 213 q 616 46 701 108 q 408 -17 531 -17 m 211 438 l 586 438 q 529 583 579 536 q 404 631 479 631 q 274 581 325 631 q 211 438 224 532 m 204 1018 l 317 1018 l 408 894 l 500 1018 l 613 1018 l 485 825 l 332 825 l 204 1018 z "},"ê":{"ha":800,"x_min":58,"x_max":742,"o":"m 408 -17 q 222 31 300 -17 q 101 166 143 79 q 58 369 58 253 q 101 573 58 486 q 221 708 143 660 q 404 756 299 756 q 581 709 504 756 q 699 575 657 663 q 742 364 742 488 l 742 326 l 211 326 q 269 164 217 218 q 410 110 321 110 q 517 140 475 110 q 578 222 560 169 l 731 213 q 616 46 701 108 q 408 -17 531 -17 m 211 438 l 586 438 q 529 583 579 536 q 404 631 479 631 q 274 581 325 631 q 211 438 224 532 m 204 825 l 332 1018 l 485 1018 l 613 825 l 500 825 l 408 949 l 317 825 l 204 825 z "},"ë":{"ha":800,"x_min":58,"x_max":742,"o":"m 408 -17 q 222 31 300 -17 q 101 166 143 79 q 58 369 58 253 q 101 573 58 486 q 221 708 143 660 q 404 756 299 756 q 581 709 504 756 q 699 575 657 663 q 742 364 742 488 l 742 326 l 211 326 q 269 164 217 218 q 410 110 321 110 q 517 140 475 110 q 578 222 560 169 l 731 213 q 616 46 701 108 q 408 -17 531 -17 m 211 438 l 586 438 q 529 583 579 536 q 404 631 479 631 q 274 581 325 631 q 211 438 224 532 m 206 842 l 206 989 l 353 989 l 353 842 l 206 842 m 465 842 l 465 989 l 614 989 l 614 842 l 465 842 z "},"ė":{"ha":800,"x_min":58,"x_max":742,"o":"m 408 -17 q 222 31 300 -17 q 101 166 143 79 q 58 369 58 253 q 101 573 58 486 q 221 708 143 660 q 404 756 299 756 q 581 709 504 756 q 699 575 657 663 q 742 364 742 488 l 742 326 l 211 326 q 269 164 217 218 q 410 110 321 110 q 517 140 475 110 q 578 222 560 169 l 731 213 q 616 46 701 108 q 408 -17 531 -17 m 211 438 l 586 438 q 529 583 579 536 q 404 631 479 631 q 274 581 325 631 q 211 438 224 532 m 333 843 l 333 990 l 486 990 l 486 843 l 333 843 z "},"è":{"ha":800,"x_min":58,"x_max":742,"o":"m 408 -17 q 222 31 300 -17 q 101 166 143 79 q 58 369 58 253 q 101 573 58 486 q 221 708 143 660 q 404 756 299 756 q 581 709 504 756 q 699 575 657 663 q 742 364 742 488 l 742 326 l 211 326 q 269 164 217 218 q 410 110 321 110 q 517 140 475 110 q 578 222 560 169 l 731 213 q 616 46 701 108 q 408 -17 531 -17 m 211 438 l 586 438 q 529 583 579 536 q 404 631 479 631 q 274 581 325 631 q 211 438 224 532 m 358 832 l 233 1019 l 388 1019 l 475 832 l 358 832 z "},"ē":{"ha":800,"x_min":58,"x_max":742,"o":"m 408 -17 q 222 31 300 -17 q 101 166 143 79 q 58 369 58 253 q 101 573 58 486 q 221 708 143 660 q 404 756 299 756 q 581 709 504 756 q 699 575 657 663 q 742 364 742 488 l 742 326 l 211 326 q 269 164 217 218 q 410 110 321 110 q 517 140 475 110 q 578 222 560 169 l 731 213 q 616 46 701 108 q 408 -17 531 -17 m 211 438 l 586 438 q 529 583 579 536 q 404 631 479 631 q 274 581 325 631 q 211 438 224 532 m 217 857 l 217 975 l 603 975 l 603 857 l 217 857 z "},"ę":{"ha":800,"x_min":58,"x_max":742,"o":"m 408 -17 q 222 31 300 -17 q 101 166 143 79 q 58 369 58 253 q 101 573 58 486 q 221 708 143 660 q 404 756 299 756 q 581 709 504 756 q 699 575 657 663 q 742 364 742 488 l 742 326 l 211 326 q 269 164 217 218 q 410 110 321 110 q 517 140 475 110 q 578 222 560 169 l 731 213 q 668 94 713 146 l 672 94 l 554 -49 q 518 -103 529 -79 q 507 -149 507 -128 q 518 -181 507 -171 q 546 -190 529 -190 q 611 -172 583 -190 l 646 -258 q 593 -284 629 -274 q 518 -294 557 -294 q 417 -262 453 -294 q 382 -175 382 -231 q 399 -94 382 -131 q 446 -25 415 -58 l 454 -14 q 408 -17 432 -17 m 211 438 l 586 438 q 529 583 579 536 q 404 631 479 631 q 274 581 325 631 q 211 438 224 532 z "},"ẽ":{"ha":800,"x_min":58,"x_max":742,"o":"m 408 -17 q 222 31 300 -17 q 101 166 143 79 q 58 369 58 253 q 101 573 58 486 q 221 708 143 660 q 404 756 299 756 q 581 709 504 756 q 699 575 657 663 q 742 364 742 488 l 742 326 l 211 326 q 269 164 217 218 q 410 110 321 110 q 517 140 475 110 q 578 222 560 169 l 731 213 q 616 46 701 108 q 408 -17 531 -17 m 211 438 l 586 438 q 529 583 579 536 q 404 631 479 631 q 274 581 325 631 q 211 438 224 532 m 489 840 q 438 850 461 840 q 389 879 414 860 q 355 905 368 897 q 324 913 342 913 q 284 896 300 913 q 265 831 268 879 l 183 831 q 223 960 185 915 q 322 1006 261 1006 q 381 995 356 1006 q 431 964 406 985 q 494 933 468 933 q 533 951 518 933 q 550 1018 547 968 l 633 1018 q 592 888 629 935 q 489 840 554 840 z "},"ə":{"ha":800,"x_min":58,"x_max":742,"o":"m 392 756 q 578 708 499 756 q 699 573 657 660 q 742 369 742 486 q 699 166 742 253 q 579 31 657 79 q 396 -17 501 -17 q 219 29 296 -17 q 101 163 143 75 q 58 375 58 251 l 58 413 l 589 413 q 531 575 583 521 q 390 629 479 629 q 282 599 325 629 q 222 517 239 569 l 68 526 q 184 693 99 631 q 392 756 269 756 m 589 301 l 214 301 q 271 156 221 203 q 396 108 321 108 q 526 158 475 108 q 589 301 576 207 z "},"f":{"ha":572,"x_min":76,"x_max":522,"o":"m 179 0 l 179 610 l 76 610 l 76 729 l 179 729 l 179 786 q 231 932 179 878 q 392 986 282 986 l 522 986 l 522 865 l 411 865 q 326 778 326 865 l 326 729 l 511 729 l 511 610 l 326 610 l 326 0 l 179 0 z "},"g":{"ha":843,"x_min":58,"x_max":739,"o":"m 401 -225 q 186 -167 269 -225 q 79 -12 103 -108 l 232 -3 q 285 -76 247 -50 q 401 -103 324 -103 q 542 -64 493 -103 q 592 54 592 -25 l 592 161 q 506 71 564 104 q 376 38 447 38 q 211 83 283 38 q 99 209 139 128 q 58 396 58 290 q 98 583 58 501 q 208 710 138 664 q 371 756 279 756 q 510 719 450 756 q 597 622 571 683 l 597 739 l 739 739 l 739 58 q 648 -151 739 -78 q 401 -225 557 -225 m 400 163 q 538 225 486 163 q 592 397 590 288 q 540 568 593 506 q 400 631 488 631 q 260 567 310 631 q 211 397 211 504 q 262 226 211 289 q 400 163 313 163 z "},"ğ":{"ha":843,"x_min":58,"x_max":739,"o":"m 401 -225 q 186 -167 269 -225 q 79 -12 103 -108 l 232 -3 q 285 -76 247 -50 q 401 -103 324 -103 q 542 -64 493 -103 q 592 54 592 -25 l 592 161 q 506 71 564 104 q 376 38 447 38 q 211 83 283 38 q 99 209 139 128 q 58 396 58 290 q 98 583 58 501 q 208 710 138 664 q 371 756 279 756 q 510 719 450 756 q 597 622 571 683 l 597 739 l 739 739 l 739 58 q 648 -151 739 -78 q 401 -225 557 -225 m 400 163 q 538 225 486 163 q 592 397 590 288 q 540 568 593 506 q 400 631 488 631 q 260 567 310 631 q 211 397 211 504 q 262 226 211 289 q 400 163 313 163 m 406 832 q 263 882 317 832 q 204 1019 208 932 l 297 1019 q 331 949 303 971 q 406 928 360 928 q 479 949 451 928 q 513 1019 507 971 l 607 1019 q 549 882 603 932 q 406 832 494 832 z "},"ǧ":{"ha":843,"x_min":58,"x_max":739,"o":"m 401 -225 q 186 -167 269 -225 q 79 -12 103 -108 l 232 -3 q 285 -76 247 -50 q 401 -103 324 -103 q 542 -64 493 -103 q 592 54 592 -25 l 592 161 q 506 71 564 104 q 376 38 447 38 q 211 83 283 38 q 99 209 139 128 q 58 396 58 290 q 98 583 58 501 q 208 710 138 664 q 371 756 279 756 q 510 719 450 756 q 597 622 571 683 l 597 739 l 739 739 l 739 58 q 648 -151 739 -78 q 401 -225 557 -225 m 400 163 q 538 225 486 163 q 592 397 590 288 q 540 568 593 506 q 400 631 488 631 q 260 567 310 631 q 211 397 211 504 q 262 226 211 289 q 400 163 313 163 m 201 1021 l 314 1021 l 406 897 l 497 1021 l 610 1021 l 482 828 l 329 828 l 201 1021 z "},"ĝ":{"ha":843,"x_min":58,"x_max":739,"o":"m 401 -225 q 186 -167 269 -225 q 79 -12 103 -108 l 232 -3 q 285 -76 247 -50 q 401 -103 324 -103 q 542 -64 493 -103 q 592 54 592 -25 l 592 161 q 506 71 564 104 q 376 38 447 38 q 211 83 283 38 q 99 209 139 128 q 58 396 58 290 q 98 583 58 501 q 208 710 138 664 q 371 756 279 756 q 510 719 450 756 q 597 622 571 683 l 597 739 l 739 739 l 739 58 q 648 -151 739 -78 q 401 -225 557 -225 m 400 163 q 538 225 486 163 q 592 397 590 288 q 540 568 593 506 q 400 631 488 631 q 260 567 310 631 q 211 397 211 504 q 262 226 211 289 q 400 163 313 163 m 201 828 l 329 1021 l 482 1021 l 610 828 l 497 828 l 406 951 l 314 828 l 201 828 z "},"ģ":{"ha":843,"x_min":58,"x_max":739,"o":"m 401 -225 q 186 -167 269 -225 q 79 -12 103 -108 l 232 -3 q 285 -76 247 -50 q 401 -103 324 -103 q 542 -64 493 -103 q 592 54 592 -25 l 592 161 q 506 71 564 104 q 376 38 447 38 q 211 83 283 38 q 99 209 139 128 q 58 396 58 290 q 98 583 58 501 q 208 710 138 664 q 371 756 279 756 q 510 719 450 756 q 597 622 571 683 l 597 739 l 739 739 l 739 58 q 648 -151 739 -78 q 401 -225 557 -225 m 400 163 q 538 225 486 163 q 592 397 590 288 q 540 568 593 506 q 400 631 488 631 q 260 567 310 631 q 211 397 211 504 q 262 226 211 289 q 400 163 313 163 m 328 832 l 328 957 l 411 1100 l 506 1100 l 431 969 l 481 969 l 481 832 l 328 832 z "},"ġ":{"ha":843,"x_min":58,"x_max":739,"o":"m 401 -225 q 186 -167 269 -225 q 79 -12 103 -108 l 232 -3 q 285 -76 247 -50 q 401 -103 324 -103 q 542 -64 493 -103 q 592 54 592 -25 l 592 161 q 506 71 564 104 q 376 38 447 38 q 211 83 283 38 q 99 209 139 128 q 58 396 58 290 q 98 583 58 501 q 208 710 138 664 q 371 756 279 756 q 510 719 450 756 q 597 622 571 683 l 597 739 l 739 739 l 739 58 q 648 -151 739 -78 q 401 -225 557 -225 m 400 163 q 538 225 486 163 q 592 397 590 288 q 540 568 593 506 q 400 631 488 631 q 260 567 310 631 q 211 397 211 504 q 262 226 211 289 q 400 163 313 163 m 329 846 l 329 993 l 482 993 l 482 846 l 329 846 z "},"ḡ":{"ha":843,"x_min":58,"x_max":739,"o":"m 401 -225 q 186 -167 269 -225 q 79 -12 103 -108 l 232 -3 q 285 -76 247 -50 q 401 -103 324 -103 q 542 -64 493 -103 q 592 54 592 -25 l 592 161 q 506 71 564 104 q 376 38 447 38 q 211 83 283 38 q 99 209 139 128 q 58 396 58 290 q 98 583 58 501 q 208 710 138 664 q 371 756 279 756 q 510 719 450 756 q 597 622 571 683 l 597 739 l 739 739 l 739 58 q 648 -151 739 -78 q 401 -225 557 -225 m 400 163 q 538 225 486 163 q 592 397 590 288 q 540 568 593 506 q 400 631 488 631 q 260 567 310 631 q 211 397 211 504 q 262 226 211 289 q 400 163 313 163 m 213 860 l 213 978 l 599 978 l 599 860 l 213 860 z "},"ǥ":{"ha":882,"x_min":58,"x_max":833,"o":"m 401 -225 q 186 -167 269 -225 q 79 -12 103 -108 l 232 -3 q 285 -76 247 -50 q 401 -103 324 -103 q 542 -64 493 -103 q 592 54 592 -25 l 592 161 q 506 71 564 104 q 376 38 447 38 q 211 83 283 38 q 99 209 139 128 q 58 396 58 290 q 98 583 58 501 q 208 710 138 664 q 371 756 279 756 q 510 719 450 756 q 597 622 571 683 l 597 739 l 739 739 l 739 443 l 833 443 l 833 338 l 739 338 l 739 58 q 648 -151 739 -78 q 401 -225 557 -225 m 400 163 q 523 209 474 163 q 586 338 572 256 l 346 338 l 346 443 l 589 443 q 528 581 579 531 q 400 631 478 631 q 260 567 310 631 q 211 397 211 504 q 262 226 211 289 q 400 163 313 163 z "},"h":{"ha":821,"x_min":104,"x_max":717,"o":"m 104 0 l 104 986 l 251 986 l 251 632 q 338 726 281 696 q 468 756 396 756 q 653 677 589 756 q 717 475 717 599 l 717 0 l 569 0 l 569 436 q 429 632 569 632 q 299 581 347 632 q 251 433 251 531 l 251 0 l 104 0 z "},"ħ":{"ha":821,"x_min":8,"x_max":717,"o":"m 104 0 l 104 986 l 251 986 l 251 632 q 338 726 281 696 q 468 756 396 756 q 653 677 589 756 q 717 475 717 599 l 717 0 l 569 0 l 569 436 q 429 632 569 632 q 299 581 347 632 q 251 433 251 531 l 251 0 l 104 0 m 8 806 l 8 910 l 447 910 l 447 806 l 8 806 z "},"ĥ":{"ha":821,"x_min":-25,"x_max":717,"o":"m 104 0 l 104 986 l 251 986 l 251 632 q 338 726 281 696 q 468 756 396 756 q 653 677 589 756 q 717 475 717 599 l 717 0 l 569 0 l 569 436 q 429 632 569 632 q 299 581 347 632 q 251 433 251 531 l 251 0 l 104 0 m -25 1047 l 103 1240 l 256 1240 l 383 1047 l 271 1047 l 179 1171 l 88 1047 l -25 1047 z "},"i":{"ha":356,"x_min":101,"x_max":254,"o":"m 104 0 l 104 739 l 251 739 l 251 0 l 104 0 m 101 846 l 101 993 l 254 993 l 254 846 l 101 846 z "},"ı":{"ha":356,"x_min":104,"x_max":251,"o":"m 104 0 l 104 739 l 251 739 l 251 0 l 104 0 z "},"í":{"ha":356,"x_min":104,"x_max":354,"o":"m 104 0 l 104 739 l 251 739 l 251 0 l 104 0 m 113 828 l 200 1014 l 354 1014 l 229 828 l 113 828 z "},"î":{"ha":356,"x_min":-26,"x_max":382,"o":"m 104 0 l 104 739 l 251 739 l 251 0 l 104 0 m -26 828 l 101 1021 l 254 1021 l 382 828 l 269 828 l 178 951 l 86 828 l -26 828 z "},"ï":{"ha":356,"x_min":-25,"x_max":383,"o":"m 104 0 l 104 739 l 251 739 l 251 0 l 104 0 m -25 844 l -25 992 l 122 992 l 122 844 l -25 844 m 235 844 l 235 992 l 383 992 l 383 844 l 235 844 z "},"ì":{"ha":356,"x_min":3,"x_max":251,"o":"m 104 0 l 104 739 l 251 739 l 251 0 l 104 0 m 128 835 l 3 1022 l 157 1022 l 244 835 l 128 835 z "},"ī":{"ha":356,"x_min":-15,"x_max":371,"o":"m 104 0 l 104 739 l 251 739 l 251 0 l 104 0 m -15 860 l -15 978 l 371 978 l 371 860 l -15 860 z "},"į":{"ha":356,"x_min":35,"x_max":301,"o":"m 104 0 l 104 739 l 251 739 l 251 0 l 104 0 m 101 846 l 101 993 l 254 993 l 254 846 l 101 846 m 172 -294 q 72 -268 108 -294 q 35 -190 35 -242 q 59 -108 35 -150 q 110 -29 83 -67 l 153 28 l 253 0 l 206 -62 q 172 -117 182 -96 q 163 -156 163 -137 q 174 -181 163 -172 q 201 -190 185 -190 q 267 -172 240 -190 l 301 -258 q 249 -284 285 -274 q 172 -294 213 -294 z "},"ĩ":{"ha":356,"x_min":-47,"x_max":403,"o":"m 104 0 l 104 739 l 251 739 l 251 0 l 104 0 m 258 843 q 207 853 231 843 q 158 882 183 863 q 124 908 138 900 q 93 915 111 915 q 53 899 69 915 q 35 833 38 882 l -47 833 q -8 963 -46 918 q 92 1008 31 1008 q 150 998 125 1008 q 200 967 175 988 q 264 936 238 936 q 302 953 288 936 q 319 1021 317 971 l 403 1021 q 361 890 399 938 q 258 843 324 843 z "},"ĳ":{"ha":728,"x_min":101,"x_max":626,"o":"m 104 0 l 104 739 l 251 739 l 251 0 l 104 0 m 101 846 l 101 993 l 254 993 l 254 846 l 101 846 m 328 -208 l 328 -87 l 394 -87 q 453 -71 432 -87 q 475 -7 475 -54 l 475 739 l 624 739 l 624 -12 q 576 -164 624 -119 q 417 -208 528 -208 l 328 -208 m 474 846 l 474 993 l 626 993 l 626 846 l 474 846 z "},"j":{"ha":394,"x_min":-6,"x_max":293,"o":"m -6 -208 l -6 -87 l 61 -87 q 120 -71 99 -87 q 142 -7 142 -54 l 142 739 l 290 739 l 290 -12 q 242 -164 290 -119 q 83 -208 194 -208 l -6 -208 m 140 846 l 140 993 l 293 993 l 293 846 l 140 846 z "},"ȷ":{"ha":394,"x_min":-6,"x_max":290,"o":"m -6 -208 l -6 -87 l 61 -87 q 120 -71 99 -87 q 142 -7 142 -54 l 142 739 l 290 739 l 290 -12 q 242 -164 290 -119 q 83 -208 194 -208 l -6 -208 z "},"ĵ":{"ha":394,"x_min":-6,"x_max":421,"o":"m -6 -208 l -6 -87 l 61 -87 q 120 -71 99 -87 q 142 -7 142 -54 l 142 739 l 290 739 l 290 -12 q 242 -164 290 -119 q 83 -208 194 -208 l -6 -208 m 13 828 l 140 1021 l 293 1021 l 421 828 l 308 828 l 217 951 l 125 828 l 13 828 z "},"k":{"ha":846,"x_min":104,"x_max":781,"o":"m 104 0 l 104 986 l 251 986 l 251 374 l 583 739 l 769 739 l 481 428 l 781 0 l 611 0 l 382 336 l 251 197 l 251 0 l 104 0 z "},"ǩ":{"ha":846,"x_min":-26,"x_max":781,"o":"m 104 0 l 104 986 l 251 986 l 251 374 l 583 739 l 769 739 l 481 428 l 781 0 l 611 0 l 382 336 l 251 197 l 251 0 l 104 0 m -26 1221 l 86 1221 l 178 1097 l 269 1221 l 382 1221 l 254 1028 l 101 1028 l -26 1221 z "},"ķ":{"ha":846,"x_min":104,"x_max":781,"o":"m 104 0 l 104 986 l 251 986 l 251 374 l 583 739 l 769 739 l 481 428 l 781 0 l 611 0 l 382 336 l 251 197 l 251 0 l 104 0 m 318 -339 l 393 -208 l 343 -208 l 343 -72 l 496 -72 l 496 -196 l 413 -339 l 318 -339 z "},"l":{"ha":392,"x_min":104,"x_max":361,"o":"m 265 0 q 148 38 192 0 q 104 157 104 75 l 104 986 l 251 986 l 251 171 q 303 121 251 121 l 361 121 l 361 0 l 265 0 z "},"ĺ":{"ha":392,"x_min":104,"x_max":361,"o":"m 265 0 q 148 38 192 0 q 104 157 104 75 l 104 986 l 251 986 l 251 171 q 303 121 251 121 l 361 121 l 361 0 l 265 0 m 113 1028 l 200 1214 l 354 1214 l 229 1028 l 113 1028 z "},"ľ":{"ha":475,"x_min":104,"x_max":508,"o":"m 265 0 q 148 38 192 0 q 104 157 104 75 l 104 986 l 251 986 l 251 171 q 303 121 251 121 l 361 121 l 361 0 l 265 0 m 329 618 l 371 986 l 508 986 l 435 618 l 329 618 z "},"ļ":{"ha":392,"x_min":104,"x_max":361,"o":"m 265 0 q 148 38 192 0 q 104 157 104 75 l 104 986 l 251 986 l 251 171 q 303 121 251 121 l 361 121 l 361 0 l 265 0 m 136 -339 l 211 -208 l 161 -208 l 161 -72 l 314 -72 l 314 -196 l 231 -339 l 136 -339 z "},"ł":{"ha":392,"x_min":7,"x_max":361,"o":"m 265 0 q 148 38 192 0 q 104 157 104 75 l 104 986 l 251 986 l 251 171 q 303 121 251 121 l 361 121 l 361 0 l 265 0 m 7 418 l 7 525 l 361 692 l 361 585 l 7 418 z "},"m":{"ha":1229,"x_min":104,"x_max":1124,"o":"m 104 0 l 104 739 l 239 739 l 242 613 q 324 717 269 679 q 447 756 378 756 q 585 715 529 756 q 665 603 642 675 q 745 716 690 676 q 879 756 800 756 q 1060 683 996 756 q 1124 475 1124 610 l 1124 0 l 976 0 l 976 439 q 836 632 976 632 q 725 579 767 632 q 683 433 683 526 l 683 0 l 543 0 l 543 433 q 512 579 543 526 q 406 632 481 632 q 293 579 335 632 q 251 433 251 526 l 251 0 l 104 0 z "},"n":{"ha":821,"x_min":104,"x_max":717,"o":"m 104 0 l 104 739 l 239 739 l 242 610 q 331 721 271 686 q 467 756 390 756 q 604 719 549 756 q 688 619 660 682 q 717 475 717 556 l 717 0 l 569 0 l 569 431 q 537 580 569 528 q 426 632 504 632 q 299 580 347 632 q 251 431 251 528 l 251 0 l 104 0 z "},"ń":{"ha":821,"x_min":104,"x_max":717,"o":"m 104 0 l 104 739 l 239 739 l 242 610 q 331 721 271 686 q 467 756 390 756 q 604 719 549 756 q 688 619 660 682 q 717 475 717 556 l 717 0 l 569 0 l 569 431 q 537 580 569 528 q 426 632 504 632 q 299 580 347 632 q 251 431 251 528 l 251 0 l 104 0 m 346 828 l 433 1014 l 588 1014 l 463 828 l 346 828 z "},"ň":{"ha":821,"x_min":104,"x_max":717,"o":"m 104 0 l 104 739 l 239 739 l 242 610 q 331 721 271 686 q 467 756 390 756 q 604 719 549 756 q 688 619 660 682 q 717 475 717 556 l 717 0 l 569 0 l 569 431 q 537 580 569 528 q 426 632 504 632 q 299 580 347 632 q 251 431 251 528 l 251 0 l 104 0 m 207 1021 l 319 1021 l 411 897 l 503 1021 l 615 1021 l 488 828 l 335 828 l 207 1021 z "},"ņ":{"ha":821,"x_min":104,"x_max":717,"o":"m 104 0 l 104 739 l 239 739 l 242 610 q 331 721 271 686 q 467 756 390 756 q 604 719 549 756 q 688 619 660 682 q 717 475 717 556 l 717 0 l 569 0 l 569 431 q 537 580 569 528 q 426 632 504 632 q 299 580 347 632 q 251 431 251 528 l 251 0 l 104 0 m 310 -339 l 385 -208 l 335 -208 l 335 -72 l 488 -72 l 488 -196 l 404 -339 l 310 -339 z "},"ñ":{"ha":821,"x_min":104,"x_max":717,"o":"m 104 0 l 104 739 l 239 739 l 242 610 q 331 721 271 686 q 467 756 390 756 q 604 719 549 756 q 688 619 660 682 q 717 475 717 556 l 717 0 l 569 0 l 569 431 q 537 580 569 528 q 426 632 504 632 q 299 580 347 632 q 251 431 251 528 l 251 0 l 104 0 m 492 843 q 440 853 464 843 q 392 882 417 863 q 358 908 371 900 q 326 915 344 915 q 287 899 303 915 q 268 833 271 882 l 186 833 q 226 963 188 918 q 325 1008 264 1008 q 383 998 358 1008 q 433 967 408 988 q 497 936 471 936 q 535 953 521 936 q 553 1021 550 971 l 636 1021 q 594 890 632 938 q 492 843 557 843 z "},"ŋ":{"ha":821,"x_min":104,"x_max":717,"o":"m 104 0 l 104 739 l 239 739 l 242 610 q 331 721 271 686 q 467 756 390 756 q 604 719 549 756 q 688 619 660 682 q 717 475 717 556 l 717 -8 q 658 -153 717 -97 q 500 -208 600 -208 l 378 -208 l 378 -93 l 482 -93 q 546 -69 522 -93 q 569 -3 569 -44 l 569 431 q 537 580 569 528 q 426 632 504 632 q 299 580 347 632 q 251 431 251 528 l 251 0 l 104 0 z "},"o":{"ha":817,"x_min":58,"x_max":758,"o":"m 408 -17 q 224 31 303 -17 q 101 165 144 79 q 58 369 58 251 q 101 574 58 488 q 224 708 144 660 q 408 756 303 756 q 593 708 514 756 q 715 574 672 660 q 758 369 758 488 q 715 165 758 251 q 593 31 672 79 q 408 -17 514 -17 m 408 111 q 554 179 503 111 q 606 369 606 247 q 554 559 606 490 q 408 628 503 628 q 263 559 315 628 q 211 369 211 490 q 263 179 211 247 q 408 111 315 111 z "},"ó":{"ha":817,"x_min":58,"x_max":758,"o":"m 408 -17 q 224 31 303 -17 q 101 165 144 79 q 58 369 58 251 q 101 574 58 488 q 224 708 144 660 q 408 756 303 756 q 593 708 514 756 q 715 574 672 660 q 758 369 758 488 q 715 165 758 251 q 593 31 672 79 q 408 -17 514 -17 m 408 111 q 554 179 503 111 q 606 369 606 247 q 554 559 606 490 q 408 628 503 628 q 263 559 315 628 q 211 369 211 490 q 263 179 211 247 q 408 111 315 111 m 343 828 l 431 1014 l 585 1014 l 460 828 l 343 828 z "},"ô":{"ha":817,"x_min":58,"x_max":758,"o":"m 408 -17 q 224 31 303 -17 q 101 165 144 79 q 58 369 58 251 q 101 574 58 488 q 224 708 144 660 q 408 756 303 756 q 593 708 514 756 q 715 574 672 660 q 758 369 758 488 q 715 165 758 251 q 593 31 672 79 q 408 -17 514 -17 m 408 111 q 554 179 503 111 q 606 369 606 247 q 554 559 606 490 q 408 628 503 628 q 263 559 315 628 q 211 369 211 490 q 263 179 211 247 q 408 111 315 111 m 204 828 l 332 1021 l 485 1021 l 613 828 l 500 828 l 408 951 l 317 828 l 204 828 z "},"ö":{"ha":817,"x_min":58,"x_max":758,"o":"m 408 -17 q 224 31 303 -17 q 101 165 144 79 q 58 369 58 251 q 101 574 58 488 q 224 708 144 660 q 408 756 303 756 q 593 708 514 756 q 715 574 672 660 q 758 369 758 488 q 715 165 758 251 q 593 31 672 79 q 408 -17 514 -17 m 408 111 q 554 179 503 111 q 606 369 606 247 q 554 559 606 490 q 408 628 503 628 q 263 559 315 628 q 211 369 211 490 q 263 179 211 247 q 408 111 315 111 m 206 844 l 206 992 l 353 992 l 353 844 l 206 844 m 465 844 l 465 992 l 614 992 l 614 844 l 465 844 z "},"ò":{"ha":817,"x_min":58,"x_max":758,"o":"m 408 -17 q 224 31 303 -17 q 101 165 144 79 q 58 369 58 251 q 101 574 58 488 q 224 708 144 660 q 408 756 303 756 q 593 708 514 756 q 715 574 672 660 q 758 369 758 488 q 715 165 758 251 q 593 31 672 79 q 408 -17 514 -17 m 408 111 q 554 179 503 111 q 606 369 606 247 q 554 559 606 490 q 408 628 503 628 q 263 559 315 628 q 211 369 211 490 q 263 179 211 247 q 408 111 315 111 m 358 835 l 233 1022 l 388 1022 l 475 835 l 358 835 z "},"ő":{"ha":817,"x_min":58,"x_max":758,"o":"m 408 -17 q 224 31 303 -17 q 101 165 144 79 q 58 369 58 251 q 101 574 58 488 q 224 708 144 660 q 408 756 303 756 q 593 708 514 756 q 715 574 672 660 q 758 369 758 488 q 715 165 758 251 q 593 31 672 79 q 408 -17 514 -17 m 408 111 q 554 179 503 111 q 606 369 606 247 q 554 559 606 490 q 408 628 503 628 q 263 559 315 628 q 211 369 211 490 q 263 179 211 247 q 408 111 315 111 m 246 828 l 333 1014 l 488 1014 l 363 828 l 246 828 m 449 828 l 536 1014 l 690 1014 l 565 828 l 449 828 z "},"ō":{"ha":817,"x_min":58,"x_max":758,"o":"m 408 -17 q 224 31 303 -17 q 101 165 144 79 q 58 369 58 251 q 101 574 58 488 q 224 708 144 660 q 408 756 303 756 q 593 708 514 756 q 715 574 672 660 q 758 369 758 488 q 715 165 758 251 q 593 31 672 79 q 408 -17 514 -17 m 408 111 q 554 179 503 111 q 606 369 606 247 q 554 559 606 490 q 408 628 503 628 q 263 559 315 628 q 211 369 211 490 q 263 179 211 247 q 408 111 315 111 m 217 860 l 217 978 l 603 978 l 603 860 l 217 860 z "},"ø":{"ha":817,"x_min":58,"x_max":758,"o":"m 408 -17 q 224 31 303 -17 q 101 165 144 79 q 58 369 58 251 q 101 574 58 488 q 224 708 144 660 q 408 756 303 756 q 593 708 514 756 q 715 574 672 660 q 758 369 758 488 q 715 165 758 251 q 593 31 672 79 q 408 -17 514 -17 m 408 111 q 554 179 503 111 q 606 369 606 247 q 554 559 606 490 q 408 628 503 628 q 263 559 315 628 q 211 369 211 490 q 263 179 211 247 q 408 111 315 111 m 86 -19 l 619 758 l 731 758 l 197 -19 l 86 -19 z "},"õ":{"ha":817,"x_min":58,"x_max":758,"o":"m 408 -17 q 224 31 303 -17 q 101 165 144 79 q 58 369 58 251 q 101 574 58 488 q 224 708 144 660 q 408 756 303 756 q 593 708 514 756 q 715 574 672 660 q 758 369 758 488 q 715 165 758 251 q 593 31 672 79 q 408 -17 514 -17 m 408 111 q 554 179 503 111 q 606 369 606 247 q 554 559 606 490 q 408 628 503 628 q 263 559 315 628 q 211 369 211 490 q 263 179 211 247 q 408 111 315 111 m 489 843 q 438 853 461 843 q 389 882 414 863 q 355 908 368 900 q 324 915 342 915 q 284 899 300 915 q 265 833 268 882 l 183 833 q 223 963 185 918 q 322 1008 261 1008 q 381 998 356 1008 q 431 967 406 988 q 494 936 468 936 q 533 953 518 936 q 550 1021 547 971 l 633 1021 q 592 890 629 938 q 489 843 554 843 z "},"œ":{"ha":1349,"x_min":58,"x_max":1290,"o":"m 408 -17 q 224 31 303 -17 q 101 165 144 79 q 58 369 58 251 q 101 574 58 488 q 224 708 144 660 q 408 756 303 756 q 593 708 514 756 q 715 574 672 660 q 758 369 758 488 q 715 165 758 251 q 593 31 672 79 q 408 -17 514 -17 m 408 111 q 554 179 503 111 q 606 369 606 247 q 554 559 606 490 q 408 628 503 628 q 263 559 315 628 q 211 369 211 490 q 263 179 211 247 q 408 111 315 111 m 957 -17 q 770 31 849 -17 q 649 166 692 79 q 607 369 607 253 q 649 573 607 486 q 769 708 692 660 q 953 756 847 756 q 1129 709 1053 756 q 1248 575 1206 663 q 1290 364 1290 488 l 1290 326 l 760 326 q 817 164 765 218 q 958 110 869 110 q 1066 140 1024 110 q 1126 222 1108 169 l 1279 213 q 1165 46 1250 108 q 957 -17 1079 -17 m 760 438 l 1135 438 q 1078 583 1128 536 q 953 631 1028 631 q 823 581 874 631 q 760 438 772 532 z "},"p":{"ha":844,"x_min":104,"x_max":786,"o":"m 104 -208 l 104 739 l 243 739 l 246 626 q 337 723 278 690 q 469 756 396 756 q 648 702 578 756 q 752 561 718 649 q 786 369 786 474 q 752 178 786 265 q 648 37 718 90 q 469 -17 578 -17 q 340 15 399 -17 q 251 100 282 46 l 251 -208 l 104 -208 m 443 111 q 583 179 532 111 q 633 369 633 247 q 583 560 633 492 q 443 628 532 628 q 303 563 354 628 q 251 369 251 497 q 303 176 251 242 q 443 111 354 111 z "},"þ":{"ha":840,"x_min":104,"x_max":782,"o":"m 104 -208 l 104 986 l 254 986 l 254 656 q 338 730 285 704 q 465 756 390 756 q 642 702 572 756 q 747 561 713 649 q 782 369 782 474 q 747 178 782 265 q 642 37 713 90 q 465 -17 572 -17 q 340 9 393 -17 q 254 81 288 35 l 254 -208 l 104 -208 m 435 115 q 547 151 504 115 q 610 246 590 188 q 629 369 629 304 q 610 497 629 438 q 547 592 590 556 q 435 628 504 628 q 324 591 367 628 q 262 495 282 554 q 242 369 242 436 q 262 247 242 304 q 324 152 282 189 q 435 115 367 115 z "},"q":{"ha":844,"x_min":58,"x_max":740,"o":"m 740 -208 l 593 -208 l 593 100 q 504 15 563 46 q 375 -17 446 -17 q 197 37 267 -17 q 92 178 126 90 q 58 369 58 265 q 92 561 58 474 q 197 702 126 649 q 375 756 267 756 q 508 723 449 756 q 599 626 567 690 l 601 739 l 740 739 l 740 -208 m 401 111 q 542 176 490 111 q 593 369 593 242 q 542 563 593 497 q 401 628 490 628 q 262 560 313 628 q 211 369 211 492 q 262 179 211 247 q 401 111 313 111 z "},"r":{"ha":547,"x_min":104,"x_max":490,"o":"m 104 0 l 104 739 l 239 739 l 243 599 q 308 705 264 671 q 419 739 351 739 l 490 739 l 490 607 l 419 607 q 293 565 335 607 q 251 436 251 524 l 251 0 l 104 0 z "},"ŕ":{"ha":547,"x_min":104,"x_max":490,"o":"m 104 0 l 104 739 l 239 739 l 243 599 q 308 705 264 671 q 419 739 351 739 l 490 739 l 490 607 l 419 607 q 293 565 335 607 q 251 436 251 524 l 251 0 l 104 0 m 224 828 l 311 1014 l 465 1014 l 340 828 l 224 828 z "},"ř":{"ha":547,"x_min":85,"x_max":493,"o":"m 104 0 l 104 739 l 239 739 l 243 599 q 308 705 264 671 q 419 739 351 739 l 490 739 l 490 607 l 419 607 q 293 565 335 607 q 251 436 251 524 l 251 0 l 104 0 m 85 1021 l 197 1021 l 289 897 l 381 1021 l 493 1021 l 365 828 l 213 828 l 85 1021 z "},"ŗ":{"ha":547,"x_min":76,"x_max":490,"o":"m 104 0 l 104 739 l 239 739 l 243 599 q 308 705 264 671 q 419 739 351 739 l 490 739 l 490 607 l 419 607 q 293 565 335 607 q 251 436 251 524 l 251 0 l 104 0 m 76 -339 l 151 -208 l 101 -208 l 101 -72 l 254 -72 l 254 -196 l 171 -339 l 76 -339 z "},"s":{"ha":750,"x_min":58,"x_max":692,"o":"m 389 -17 q 150 53 233 -17 q 58 233 67 124 l 210 240 q 262 143 219 179 q 389 107 304 107 q 499 129 458 107 q 539 200 539 151 q 526 245 539 226 q 475 277 513 264 q 364 303 438 290 q 191 351 254 322 q 102 423 128 381 q 76 526 76 465 q 152 691 76 626 q 371 756 228 756 q 531 723 467 756 q 633 635 596 690 q 681 513 671 581 l 529 504 q 479 597 519 561 q 369 632 439 632 q 264 604 299 632 q 229 532 229 576 q 266 459 229 483 q 393 421 303 435 q 574 374 508 401 q 665 303 639 346 q 692 201 692 261 q 653 83 692 132 q 546 9 614 35 q 389 -17 478 -17 z "},"ś":{"ha":750,"x_min":58,"x_max":692,"o":"m 389 -17 q 150 53 233 -17 q 58 233 67 124 l 210 240 q 262 143 219 179 q 389 107 304 107 q 499 129 458 107 q 539 200 539 151 q 526 245 539 226 q 475 277 513 264 q 364 303 438 290 q 191 351 254 322 q 102 423 128 381 q 76 526 76 465 q 152 691 76 626 q 371 756 228 756 q 531 723 467 756 q 633 635 596 690 q 681 513 671 581 l 529 504 q 479 597 519 561 q 369 632 439 632 q 264 604 299 632 q 229 532 229 576 q 266 459 229 483 q 393 421 303 435 q 574 374 508 401 q 665 303 639 346 q 692 201 692 261 q 653 83 692 132 q 546 9 614 35 q 389 -17 478 -17 m 306 828 l 393 1014 l 547 1014 l 422 828 l 306 828 z "},"š":{"ha":750,"x_min":58,"x_max":692,"o":"m 389 -17 q 150 53 233 -17 q 58 233 67 124 l 210 240 q 262 143 219 179 q 389 107 304 107 q 499 129 458 107 q 539 200 539 151 q 526 245 539 226 q 475 277 513 264 q 364 303 438 290 q 191 351 254 322 q 102 423 128 381 q 76 526 76 465 q 152 691 76 626 q 371 756 228 756 q 531 723 467 756 q 633 635 596 690 q 681 513 671 581 l 529 504 q 479 597 519 561 q 369 632 439 632 q 264 604 299 632 q 229 532 229 576 q 266 459 229 483 q 393 421 303 435 q 574 374 508 401 q 665 303 639 346 q 692 201 692 261 q 653 83 692 132 q 546 9 614 35 q 389 -17 478 -17 m 167 1021 l 279 1021 l 371 897 l 463 1021 l 575 1021 l 447 828 l 294 828 l 167 1021 z "},"ş":{"ha":750,"x_min":58,"x_max":692,"o":"m 389 -17 q 150 53 233 -17 q 58 233 67 124 l 210 240 q 262 143 219 179 q 389 107 304 107 q 499 129 458 107 q 539 200 539 151 q 526 245 539 226 q 475 277 513 264 q 364 303 438 290 q 191 351 254 322 q 102 423 128 381 q 76 526 76 465 q 152 691 76 626 q 371 756 228 756 q 531 723 467 756 q 633 635 596 690 q 681 513 671 581 l 529 504 q 479 597 519 561 q 369 632 439 632 q 264 604 299 632 q 229 532 229 576 q 266 459 229 483 q 393 421 303 435 q 574 374 508 401 q 665 303 639 346 q 692 201 692 261 q 653 83 692 132 q 546 9 614 35 q 389 -17 478 -17 m 368 -311 q 259 -280 301 -311 q 201 -200 217 -249 l 279 -169 q 365 -225 301 -225 q 418 -211 399 -225 q 438 -172 438 -197 q 419 -129 438 -146 q 338 -112 400 -112 l 292 -67 l 343 14 l 442 14 l 397 -47 q 498 -87 465 -51 q 531 -175 531 -122 q 484 -275 531 -239 q 368 -311 438 -311 z "},"ŝ":{"ha":750,"x_min":58,"x_max":692,"o":"m 389 -17 q 150 53 233 -17 q 58 233 67 124 l 210 240 q 262 143 219 179 q 389 107 304 107 q 499 129 458 107 q 539 200 539 151 q 526 245 539 226 q 475 277 513 264 q 364 303 438 290 q 191 351 254 322 q 102 423 128 381 q 76 526 76 465 q 152 691 76 626 q 371 756 228 756 q 531 723 467 756 q 633 635 596 690 q 681 513 671 581 l 529 504 q 479 597 519 561 q 369 632 439 632 q 264 604 299 632 q 229 532 229 576 q 266 459 229 483 q 393 421 303 435 q 574 374 508 401 q 665 303 639 346 q 692 201 692 261 q 653 83 692 132 q 546 9 614 35 q 389 -17 478 -17 m 167 828 l 294 1021 l 447 1021 l 575 828 l 463 828 l 371 951 l 279 828 l 167 828 z "},"ș":{"ha":750,"x_min":58,"x_max":692,"o":"m 389 -17 q 150 53 233 -17 q 58 233 67 124 l 210 240 q 262 143 219 179 q 389 107 304 107 q 499 129 458 107 q 539 200 539 151 q 526 245 539 226 q 475 277 513 264 q 364 303 438 290 q 191 351 254 322 q 102 423 128 381 q 76 526 76 465 q 152 691 76 626 q 371 756 228 756 q 531 723 467 756 q 633 635 596 690 q 681 513 671 581 l 529 504 q 479 597 519 561 q 369 632 439 632 q 264 604 299 632 q 229 532 229 576 q 266 459 229 483 q 393 421 303 435 q 574 374 508 401 q 665 303 639 346 q 692 201 692 261 q 653 83 692 132 q 546 9 614 35 q 389 -17 478 -17 m 279 -339 l 354 -208 l 304 -208 l 304 -72 l 457 -72 l 457 -196 l 374 -339 l 279 -339 z "},"ß":{"ha":847,"x_min":104,"x_max":796,"o":"m 104 0 l 104 679 q 192 915 104 829 q 429 1000 279 1000 q 654 929 574 1000 q 735 740 735 858 q 693 608 735 664 q 579 531 651 553 q 737 441 678 508 q 796 278 796 374 q 701 74 796 147 q 433 0 607 0 l 344 0 l 344 132 l 433 132 q 589 172 535 132 q 643 290 643 211 q 588 413 643 369 q 421 456 532 456 l 357 456 l 357 586 l 417 586 q 541 626 496 586 q 586 732 586 665 q 547 830 586 792 q 429 868 507 868 q 299 817 347 868 q 251 679 251 767 l 251 0 l 104 0 z "},"t":{"ha":569,"x_min":69,"x_max":525,"o":"m 388 0 q 232 48 282 0 q 182 200 182 96 l 182 618 l 69 618 l 69 739 l 182 739 l 182 913 l 329 913 l 329 739 l 525 739 l 525 618 l 329 618 l 329 211 q 351 140 329 160 q 419 121 374 121 l 525 121 l 525 0 l 388 0 z "},"ŧ":{"ha":569,"x_min":69,"x_max":525,"o":"m 71 347 l 71 451 l 182 451 l 182 618 l 69 618 l 69 739 l 182 739 l 182 913 l 329 913 l 329 739 l 525 739 l 525 618 l 329 618 l 329 451 l 513 451 l 513 347 l 329 347 l 329 211 q 351 140 329 160 q 419 121 374 121 l 525 121 l 525 0 l 388 0 q 232 48 282 0 q 182 200 182 96 l 182 347 l 71 347 z "},"ť":{"ha":578,"x_min":69,"x_max":597,"o":"m 422 769 l 464 1068 l 597 1068 l 524 769 l 422 769 m 388 0 q 232 48 282 0 q 182 200 182 96 l 182 618 l 69 618 l 69 739 l 182 739 l 182 913 l 329 913 l 329 739 l 525 739 l 525 618 l 329 618 l 329 211 q 351 140 329 160 q 419 121 374 121 l 525 121 l 525 0 l 388 0 z "},"ţ":{"ha":569,"x_min":69,"x_max":525,"o":"m 388 0 q 232 48 282 0 q 182 200 182 96 l 182 618 l 69 618 l 69 739 l 182 739 l 182 913 l 329 913 l 329 739 l 525 739 l 525 618 l 329 618 l 329 211 q 351 140 329 160 q 419 121 374 121 l 525 121 l 525 0 l 388 0 m 325 -311 q 216 -280 258 -311 q 158 -200 174 -249 l 236 -169 q 322 -225 258 -225 q 375 -211 356 -225 q 394 -172 394 -197 q 376 -129 394 -146 q 294 -112 357 -112 l 249 -67 l 300 14 l 399 14 l 354 -47 q 455 -87 422 -51 q 488 -175 488 -122 q 441 -275 488 -239 q 325 -311 394 -311 z "},"ț":{"ha":569,"x_min":69,"x_max":525,"o":"m 388 0 q 232 48 282 0 q 182 200 182 96 l 182 618 l 69 618 l 69 739 l 182 739 l 182 913 l 329 913 l 329 739 l 525 739 l 525 618 l 329 618 l 329 211 q 351 140 329 160 q 419 121 374 121 l 525 121 l 525 0 l 388 0 m 236 -339 l 311 -208 l 261 -208 l 261 -72 l 414 -72 l 414 -196 l 331 -339 l 236 -339 z "},"u":{"ha":814,"x_min":104,"x_max":710,"o":"m 347 -17 q 169 57 235 -17 q 104 264 104 131 l 104 739 l 251 739 l 251 301 q 286 154 251 201 q 392 107 321 107 q 517 159 472 107 q 563 306 563 211 l 563 739 l 710 739 l 710 0 l 572 0 l 571 121 q 347 -17 511 -17 z "},"ú":{"ha":814,"x_min":104,"x_max":710,"o":"m 347 -17 q 169 57 235 -17 q 104 264 104 131 l 104 739 l 251 739 l 251 301 q 286 154 251 201 q 392 107 321 107 q 517 159 472 107 q 563 306 563 211 l 563 739 l 710 739 l 710 0 l 572 0 l 571 121 q 347 -17 511 -17 m 338 828 l 425 1014 l 579 1014 l 454 828 l 338 828 z "},"ŭ":{"ha":814,"x_min":104,"x_max":710,"o":"m 347 -17 q 169 57 235 -17 q 104 264 104 131 l 104 739 l 251 739 l 251 301 q 286 154 251 201 q 392 107 321 107 q 517 159 472 107 q 563 306 563 211 l 563 739 l 710 739 l 710 0 l 572 0 l 571 121 q 347 -17 511 -17 m 403 832 q 260 882 314 832 q 201 1019 206 932 l 294 1019 q 328 949 300 971 q 403 928 357 928 q 476 949 449 928 q 510 1019 504 971 l 604 1019 q 546 882 600 932 q 403 832 492 832 z "},"û":{"ha":814,"x_min":104,"x_max":710,"o":"m 347 -17 q 169 57 235 -17 q 104 264 104 131 l 104 739 l 251 739 l 251 301 q 286 154 251 201 q 392 107 321 107 q 517 159 472 107 q 563 306 563 211 l 563 739 l 710 739 l 710 0 l 572 0 l 571 121 q 347 -17 511 -17 m 199 828 l 326 1021 l 479 1021 l 607 828 l 494 828 l 403 951 l 311 828 l 199 828 z "},"ü":{"ha":814,"x_min":104,"x_max":710,"o":"m 347 -17 q 169 57 235 -17 q 104 264 104 131 l 104 739 l 251 739 l 251 301 q 286 154 251 201 q 392 107 321 107 q 517 159 472 107 q 563 306 563 211 l 563 739 l 710 739 l 710 0 l 572 0 l 571 121 q 347 -17 511 -17 m 199 844 l 199 992 l 346 992 l 346 844 l 199 844 m 458 844 l 458 992 l 607 992 l 607 844 l 458 844 z "},"ù":{"ha":814,"x_min":104,"x_max":710,"o":"m 347 -17 q 169 57 235 -17 q 104 264 104 131 l 104 739 l 251 739 l 251 301 q 286 154 251 201 q 392 107 321 107 q 517 159 472 107 q 563 306 563 211 l 563 739 l 710 739 l 710 0 l 572 0 l 571 121 q 347 -17 511 -17 m 353 835 l 228 1022 l 382 1022 l 469 835 l 353 835 z "},"ű":{"ha":814,"x_min":104,"x_max":710,"o":"m 347 -17 q 169 57 235 -17 q 104 264 104 131 l 104 739 l 251 739 l 251 301 q 286 154 251 201 q 392 107 321 107 q 517 159 472 107 q 563 306 563 211 l 563 739 l 710 739 l 710 0 l 572 0 l 571 121 q 347 -17 511 -17 m 239 828 l 326 1014 l 481 1014 l 356 828 l 239 828 m 443 828 l 531 1014 l 685 1014 l 560 828 l 443 828 z "},"ū":{"ha":814,"x_min":104,"x_max":710,"o":"m 347 -17 q 169 57 235 -17 q 104 264 104 131 l 104 739 l 251 739 l 251 301 q 286 154 251 201 q 392 107 321 107 q 517 159 472 107 q 563 306 563 211 l 563 739 l 710 739 l 710 0 l 572 0 l 571 121 q 347 -17 511 -17 m 210 860 l 210 978 l 596 978 l 596 860 l 210 860 z "},"ų":{"ha":814,"x_min":104,"x_max":758,"o":"m 347 -17 q 169 57 235 -17 q 104 264 104 131 l 104 739 l 251 739 l 251 301 q 286 154 251 201 q 392 107 321 107 q 517 159 472 107 q 563 306 563 211 l 563 739 l 710 739 l 710 0 l 572 0 l 571 121 q 347 -17 511 -17 m 629 -294 q 528 -268 565 -294 q 492 -190 492 -242 q 516 -108 492 -150 q 567 -29 540 -67 l 610 28 l 710 0 l 663 -62 q 629 -117 639 -96 q 619 -156 619 -137 q 631 -181 619 -172 q 658 -190 642 -190 q 724 -172 697 -190 l 758 -258 q 706 -284 742 -274 q 629 -294 669 -294 z "},"ů":{"ha":814,"x_min":104,"x_max":710,"o":"m 347 -17 q 169 57 235 -17 q 104 264 104 131 l 104 739 l 251 739 l 251 301 q 286 154 251 201 q 392 107 321 107 q 517 159 472 107 q 563 306 563 211 l 563 739 l 710 739 l 710 0 l 572 0 l 571 121 q 347 -17 511 -17 m 403 800 q 309 838 347 800 q 271 932 271 875 q 309 1026 271 988 q 403 1064 347 1064 q 498 1026 460 1064 q 536 932 536 988 q 498 838 536 875 q 403 800 460 800 m 403 875 q 444 891 428 875 q 460 932 460 907 q 444 972 460 956 q 403 988 428 988 q 363 972 379 988 q 347 932 347 956 q 363 891 347 907 q 403 875 379 875 z "},"ũ":{"ha":814,"x_min":104,"x_max":710,"o":"m 347 -17 q 169 57 235 -17 q 104 264 104 131 l 104 739 l 251 739 l 251 301 q 286 154 251 201 q 392 107 321 107 q 517 159 472 107 q 563 306 563 211 l 563 739 l 710 739 l 710 0 l 572 0 l 571 121 q 347 -17 511 -17 m 468 843 q 417 853 440 843 q 368 882 393 863 q 334 908 347 900 q 303 915 321 915 q 263 899 279 915 q 244 833 247 882 l 163 833 q 202 963 164 918 q 301 1008 240 1008 q 360 998 335 1008 q 410 967 385 988 q 474 936 447 936 q 512 953 497 936 q 529 1021 526 971 l 613 1021 q 571 890 608 938 q 468 843 533 843 z "},"v":{"ha":778,"x_min":31,"x_max":749,"o":"m 300 0 l 31 739 l 188 739 l 389 150 l 590 739 l 749 739 l 478 0 l 300 0 z "},"w":{"ha":1151,"x_min":31,"x_max":1121,"o":"m 256 0 l 31 739 l 185 739 l 343 161 l 506 739 l 644 739 l 807 161 l 967 739 l 1121 739 l 896 0 l 731 0 l 575 528 l 419 0 l 256 0 z "},"ẃ":{"ha":1151,"x_min":31,"x_max":1121,"o":"m 256 0 l 31 739 l 185 739 l 343 161 l 506 739 l 644 739 l 807 161 l 967 739 l 1121 739 l 896 0 l 731 0 l 575 528 l 419 0 l 256 0 m 511 828 l 599 1014 l 753 1014 l 628 828 l 511 828 z "},"ŵ":{"ha":1151,"x_min":31,"x_max":1121,"o":"m 256 0 l 31 739 l 185 739 l 343 161 l 506 739 l 644 739 l 807 161 l 967 739 l 1121 739 l 896 0 l 731 0 l 575 528 l 419 0 l 256 0 m 372 828 l 500 1021 l 653 1021 l 781 828 l 668 828 l 576 951 l 485 828 l 372 828 z "},"ẅ":{"ha":1151,"x_min":31,"x_max":1121,"o":"m 256 0 l 31 739 l 185 739 l 343 161 l 506 739 l 644 739 l 807 161 l 967 739 l 1121 739 l 896 0 l 731 0 l 575 528 l 419 0 l 256 0 m 372 844 l 372 992 l 519 992 l 519 844 l 372 844 m 632 844 l 632 992 l 781 992 l 781 844 l 632 844 z "},"ẁ":{"ha":1151,"x_min":31,"x_max":1121,"o":"m 256 0 l 31 739 l 185 739 l 343 161 l 506 739 l 644 739 l 807 161 l 967 739 l 1121 739 l 896 0 l 731 0 l 575 528 l 419 0 l 256 0 m 526 835 l 401 1022 l 556 1022 l 643 835 l 526 835 z "},"x":{"ha":843,"x_min":65,"x_max":778,"o":"m 65 0 l 333 378 l 76 739 l 240 739 l 422 474 l 599 739 l 767 739 l 513 375 l 778 0 l 614 0 l 424 282 l 232 0 l 65 0 z "},"y":{"ha":768,"x_min":31,"x_max":739,"o":"m 146 -208 l 146 -87 l 236 -87 q 292 -76 274 -87 q 319 -39 310 -65 l 343 22 l 297 22 l 31 739 l 186 739 l 389 158 l 582 739 l 739 739 l 444 -86 q 378 -179 422 -150 q 257 -208 335 -208 l 146 -208 z "},"ý":{"ha":768,"x_min":31,"x_max":739,"o":"m 146 -208 l 146 -87 l 236 -87 q 292 -76 274 -87 q 319 -39 310 -65 l 343 22 l 297 22 l 31 739 l 186 739 l 389 158 l 582 739 l 739 739 l 444 -86 q 378 -179 422 -150 q 257 -208 335 -208 l 146 -208 m 319 828 l 407 1014 l 561 1014 l 436 828 l 319 828 z "},"ŷ":{"ha":768,"x_min":31,"x_max":739,"o":"m 146 -208 l 146 -87 l 236 -87 q 292 -76 274 -87 q 319 -39 310 -65 l 343 22 l 297 22 l 31 739 l 186 739 l 389 158 l 582 739 l 739 739 l 444 -86 q 378 -179 422 -150 q 257 -208 335 -208 l 146 -208 m 181 828 l 308 1021 l 461 1021 l 589 828 l 476 828 l 385 951 l 293 828 l 181 828 z "},"ÿ":{"ha":768,"x_min":31,"x_max":739,"o":"m 146 -208 l 146 -87 l 236 -87 q 292 -76 274 -87 q 319 -39 310 -65 l 343 22 l 297 22 l 31 739 l 186 739 l 389 158 l 582 739 l 739 739 l 444 -86 q 378 -179 422 -150 q 257 -208 335 -208 l 146 -208 m 182 844 l 182 992 l 329 992 l 329 844 l 182 844 m 442 844 l 442 992 l 590 992 l 590 844 l 442 844 z "},"ỳ":{"ha":768,"x_min":31,"x_max":739,"o":"m 146 -208 l 146 -87 l 236 -87 q 292 -76 274 -87 q 319 -39 310 -65 l 343 22 l 297 22 l 31 739 l 186 739 l 389 158 l 582 739 l 739 739 l 444 -86 q 378 -179 422 -150 q 257 -208 335 -208 l 146 -208 m 335 835 l 210 1022 l 364 1022 l 451 835 l 335 835 z "},"ỹ":{"ha":768,"x_min":31,"x_max":739,"o":"m 146 -208 l 146 -87 l 236 -87 q 292 -76 274 -87 q 319 -39 310 -65 l 343 22 l 297 22 l 31 739 l 186 739 l 389 158 l 582 739 l 739 739 l 444 -86 q 378 -179 422 -150 q 257 -208 335 -208 l 146 -208 m 465 843 q 414 853 438 843 q 365 882 390 863 q 331 908 344 900 q 300 915 318 915 q 260 899 276 915 q 242 833 244 882 l 160 833 q 199 963 161 918 q 299 1008 238 1008 q 357 998 332 1008 q 407 967 382 988 q 471 936 444 936 q 509 953 494 936 q 526 1021 524 971 l 610 1021 q 568 890 606 938 q 465 843 531 843 z "},"z":{"ha":783,"x_min":79,"x_max":706,"o":"m 79 0 l 79 132 l 525 618 l 93 618 l 93 739 l 694 739 l 694 607 l 244 121 l 706 121 l 706 0 l 79 0 z "},"ź":{"ha":783,"x_min":79,"x_max":706,"o":"m 79 0 l 79 132 l 525 618 l 93 618 l 93 739 l 694 739 l 694 607 l 244 121 l 706 121 l 706 0 l 79 0 m 329 828 l 417 1014 l 571 1014 l 446 828 l 329 828 z "},"ž":{"ha":783,"x_min":79,"x_max":706,"o":"m 79 0 l 79 132 l 525 618 l 93 618 l 93 739 l 694 739 l 694 607 l 244 121 l 706 121 l 706 0 l 79 0 m 190 1021 l 303 1021 l 394 897 l 486 1021 l 599 1021 l 471 828 l 318 828 l 190 1021 z "},"ż":{"ha":783,"x_min":79,"x_max":706,"o":"m 79 0 l 79 132 l 525 618 l 93 618 l 93 739 l 694 739 l 694 607 l 244 121 l 706 121 l 706 0 l 79 0 m 318 846 l 318 993 l 471 993 l 471 846 l 318 846 z "},"ꞌ":{"ha":347,"x_min":104,"x_max":243,"o":"m 122 504 l 104 865 l 104 986 l 243 986 l 243 865 l 225 504 l 122 504 z "},"ﬁ":{"ha":908,"x_min":76,"x_max":807,"o":"m 179 0 l 179 610 l 76 610 l 76 729 l 179 729 l 179 786 q 231 932 179 878 q 392 986 282 986 l 522 986 l 522 865 l 411 865 q 326 778 326 865 l 326 729 l 511 729 l 511 610 l 326 610 l 326 0 l 179 0 m 656 0 l 656 739 l 803 739 l 803 0 l 656 0 m 654 846 l 654 993 l 807 993 l 807 846 l 654 846 z "},"ﬂ":{"ha":939,"x_min":76,"x_max":908,"o":"m 179 0 l 179 610 l 76 610 l 76 729 l 179 729 l 179 786 q 231 932 179 878 q 392 986 282 986 l 522 986 l 522 865 l 411 865 q 326 778 326 865 l 326 729 l 511 729 l 511 610 l 326 610 l 326 0 l 179 0 m 813 0 q 695 38 739 0 q 651 157 651 75 l 651 986 l 799 986 l 799 171 q 850 121 799 121 l 908 121 l 908 0 l 813 0 z "},"ª":{"ha":571,"x_min":56,"x_max":529,"o":"m 221 522 q 101 555 146 522 q 56 647 56 588 q 96 745 56 711 q 210 794 136 779 l 361 825 q 340 892 361 869 q 281 915 318 915 q 196 849 210 915 l 64 854 q 133 969 76 931 q 281 1008 189 1008 q 439 959 386 1008 q 492 815 492 910 l 492 650 q 498 623 492 631 q 517 615 504 615 l 529 615 l 529 526 q 512 524 525 525 q 482 522 499 522 q 415 539 444 522 q 379 604 386 556 q 322 545 363 568 q 221 522 282 522 m 246 608 q 328 637 296 608 q 361 715 361 665 l 361 743 l 254 719 q 189 658 189 706 q 246 608 189 608 z "},"º":{"ha":594,"x_min":56,"x_max":539,"o":"m 297 522 q 121 588 186 522 q 56 765 56 654 q 121 942 56 875 q 297 1008 186 1008 q 474 942 408 1008 q 539 765 539 875 q 474 588 539 654 q 297 522 408 522 m 297 619 q 378 658 350 619 q 407 765 407 696 q 378 872 407 833 q 297 911 350 911 q 215 872 243 911 q 188 765 188 832 q 215 658 188 697 q 297 619 243 619 z "},"А":{"ha":957,"x_min":28,"x_max":929,"o":"m 28 0 l 383 986 l 574 986 l 929 0 l 769 0 l 679 257 l 276 257 l 188 0 l 28 0 m 324 393 l 633 393 l 478 843 l 324 393 z "},"Б":{"ha":926,"x_min":119,"x_max":846,"o":"m 119 0 l 119 986 l 800 986 l 800 849 l 269 849 l 269 611 l 488 611 q 751 529 656 611 q 846 303 846 447 q 751 81 846 161 q 488 0 656 0 l 119 0 m 269 138 l 483 138 q 690 303 690 138 q 483 474 690 474 l 269 474 l 269 138 z "},"В":{"ha":956,"x_min":119,"x_max":874,"o":"m 119 0 l 119 986 l 474 986 q 742 922 651 986 q 832 719 832 858 q 783 578 832 635 q 649 510 735 522 q 815 433 756 497 q 874 271 874 369 q 783 68 874 136 q 526 0 693 0 l 119 0 m 269 565 l 471 565 q 624 603 569 565 q 678 708 678 640 q 471 851 678 851 l 269 851 l 269 565 m 269 135 l 522 135 q 667 173 615 135 q 719 285 719 211 q 667 397 719 357 q 522 438 615 438 l 269 438 l 269 135 z "},"Г":{"ha":815,"x_min":119,"x_max":800,"o":"m 119 0 l 119 986 l 800 986 l 800 849 l 269 849 l 269 0 l 119 0 z "},"Ѓ":{"ha":815,"x_min":119,"x_max":800,"o":"m 119 0 l 119 986 l 800 986 l 800 849 l 269 849 l 269 0 l 119 0 m 394 1075 l 482 1261 l 636 1261 l 511 1075 l 394 1075 z "},"Ґ":{"ha":731,"x_min":119,"x_max":715,"o":"m 119 0 l 119 986 l 565 986 l 565 1201 l 715 1201 l 715 849 l 269 849 l 269 0 l 119 0 z "},"Ғ":{"ha":889,"x_min":92,"x_max":874,"o":"m 193 0 l 193 388 l 92 388 l 92 524 l 193 524 l 193 986 l 874 986 l 874 849 l 343 849 l 343 524 l 672 524 l 672 388 l 343 388 l 343 0 l 193 0 z "},"Д":{"ha":1142,"x_min":69,"x_max":1071,"o":"m 69 -208 l 69 138 l 122 138 q 244 321 224 138 l 317 986 l 949 986 l 949 138 l 1071 138 l 1071 -208 l 921 -208 l 921 0 l 219 0 l 219 -208 l 69 -208 m 340 138 l 799 138 l 799 849 l 454 849 l 396 307 q 340 138 382 196 z "},"Е":{"ha":846,"x_min":119,"x_max":772,"o":"m 119 0 l 119 986 l 761 986 l 761 849 l 269 849 l 269 561 l 744 561 l 744 428 l 269 428 l 269 138 l 772 138 l 772 0 l 119 0 z "},"Ѐ":{"ha":846,"x_min":119,"x_max":772,"o":"m 119 0 l 119 986 l 761 986 l 761 849 l 269 849 l 269 561 l 744 561 l 744 428 l 269 428 l 269 138 l 772 138 l 772 0 l 119 0 m 399 1082 l 274 1269 l 428 1269 l 515 1082 l 399 1082 z "},"Ё":{"ha":846,"x_min":119,"x_max":772,"o":"m 119 0 l 119 986 l 761 986 l 761 849 l 269 849 l 269 561 l 744 561 l 744 428 l 269 428 l 269 138 l 772 138 l 772 0 l 119 0 m 239 1092 l 239 1239 l 386 1239 l 386 1092 l 239 1092 m 499 1092 l 499 1239 l 647 1239 l 647 1092 l 499 1092 z "},"Ж":{"ha":1335,"x_min":19,"x_max":1315,"o":"m 19 0 l 417 493 l 33 986 l 229 986 l 593 519 l 593 986 l 743 986 l 743 519 l 1106 986 l 1301 986 l 918 493 l 1315 0 l 1119 0 l 743 468 l 743 0 l 593 0 l 593 468 l 215 0 l 19 0 z "},"З":{"ha":924,"x_min":68,"x_max":856,"o":"m 463 -22 q 263 14 350 -22 q 124 115 175 50 q 68 265 72 181 l 222 274 q 294 158 229 201 q 463 115 358 115 q 636 162 572 115 q 700 289 700 208 q 667 387 700 349 q 585 443 635 425 q 479 461 535 461 l 378 460 l 378 588 l 479 586 q 566 600 524 585 q 637 649 608 615 q 665 742 665 683 q 610 836 665 801 q 461 871 556 871 q 317 839 372 871 q 254 751 263 807 l 99 761 q 157 890 108 833 q 285 977 206 946 q 463 1008 364 1008 q 649 976 568 1008 q 776 885 731 943 q 822 751 822 828 q 626 533 822 582 q 797 438 738 506 q 856 271 856 369 q 806 119 856 185 q 667 15 756 53 q 463 -22 579 -22 z "},"И":{"ha":1029,"x_min":114,"x_max":910,"o":"m 910 0 l 760 0 l 760 786 l 311 0 l 114 0 l 114 986 l 264 986 l 264 182 l 719 986 l 910 986 l 910 0 z "},"Й":{"ha":1029,"x_min":114,"x_max":910,"o":"m 508 1082 q 365 1132 419 1082 q 307 1269 311 1182 l 400 1269 q 435 1199 407 1221 q 508 1178 463 1178 q 582 1199 554 1178 q 617 1269 610 1221 l 710 1269 q 652 1132 706 1182 q 508 1082 599 1082 m 910 0 l 760 0 l 760 786 l 311 0 l 114 0 l 114 986 l 264 986 l 264 182 l 719 986 l 910 986 l 910 0 z "},"Ѝ":{"ha":1029,"x_min":114,"x_max":910,"o":"m 444 1082 l 319 1269 l 475 1269 l 563 1082 l 444 1082 m 910 0 l 760 0 l 760 786 l 311 0 l 114 0 l 114 986 l 264 986 l 264 182 l 719 986 l 910 986 l 910 0 z "},"К":{"ha":908,"x_min":119,"x_max":889,"o":"m 119 0 l 119 986 l 269 986 l 269 504 l 686 986 l 875 986 l 449 493 l 889 0 l 700 0 l 269 482 l 269 0 l 119 0 z "},"Ќ":{"ha":908,"x_min":119,"x_max":889,"o":"m 119 0 l 119 986 l 269 986 l 269 504 l 686 986 l 875 986 l 449 493 l 889 0 l 700 0 l 269 482 l 269 0 l 119 0 m 410 1075 l 497 1261 l 651 1261 l 526 1075 l 410 1075 z "},"Л":{"ha":1069,"x_min":85,"x_max":950,"o":"m 85 0 l 85 138 l 165 138 q 224 165 203 138 q 249 238 244 192 l 313 986 l 950 986 l 950 0 l 801 0 l 801 849 l 451 849 l 397 217 q 341 59 389 118 q 197 0 293 0 l 85 0 z "},"М":{"ha":1236,"x_min":119,"x_max":1117,"o":"m 119 0 l 119 986 l 325 986 l 618 176 l 911 986 l 1117 986 l 1117 0 l 967 0 l 967 722 l 701 1 l 535 1 l 269 722 l 269 0 l 119 0 z "},"Н":{"ha":994,"x_min":119,"x_max":875,"o":"m 119 0 l 119 986 l 269 986 l 269 564 l 725 564 l 725 986 l 875 986 l 875 0 l 725 0 l 725 428 l 269 428 l 269 0 l 119 0 z "},"О":{"ha":1043,"x_min":61,"x_max":982,"o":"m 521 -22 q 275 40 378 -22 q 117 217 172 101 q 61 492 61 332 q 117 767 61 651 q 275 946 172 883 q 521 1008 378 1008 q 769 946 665 1008 q 927 767 872 883 q 982 492 982 651 q 927 217 982 332 q 769 40 872 101 q 521 -22 665 -22 m 521 115 q 745 215 664 115 q 826 492 826 314 q 745 770 826 669 q 521 871 664 871 q 298 770 379 871 q 217 492 217 669 q 298 215 217 314 q 521 115 379 115 z "},"П":{"ha":983,"x_min":119,"x_max":864,"o":"m 119 0 l 119 986 l 864 986 l 864 0 l 714 0 l 714 849 l 269 849 l 269 0 l 119 0 z "},"Р":{"ha":913,"x_min":119,"x_max":846,"o":"m 119 0 l 119 986 l 488 986 q 751 905 656 986 q 846 679 846 824 q 751 452 846 535 q 488 369 656 369 l 269 369 l 269 0 l 119 0 m 269 506 l 483 506 q 690 679 690 506 q 483 849 690 849 l 269 849 l 269 506 z "},"С":{"ha":983,"x_min":58,"x_max":933,"o":"m 508 -22 q 274 40 375 -22 q 115 217 172 101 q 58 492 58 332 q 115 766 58 650 q 272 945 171 882 q 510 1008 374 1008 q 794 916 693 1008 q 926 663 896 824 l 769 654 q 686 813 750 754 q 510 871 622 871 q 353 825 419 871 q 251 694 288 779 q 214 492 214 610 q 251 289 214 374 q 354 160 288 204 q 508 115 421 115 q 693 178 628 115 q 776 353 758 242 l 933 344 q 798 77 906 176 q 508 -22 690 -22 z "},"Т":{"ha":811,"x_min":0,"x_max":756,"o":"m 303 0 l 303 849 l 0 849 l 0 986 l 756 986 l 756 849 l 453 849 l 453 0 l 303 0 z "},"У":{"ha":783,"x_min":28,"x_max":756,"o":"m 126 0 l 126 135 l 239 135 q 314 186 296 135 l 347 272 l 296 272 l 28 986 l 186 986 l 394 406 l 597 986 l 756 986 l 446 122 q 268 0 401 0 l 126 0 z "},"Ў":{"ha":783,"x_min":28,"x_max":756,"o":"m 126 0 l 126 135 l 239 135 q 314 186 296 135 l 347 272 l 296 272 l 28 986 l 186 986 l 394 406 l 597 986 l 756 986 l 446 122 q 268 0 401 0 l 126 0 m 389 1079 q 246 1129 300 1079 q 188 1267 192 1179 l 281 1267 q 315 1197 286 1218 q 389 1175 343 1175 q 463 1197 435 1175 q 496 1267 490 1218 l 590 1267 q 532 1129 586 1179 q 389 1079 478 1079 z "},"Ф":{"ha":1172,"x_min":61,"x_max":1111,"o":"m 514 0 l 514 104 q 276 167 378 115 q 118 303 175 219 q 61 493 61 386 q 118 683 61 600 q 276 819 175 767 q 514 882 378 871 l 514 986 l 657 986 l 657 882 q 895 818 793 869 q 1054 683 997 767 q 1111 493 1111 600 q 1054 303 1111 386 q 895 168 997 219 q 657 104 793 117 l 657 0 l 514 0 m 217 493 q 296 322 217 389 q 514 242 375 256 l 514 744 q 296 664 375 731 q 217 493 217 597 m 954 493 q 875 663 954 597 q 657 744 796 729 l 657 242 q 875 323 796 257 q 954 493 954 389 z "},"Х":{"ha":879,"x_min":19,"x_max":860,"o":"m 19 0 l 347 494 l 22 986 l 199 986 l 442 611 l 681 986 l 856 986 l 531 497 l 860 0 l 683 0 l 439 381 l 194 0 l 19 0 z "},"Ц":{"ha":1088,"x_min":119,"x_max":996,"o":"m 846 -208 l 846 0 l 119 0 l 119 986 l 269 986 l 269 138 l 714 138 l 714 986 l 864 986 l 864 138 l 996 138 l 996 -208 l 846 -208 z "},"Ч":{"ha":915,"x_min":54,"x_max":796,"o":"m 646 0 l 646 464 q 540 367 611 404 q 378 331 468 331 q 138 415 222 331 q 54 644 54 500 l 54 986 l 204 986 l 204 661 q 252 518 204 569 q 396 467 300 467 q 576 521 507 467 q 646 663 646 575 l 646 986 l 796 986 l 796 0 l 646 0 z "},"Ш":{"ha":1299,"x_min":119,"x_max":1179,"o":"m 119 0 l 119 986 l 269 986 l 269 138 l 574 138 l 574 986 l 725 986 l 725 138 l 1029 138 l 1029 986 l 1179 986 l 1179 0 l 119 0 z "},"Щ":{"ha":1403,"x_min":119,"x_max":1311,"o":"m 119 0 l 119 986 l 269 986 l 269 138 l 574 138 l 574 986 l 725 986 l 725 138 l 1029 138 l 1029 986 l 1179 986 l 1179 138 l 1311 138 l 1311 -208 l 1161 -208 l 1161 0 l 119 0 z "},"Џ":{"ha":983,"x_min":119,"x_max":864,"o":"m 417 -208 l 417 0 l 119 0 l 119 986 l 269 986 l 269 138 l 714 138 l 714 986 l 864 986 l 864 0 l 567 0 l 567 -208 l 417 -208 z "},"Ь":{"ha":926,"x_min":119,"x_max":846,"o":"m 119 986 l 269 986 l 269 617 l 488 617 q 751 534 656 617 q 846 307 846 451 q 751 81 846 163 q 488 0 656 0 l 119 0 l 119 986 m 269 481 l 269 138 l 483 138 q 690 307 690 138 q 483 481 690 481 l 269 481 z "},"Ы":{"ha":1221,"x_min":119,"x_max":1101,"o":"m 951 0 l 951 986 l 1101 986 l 1101 0 l 951 0 m 119 986 l 269 986 l 269 617 l 488 617 q 751 534 656 617 q 846 307 846 451 q 751 81 846 163 q 488 0 656 0 l 119 0 l 119 986 m 269 481 l 269 138 l 483 138 q 690 307 690 138 q 483 481 690 481 l 269 481 z "},"Ъ":{"ha":1033,"x_min":92,"x_max":967,"o":"m 92 849 l 92 986 l 390 986 l 390 617 l 608 617 q 872 534 778 617 q 967 307 967 451 q 872 81 967 163 q 608 0 778 0 l 240 0 l 240 849 l 92 849 m 390 481 l 390 138 l 604 138 q 811 307 811 138 q 604 481 811 481 l 390 481 z "},"Љ":{"ha":1567,"x_min":85,"x_max":1485,"o":"m 85 0 l 85 138 l 165 138 q 224 165 203 138 q 249 238 244 192 l 313 986 l 950 986 l 950 617 l 1126 617 q 1390 534 1296 617 q 1485 307 1485 451 q 1390 81 1485 163 q 1126 0 1296 0 l 758 0 l 758 849 l 451 849 l 397 217 q 341 59 389 118 q 197 0 293 0 l 85 0 m 1122 481 l 950 481 l 950 138 l 1122 138 q 1329 307 1329 138 q 1122 481 1329 481 z "},"Њ":{"ha":1521,"x_min":119,"x_max":1440,"o":"m 119 0 l 119 986 l 269 986 l 269 617 l 714 617 l 714 986 l 864 986 l 864 617 l 1082 617 q 1345 534 1250 617 q 1440 307 1440 451 q 1345 81 1440 163 q 1082 0 1250 0 l 714 0 l 714 481 l 269 481 l 269 0 l 119 0 m 864 481 l 864 138 l 1078 138 q 1285 307 1285 138 q 1078 481 1285 481 l 864 481 z "},"Ѕ":{"ha":908,"x_min":75,"x_max":833,"o":"m 475 -22 q 270 21 357 -22 q 133 140 183 64 q 75 318 83 217 l 229 328 q 305 169 243 225 q 478 114 367 114 q 626 150 574 114 q 679 256 679 186 q 659 330 679 297 q 583 390 639 363 q 418 443 526 417 q 229 506 300 471 q 127 594 158 542 q 96 722 96 646 q 137 872 96 807 q 254 972 178 936 q 438 1008 331 1008 q 631 967 550 1008 q 757 853 711 925 q 814 688 803 781 l 660 679 q 592 818 649 764 q 435 872 536 872 q 299 833 349 872 q 250 728 250 793 q 270 657 250 685 q 342 608 290 629 q 490 564 394 586 q 693 492 618 535 q 801 393 768 450 q 833 264 833 336 q 788 112 833 176 q 663 13 743 47 q 475 -22 582 -22 z "},"Є":{"ha":1036,"x_min":71,"x_max":978,"o":"m 532 -22 q 284 40 388 -22 q 126 218 181 103 q 71 492 71 333 q 126 767 71 651 q 284 946 181 883 q 532 1008 388 1008 q 828 910 713 1008 q 978 638 944 813 l 818 638 q 715 810 789 749 q 532 871 642 871 q 323 788 401 871 q 229 558 244 706 l 606 558 l 606 426 l 229 426 q 323 197 244 279 q 532 115 401 115 q 715 176 642 115 q 818 347 789 238 l 978 347 q 828 76 944 174 q 532 -22 713 -22 z "},"Э":{"ha":1029,"x_min":61,"x_max":968,"o":"m 507 -22 q 210 76 326 -22 q 61 347 94 174 l 221 347 q 324 176 250 238 q 507 115 397 115 q 716 197 638 115 q 810 426 794 279 l 433 426 l 433 558 l 810 558 q 716 788 794 706 q 507 871 638 871 q 324 810 397 871 q 221 638 250 749 l 61 638 q 210 910 94 813 q 507 1008 326 1008 q 755 946 651 1008 q 913 767 858 883 q 968 492 968 651 q 913 218 968 333 q 755 40 858 103 q 507 -22 651 -22 z "},"І":{"ha":394,"x_min":125,"x_max":275,"o":"m 125 0 l 125 986 l 275 986 l 275 0 l 125 0 z "},"Ї":{"ha":389,"x_min":-7,"x_max":401,"o":"m 115 0 l 115 986 l 265 986 l 265 0 l 115 0 m -7 1094 l -7 1242 l 140 1242 l 140 1094 l -7 1094 m 253 1094 l 253 1242 l 401 1242 l 401 1094 l 253 1094 z "},"Ј":{"ha":843,"x_min":85,"x_max":744,"o":"m 414 -22 q 242 23 315 -22 q 127 148 168 68 q 85 332 86 228 l 238 340 q 285 173 239 231 q 414 115 331 115 q 547 175 500 115 q 594 347 594 235 l 594 986 l 744 986 l 744 347 q 703 151 744 235 q 589 23 663 68 q 414 -22 515 -22 z "},"Ћ":{"ha":1072,"x_min":17,"x_max":1019,"o":"m 17 849 l 17 986 l 719 986 l 719 849 l 428 849 l 428 522 q 533 619 461 582 q 694 656 604 656 q 935 571 850 656 q 1019 342 1019 486 l 1019 0 l 869 0 l 869 325 q 821 468 869 417 q 676 519 772 519 q 497 465 565 519 q 428 324 428 411 l 428 0 l 278 0 l 278 849 l 17 849 z "},"Ю":{"ha":1401,"x_min":119,"x_max":1340,"o":"m 119 0 l 119 986 l 269 986 l 269 561 l 422 561 q 492 800 433 700 q 648 954 550 900 q 879 1008 746 1008 q 1126 946 1022 1008 q 1285 767 1229 883 q 1340 492 1340 651 q 1285 217 1340 332 q 1126 40 1229 101 q 879 -22 1022 -22 q 559 97 679 -22 q 421 425 439 215 l 269 425 l 269 0 l 119 0 m 879 115 q 1103 215 1022 115 q 1183 492 1183 314 q 1103 770 1183 669 q 879 871 1022 871 q 656 770 736 871 q 575 492 575 669 q 656 215 575 314 q 879 115 736 115 z "},"Я":{"ha":956,"x_min":81,"x_max":836,"o":"m 836 0 l 686 0 l 686 386 l 460 386 l 244 0 l 81 0 l 311 410 q 162 510 214 439 q 110 683 110 582 q 204 906 110 826 q 468 986 299 986 l 836 986 l 836 0 m 686 522 l 686 849 l 472 849 q 319 806 374 849 q 265 685 265 764 q 319 564 265 606 q 472 522 374 522 l 686 522 z "},"Ђ":{"ha":1075,"x_min":17,"x_max":1019,"o":"m 278 0 l 278 849 l 17 849 l 17 986 l 719 986 l 719 849 l 428 849 l 428 524 q 532 619 461 582 q 693 656 603 656 q 863 615 790 656 q 978 501 936 574 q 1019 333 1019 429 q 970 156 1019 231 q 831 41 921 82 q 618 0 742 0 l 618 138 q 799 190 735 138 q 864 332 864 243 q 813 469 864 418 q 676 519 763 519 q 497 465 565 519 q 428 321 428 410 l 428 0 l 278 0 z "},"Ѣ":{"ha":1038,"x_min":78,"x_max":956,"o":"m 78 736 l 78 856 l 229 856 l 229 986 l 379 986 l 379 856 l 533 856 l 533 736 l 379 736 l 379 617 l 597 617 q 861 534 767 617 q 956 307 956 451 q 861 81 956 163 q 597 0 767 0 l 229 0 l 229 736 l 78 736 m 379 481 l 379 138 l 593 138 q 800 307 800 138 q 593 481 800 481 l 379 481 z "},"Ѫ":{"ha":976,"x_min":19,"x_max":957,"o":"m 19 0 l 164 388 q 233 497 190 460 q 332 538 276 533 l 117 849 l 117 986 l 861 986 l 861 849 l 647 538 q 744 495 701 532 q 811 388 786 458 l 957 0 l 797 0 l 679 325 q 642 388 663 372 q 592 403 622 403 l 563 403 l 563 0 l 415 0 l 415 403 l 386 403 q 334 387 354 403 q 297 325 314 371 l 179 0 l 19 0 m 282 849 l 489 549 l 697 849 l 282 849 z "},"Ѳ":{"ha":1043,"x_min":61,"x_max":982,"o":"m 521 -22 q 275 40 378 -22 q 117 217 172 101 q 61 492 61 332 q 117 767 61 651 q 275 946 172 883 q 521 1008 378 1008 q 769 946 665 1008 q 927 767 872 883 q 982 492 982 651 q 927 217 982 332 q 769 40 872 101 q 521 -22 665 -22 m 497 576 q 615 535 574 549 q 684 518 657 521 q 740 519 711 515 q 825 544 786 525 q 733 785 813 699 q 521 871 653 871 q 322 797 400 871 q 224 590 244 724 q 296 606 260 603 q 394 603 339 611 q 497 576 450 594 m 521 115 q 722 189 644 115 q 819 396 799 263 q 760 382 789 386 q 701 381 731 378 q 626 397 671 383 q 504 438 581 410 q 403 464 454 456 q 315 468 353 472 q 219 439 263 461 q 310 200 231 285 q 521 115 390 115 z "},"Ѵ":{"ha":1026,"x_min":28,"x_max":999,"o":"m 385 0 l 28 986 l 188 986 l 478 168 l 700 796 q 794 935 731 885 q 938 986 857 986 l 999 986 l 999 849 l 976 849 q 892 822 924 849 q 835 726 860 794 l 571 0 l 385 0 z "},"Җ":{"ha":1388,"x_min":19,"x_max":1375,"o":"m 19 0 l 417 493 l 33 986 l 229 986 l 593 519 l 593 986 l 743 986 l 743 519 l 1106 986 l 1301 986 l 918 493 l 1228 108 l 1375 108 l 1375 -208 l 1225 -208 l 1225 0 l 1119 0 l 743 468 l 743 0 l 593 0 l 593 468 l 215 0 l 19 0 z "},"Қ":{"ha":947,"x_min":119,"x_max":928,"o":"m 119 0 l 119 986 l 269 986 l 269 504 l 686 986 l 875 986 l 449 493 l 792 108 l 928 108 l 928 -208 l 778 -208 l 778 0 l 700 0 l 269 482 l 269 0 l 119 0 z "},"Ң":{"ha":1060,"x_min":119,"x_max":968,"o":"m 119 0 l 119 986 l 269 986 l 269 564 l 725 564 l 725 986 l 875 986 l 875 108 l 968 108 l 968 -208 l 818 -208 l 818 0 l 725 0 l 725 428 l 269 428 l 269 0 l 119 0 z "},"Ү":{"ha":825,"x_min":-8,"x_max":835,"o":"m 338 0 l 338 396 l -8 986 l 164 986 l 413 546 l 663 986 l 835 986 l 488 396 l 488 0 l 338 0 z "},"Ұ":{"ha":915,"x_min":1,"x_max":844,"o":"m 160 299 l 160 435 l 325 435 l 1 986 l 174 986 l 424 546 l 672 986 l 844 986 l 521 435 l 765 435 l 765 299 l 499 299 l 499 0 l 349 0 l 349 299 l 160 299 z "},"Ҳ":{"ha":954,"x_min":19,"x_max":935,"o":"m 19 0 l 347 494 l 22 986 l 199 986 l 442 611 l 681 986 l 856 986 l 531 497 l 789 108 l 935 108 l 935 -208 l 785 -208 l 785 0 l 683 0 l 439 381 l 194 0 l 19 0 z "},"Ҷ":{"ha":996,"x_min":54,"x_max":904,"o":"m 646 0 l 646 464 q 540 367 611 404 q 378 331 468 331 q 138 415 222 331 q 54 644 54 500 l 54 986 l 204 986 l 204 661 q 252 518 204 569 q 396 467 300 467 q 576 521 507 467 q 646 663 646 575 l 646 986 l 796 986 l 796 108 l 904 108 l 904 -208 l 754 -208 l 754 0 l 646 0 z "},"Һ":{"ha":915,"x_min":119,"x_max":861,"o":"m 269 986 l 269 522 q 375 619 304 582 q 538 656 446 656 q 777 571 693 656 q 861 342 861 486 l 861 0 l 711 0 l 711 325 q 663 468 711 417 q 519 519 614 519 q 338 465 407 519 q 269 324 269 411 l 269 0 l 119 0 l 119 986 l 269 986 z "},"Ӏ":{"ha":389,"x_min":119,"x_max":269,"o":"m 119 0 l 119 986 l 269 986 l 269 0 l 119 0 z "},"Ә":{"ha":1011,"x_min":61,"x_max":950,"o":"m 950 493 q 890 213 950 328 q 728 38 831 99 q 494 -22 625 -22 q 332 9 410 -22 q 193 103 254 40 q 97 259 132 165 q 61 476 61 353 l 61 549 l 793 549 q 744 724 785 651 q 638 833 703 796 q 494 871 572 871 q 349 826 414 871 q 249 692 285 781 l 90 704 q 242 926 135 844 q 494 1008 349 1008 q 734 946 632 1008 q 893 768 836 883 q 950 493 950 653 m 496 115 q 696 192 614 115 q 792 415 778 268 l 222 415 q 312 191 240 267 q 496 115 383 115 z "},"Ӣ":{"ha":1029,"x_min":114,"x_max":910,"o":"m 910 0 l 760 0 l 760 786 l 311 0 l 114 0 l 114 986 l 264 986 l 264 182 l 719 986 l 910 986 l 910 0 m 303 1107 l 303 1225 l 689 1225 l 689 1107 l 303 1107 z "},"Ө":{"ha":1043,"x_min":61,"x_max":982,"o":"m 521 -22 q 275 40 378 -22 q 117 217 172 101 q 61 492 61 332 q 117 767 61 651 q 275 946 172 883 q 521 1008 378 1008 q 769 946 665 1008 q 927 767 872 883 q 982 492 982 651 q 927 217 982 332 q 769 40 872 101 q 521 -22 665 -22 m 521 871 q 315 790 393 871 q 221 561 236 708 l 822 561 q 728 790 807 708 q 521 871 650 871 m 521 115 q 729 197 650 115 q 824 425 808 278 l 221 425 q 314 197 235 278 q 521 115 393 115 z "},"Ӯ":{"ha":783,"x_min":28,"x_max":756,"o":"m 126 0 l 126 135 l 239 135 q 314 186 296 135 l 347 272 l 296 272 l 28 986 l 186 986 l 394 406 l 597 986 l 756 986 l 446 122 q 268 0 401 0 l 126 0 m 200 1107 l 200 1225 l 586 1225 l 586 1107 l 200 1107 z "},"а":{"ha":785,"x_min":58,"x_max":761,"o":"m 311 -17 q 127 36 196 -17 q 58 185 58 89 q 116 333 58 279 q 294 411 174 388 l 549 460 q 389 631 549 631 q 278 599 318 631 q 222 507 238 567 l 71 517 q 174 692 92 628 q 389 756 257 756 q 617 676 539 756 q 696 451 696 596 l 696 164 q 705 127 696 138 q 735 117 714 117 l 761 117 l 761 0 q 707 -4 742 -4 q 607 22 644 -4 q 561 114 569 49 q 465 19 533 56 q 311 -17 397 -17 m 335 100 q 492 157 435 100 q 549 301 549 214 l 549 349 l 332 307 q 238 267 265 294 q 211 199 211 240 q 244 126 211 151 q 335 100 276 100 z "},"б":{"ha":844,"x_min":61,"x_max":783,"o":"m 424 -22 q 286 4 354 -22 q 164 92 218 31 q 87 235 113 146 q 61 436 61 324 q 87 660 61 571 q 169 809 113 750 q 315 907 225 868 q 410 970 385 939 q 435 1060 435 1001 l 574 1061 q 539 914 574 975 q 417 813 504 853 q 313 757 358 785 q 238 681 267 729 q 203 544 208 633 q 304 641 242 607 q 444 675 367 675 q 622 631 546 675 q 741 510 699 588 q 783 329 783 432 q 738 142 783 221 q 612 21 693 64 q 424 -22 531 -22 m 426 106 q 574 168 517 106 q 631 329 631 231 q 576 486 631 425 q 435 547 521 547 q 281 486 342 547 q 219 329 221 425 q 276 168 218 231 q 426 106 333 106 z "},"в":{"ha":835,"x_min":104,"x_max":744,"o":"m 104 0 l 104 739 l 421 739 q 636 685 558 739 q 714 533 714 631 q 671 431 714 471 q 551 382 628 390 q 693 328 642 374 q 744 210 744 282 q 669 56 744 111 q 461 0 594 0 l 104 0 m 253 431 l 419 431 q 522 457 483 431 q 560 528 560 483 q 522 596 560 571 q 419 621 483 621 l 253 621 l 253 431 m 253 118 l 457 118 q 554 144 518 118 q 590 215 590 171 q 554 292 590 264 q 457 319 518 319 l 253 319 l 253 118 z "},"г":{"ha":679,"x_min":104,"x_max":636,"o":"m 104 0 l 104 739 l 636 739 l 636 618 l 251 618 l 251 0 l 104 0 z "},"ѓ":{"ha":679,"x_min":104,"x_max":636,"o":"m 104 0 l 104 739 l 636 739 l 636 618 l 251 618 l 251 0 l 104 0 m 304 828 l 392 1014 l 546 1014 l 421 828 l 304 828 z "},"ґ":{"ha":615,"x_min":104,"x_max":585,"o":"m 104 0 l 104 739 l 436 739 l 436 954 l 585 954 l 585 618 l 251 618 l 251 0 l 104 0 z "},"ғ":{"ha":747,"x_min":76,"x_max":689,"o":"m 157 0 l 157 307 l 76 307 l 76 426 l 157 426 l 157 739 l 689 739 l 689 618 l 304 618 l 304 426 l 521 426 l 521 307 l 304 307 l 304 0 l 157 0 z "},"д":{"ha":981,"x_min":54,"x_max":928,"o":"m 54 -208 l 54 119 l 115 119 q 183 152 158 119 q 218 253 208 185 l 285 739 l 808 739 l 808 119 l 928 119 l 928 -208 l 781 -208 l 781 0 l 201 0 l 201 -208 l 54 -208 m 358 243 q 315 119 347 167 l 661 119 l 661 618 l 410 618 l 358 243 z "},"е":{"ha":800,"x_min":58,"x_max":742,"o":"m 408 -17 q 222 31 300 -17 q 101 166 143 79 q 58 369 58 253 q 101 573 58 486 q 221 708 143 660 q 404 756 299 756 q 581 709 504 756 q 699 575 657 663 q 742 364 742 488 l 742 326 l 211 326 q 269 164 217 218 q 410 110 321 110 q 517 140 475 110 q 578 222 560 169 l 731 213 q 616 46 701 108 q 408 -17 531 -17 m 211 438 l 586 438 q 529 583 579 536 q 404 631 479 631 q 274 581 325 631 q 211 438 224 532 z "},"ѐ":{"ha":800,"x_min":58,"x_max":742,"o":"m 408 -17 q 222 31 300 -17 q 101 166 143 79 q 58 369 58 253 q 101 573 58 486 q 221 708 143 660 q 404 756 299 756 q 581 709 504 756 q 699 575 657 663 q 742 364 742 488 l 742 326 l 211 326 q 269 164 217 218 q 410 110 321 110 q 517 140 475 110 q 578 222 560 169 l 731 213 q 616 46 701 108 q 408 -17 531 -17 m 211 438 l 586 438 q 529 583 579 536 q 404 631 479 631 q 274 581 325 631 q 211 438 224 532 m 358 832 l 233 1019 l 388 1019 l 475 832 l 358 832 z "},"ё":{"ha":800,"x_min":58,"x_max":742,"o":"m 408 -17 q 222 31 300 -17 q 101 166 143 79 q 58 369 58 253 q 101 573 58 486 q 221 708 143 660 q 404 756 299 756 q 581 709 504 756 q 699 575 657 663 q 742 364 742 488 l 742 326 l 211 326 q 269 164 217 218 q 410 110 321 110 q 517 140 475 110 q 578 222 560 169 l 731 213 q 616 46 701 108 q 408 -17 531 -17 m 211 438 l 586 438 q 529 583 579 536 q 404 631 479 631 q 274 581 325 631 q 211 438 224 532 m 206 842 l 206 989 l 353 989 l 353 842 l 206 842 m 465 842 l 465 989 l 614 989 l 614 842 l 465 842 z "},"ж":{"ha":1256,"x_min":65,"x_max":1190,"o":"m 65 0 l 383 369 l 79 739 l 269 739 l 556 386 l 556 739 l 703 739 l 703 388 l 989 739 l 1176 739 l 872 369 l 1190 0 l 1003 0 l 703 353 l 703 0 l 556 0 l 556 353 l 256 0 l 65 0 z "},"з":{"ha":756,"x_min":56,"x_max":685,"o":"m 372 -17 q 147 45 232 -17 q 56 214 61 107 l 208 219 q 256 139 213 169 q 372 108 300 108 q 490 137 446 108 q 533 214 533 165 q 492 302 533 269 q 381 333 450 335 l 308 332 l 308 449 l 381 447 q 474 473 439 446 q 508 547 508 500 q 471 615 508 590 q 371 640 433 640 q 277 617 313 640 q 236 553 242 593 l 82 560 q 170 703 92 650 q 372 756 249 756 q 583 700 506 756 q 661 547 661 644 q 620 455 661 494 q 507 397 579 415 q 638 323 590 375 q 685 201 685 271 q 601 42 685 100 q 372 -17 517 -17 z "},"и":{"ha":807,"x_min":104,"x_max":701,"o":"m 104 0 l 104 739 l 251 739 l 251 219 l 546 739 l 701 739 l 701 0 l 554 0 l 554 507 l 268 0 l 104 0 z "},"й":{"ha":807,"x_min":104,"x_max":701,"o":"m 104 0 l 104 739 l 251 739 l 251 219 l 546 739 l 701 739 l 701 0 l 554 0 l 554 507 l 268 0 l 104 0 m 397 832 q 254 882 308 832 q 196 1019 200 932 l 289 1019 q 323 949 294 971 q 397 928 351 928 q 471 949 443 928 q 504 1019 499 971 l 599 1019 q 540 882 594 932 q 397 832 486 832 z "},"ѝ":{"ha":807,"x_min":104,"x_max":701,"o":"m 104 0 l 104 739 l 251 739 l 251 219 l 546 739 l 701 739 l 701 0 l 554 0 l 554 507 l 268 0 l 104 0 m 349 835 l 224 1022 l 378 1022 l 465 835 l 349 835 z "},"к":{"ha":850,"x_min":104,"x_max":785,"o":"m 104 0 l 104 739 l 254 739 l 254 381 l 578 739 l 768 739 l 428 369 l 785 0 l 592 0 l 254 358 l 254 0 l 104 0 z "},"ќ":{"ha":850,"x_min":104,"x_max":785,"o":"m 104 0 l 104 739 l 254 739 l 254 381 l 578 739 l 768 739 l 428 369 l 785 0 l 592 0 l 254 358 l 254 0 l 104 0 m 350 828 l 438 1014 l 592 1014 l 467 828 l 350 828 z "},"л":{"ha":940,"x_min":76,"x_max":836,"o":"m 76 0 l 76 132 l 136 132 q 217 232 207 132 l 272 739 l 836 739 l 836 0 l 689 0 l 689 618 l 406 618 l 363 206 q 178 0 342 0 l 76 0 z "},"м":{"ha":1013,"x_min":104,"x_max":907,"o":"m 104 0 l 104 739 l 294 739 l 507 144 l 719 739 l 907 739 l 907 0 l 760 0 l 760 482 l 579 0 l 433 0 l 251 482 l 251 0 l 104 0 z "},"н":{"ha":814,"x_min":104,"x_max":710,"o":"m 104 0 l 104 739 l 251 739 l 251 428 l 563 428 l 563 739 l 710 739 l 710 0 l 563 0 l 563 308 l 251 308 l 251 0 l 104 0 z "},"о":{"ha":817,"x_min":58,"x_max":758,"o":"m 408 -17 q 224 31 303 -17 q 101 165 144 79 q 58 369 58 251 q 101 574 58 488 q 224 708 144 660 q 408 756 303 756 q 593 708 514 756 q 715 574 672 660 q 758 369 758 488 q 715 165 758 251 q 593 31 672 79 q 408 -17 514 -17 m 408 111 q 554 179 503 111 q 606 369 606 247 q 554 559 606 490 q 408 628 503 628 q 263 559 315 628 q 211 369 211 490 q 263 179 211 247 q 408 111 315 111 z "},"п":{"ha":821,"x_min":104,"x_max":717,"o":"m 104 0 l 104 739 l 717 739 l 717 0 l 569 0 l 569 618 l 251 618 l 251 0 l 104 0 z "},"р":{"ha":844,"x_min":104,"x_max":786,"o":"m 104 -208 l 104 739 l 243 739 l 246 626 q 337 723 278 690 q 469 756 396 756 q 648 702 578 756 q 752 561 718 649 q 786 369 786 474 q 752 178 786 265 q 648 37 718 90 q 469 -17 578 -17 q 340 15 399 -17 q 251 100 282 46 l 251 -208 l 104 -208 m 443 111 q 583 179 532 111 q 633 369 633 247 q 583 560 633 492 q 443 628 532 628 q 303 563 354 628 q 251 369 251 497 q 303 176 251 242 q 443 111 354 111 z "},"с":{"ha":782,"x_min":58,"x_max":739,"o":"m 408 -17 q 224 31 303 -17 q 101 166 144 79 q 58 369 58 253 q 101 573 58 486 q 224 708 144 660 q 408 756 303 756 q 632 685 543 756 q 739 488 721 615 l 585 479 q 526 590 574 551 q 408 628 479 628 q 263 559 315 628 q 211 369 211 490 q 263 179 211 247 q 408 111 315 111 q 526 151 479 111 q 585 271 574 190 l 739 263 q 633 59 721 135 q 408 -17 544 -17 z "},"т":{"ha":788,"x_min":61,"x_max":731,"o":"m 322 0 l 322 618 l 61 618 l 61 739 l 731 739 l 731 618 l 471 618 l 471 0 l 322 0 z "},"у":{"ha":768,"x_min":31,"x_max":739,"o":"m 146 -208 l 146 -87 l 236 -87 q 292 -76 274 -87 q 319 -39 310 -65 l 343 22 l 297 22 l 31 739 l 186 739 l 389 158 l 582 739 l 739 739 l 444 -86 q 378 -179 422 -150 q 257 -208 335 -208 l 146 -208 z "},"ў":{"ha":768,"x_min":31,"x_max":739,"o":"m 146 -208 l 146 -87 l 236 -87 q 292 -76 274 -87 q 319 -39 310 -65 l 343 22 l 297 22 l 31 739 l 186 739 l 389 158 l 582 739 l 739 739 l 444 -86 q 378 -179 422 -150 q 257 -208 335 -208 l 146 -208 m 379 832 q 236 882 290 832 q 178 1019 182 932 l 271 1019 q 305 949 276 971 q 379 928 333 928 q 453 949 425 928 q 486 1019 481 971 l 581 1019 q 522 882 576 932 q 379 832 468 832 z "},"ф":{"ha":928,"x_min":58,"x_max":871,"o":"m 394 -210 l 394 38 q 217 94 293 49 q 100 210 142 139 q 58 374 58 282 q 100 537 58 465 q 217 653 142 608 q 394 710 293 699 l 394 986 l 536 986 l 536 710 q 713 652 638 697 q 829 536 788 607 q 871 374 871 465 q 829 211 871 282 q 713 95 788 140 q 536 38 638 50 l 536 -210 l 394 -210 m 211 374 q 260 240 211 293 q 394 171 308 186 l 394 576 q 260 507 308 560 q 211 374 211 454 m 717 374 q 669 507 717 454 q 536 575 621 560 l 536 172 q 669 240 621 188 q 717 374 717 293 z "},"х":{"ha":843,"x_min":65,"x_max":778,"o":"m 65 0 l 333 378 l 76 739 l 240 739 l 422 474 l 599 739 l 767 739 l 513 375 l 778 0 l 614 0 l 424 282 l 232 0 l 65 0 z "},"ц":{"ha":935,"x_min":104,"x_max":844,"o":"m 696 -210 l 696 0 l 104 0 l 104 739 l 251 739 l 251 121 l 569 121 l 569 739 l 717 739 l 717 119 l 844 119 l 844 -210 l 696 -210 z "},"ч":{"ha":857,"x_min":104,"x_max":753,"o":"m 604 0 l 604 350 q 518 256 576 292 q 386 221 460 221 q 181 306 257 221 q 104 535 104 390 l 104 739 l 251 739 l 251 551 q 293 403 251 458 q 406 349 335 349 q 551 403 497 349 q 604 553 604 458 l 604 739 l 753 739 l 753 0 l 604 0 z "},"ш":{"ha":1133,"x_min":104,"x_max":1029,"o":"m 104 0 l 104 739 l 251 739 l 251 119 l 494 119 l 494 739 l 640 739 l 640 119 l 882 119 l 882 739 l 1029 739 l 1029 0 l 104 0 z "},"щ":{"ha":1239,"x_min":104,"x_max":1163,"o":"m 104 0 l 104 739 l 251 739 l 251 119 l 494 119 l 494 739 l 640 739 l 640 119 l 882 119 l 882 739 l 1029 739 l 1029 119 l 1163 119 l 1163 -210 l 1014 -210 l 1014 0 l 104 0 z "},"џ":{"ha":821,"x_min":104,"x_max":717,"o":"m 336 -210 l 336 0 l 104 0 l 104 739 l 251 739 l 251 121 l 569 121 l 569 739 l 717 739 l 717 0 l 483 0 l 483 -210 l 336 -210 z "},"ь":{"ha":819,"x_min":104,"x_max":761,"o":"m 104 0 l 104 739 l 251 739 l 251 469 l 432 469 q 676 408 592 469 q 761 233 761 347 q 676 60 761 119 q 432 0 592 0 l 104 0 m 251 118 l 425 118 q 608 233 608 118 q 425 351 608 351 l 251 351 l 251 118 z "},"ы":{"ha":1139,"x_min":104,"x_max":1033,"o":"m 886 0 l 886 739 l 1033 739 l 1033 0 l 886 0 m 104 0 l 104 739 l 251 739 l 251 469 l 432 469 q 676 408 592 469 q 761 233 761 347 q 676 60 761 119 q 432 0 592 0 l 104 0 m 251 118 l 425 118 q 608 233 608 118 q 425 351 608 351 l 251 351 l 251 118 z "},"ъ":{"ha":908,"x_min":76,"x_max":851,"o":"m 194 0 l 194 618 l 76 618 l 76 739 l 342 739 l 342 469 l 521 469 q 767 408 682 469 q 851 233 851 347 q 767 60 851 119 q 521 0 682 0 l 194 0 m 342 118 l 515 118 q 699 233 699 118 q 515 351 699 351 l 342 351 l 342 118 z "},"љ":{"ha":1404,"x_min":76,"x_max":1346,"o":"m 689 0 l 689 739 l 836 739 l 836 469 l 1017 469 q 1261 408 1176 469 q 1346 233 1346 347 q 1261 60 1346 119 q 1017 0 1176 0 l 689 0 m 836 118 l 1010 118 q 1193 233 1193 118 q 1010 351 1193 351 l 836 351 l 836 118 m 76 0 l 76 132 l 136 132 q 217 232 207 132 l 272 739 l 836 739 l 836 0 l 689 0 l 689 618 l 406 618 l 363 206 q 178 0 342 0 l 76 0 z "},"њ":{"ha":1276,"x_min":104,"x_max":1219,"o":"m 104 0 l 104 739 l 251 739 l 251 469 l 561 469 l 561 739 l 708 739 l 708 469 l 889 469 q 1134 408 1049 469 q 1219 233 1219 347 q 1134 60 1219 119 q 889 0 1049 0 l 561 0 l 561 349 l 251 349 l 251 0 l 104 0 m 708 118 l 883 118 q 1067 233 1067 118 q 883 351 1067 351 l 708 351 l 708 118 z "},"ѕ":{"ha":750,"x_min":58,"x_max":692,"o":"m 389 -17 q 150 53 233 -17 q 58 233 67 124 l 210 240 q 262 143 219 179 q 389 107 304 107 q 499 129 458 107 q 539 200 539 151 q 526 245 539 226 q 475 277 513 264 q 364 303 438 290 q 191 351 254 322 q 102 423 128 381 q 76 526 76 465 q 152 691 76 626 q 371 756 228 756 q 531 723 467 756 q 633 635 596 690 q 681 513 671 581 l 529 504 q 479 597 519 561 q 369 632 439 632 q 264 604 299 632 q 229 532 229 576 q 266 459 229 483 q 393 421 303 435 q 574 374 508 401 q 665 303 639 346 q 692 201 692 261 q 653 83 692 132 q 546 9 614 35 q 389 -17 478 -17 z "},"є":{"ha":806,"x_min":58,"x_max":747,"o":"m 408 -17 q 224 31 303 -17 q 101 165 144 79 q 58 369 58 251 q 101 574 58 488 q 224 708 144 660 q 408 756 303 756 q 630 681 540 756 q 747 476 719 607 l 592 476 q 525 588 572 549 q 408 628 478 628 q 276 575 326 628 q 214 426 225 522 l 439 426 l 439 313 l 214 313 q 276 164 225 217 q 408 111 326 111 q 524 149 476 111 q 590 258 571 188 l 746 258 q 628 56 718 129 q 408 -17 539 -17 z "},"э":{"ha":806,"x_min":58,"x_max":747,"o":"m 396 -17 q 177 56 267 -17 q 60 258 88 129 l 215 258 q 281 149 235 188 q 396 111 328 111 q 529 164 479 111 q 592 313 579 217 l 365 313 l 365 426 l 592 426 q 529 575 579 522 q 396 628 479 628 q 280 588 326 628 q 214 476 233 549 l 58 476 q 176 681 86 607 q 396 756 265 756 q 581 708 503 756 q 703 574 660 660 q 747 369 747 488 q 703 165 747 251 q 581 31 660 79 q 396 -17 503 -17 z "},"і":{"ha":356,"x_min":101,"x_max":254,"o":"m 104 0 l 104 739 l 251 739 l 251 0 l 104 0 m 101 846 l 101 993 l 254 993 l 254 846 l 101 846 z "},"ї":{"ha":356,"x_min":-25,"x_max":383,"o":"m 104 0 l 104 739 l 251 739 l 251 0 l 104 0 m -25 844 l -25 992 l 122 992 l 122 844 l -25 844 m 235 844 l 235 992 l 383 992 l 383 844 l 235 844 z "},"ј":{"ha":394,"x_min":-6,"x_max":293,"o":"m -6 -208 l -6 -87 l 61 -87 q 120 -71 99 -87 q 142 -7 142 -54 l 142 739 l 290 739 l 290 -12 q 242 -164 290 -119 q 83 -208 194 -208 l -6 -208 m 140 846 l 140 993 l 293 993 l 293 846 l 140 846 z "},"ћ":{"ha":821,"x_min":8,"x_max":717,"o":"m 104 0 l 104 986 l 251 986 l 251 632 q 338 726 281 696 q 468 756 396 756 q 653 677 589 756 q 717 475 717 599 l 717 0 l 569 0 l 569 436 q 429 632 569 632 q 299 581 347 632 q 251 433 251 531 l 251 0 l 104 0 m 8 806 l 8 910 l 447 910 l 447 806 l 8 806 z "},"ю":{"ha":1122,"x_min":104,"x_max":1065,"o":"m 104 0 l 104 739 l 251 739 l 251 429 l 367 429 q 476 667 383 579 q 715 756 569 756 q 899 708 821 756 q 1022 574 978 660 q 1065 369 1065 488 q 1022 165 1065 251 q 899 31 978 79 q 715 -17 821 -17 q 476 72 569 -17 q 367 310 383 160 l 251 310 l 251 0 l 104 0 m 715 111 q 860 179 808 111 q 913 369 913 247 q 860 559 913 490 q 715 628 808 628 q 569 559 621 628 q 517 369 517 490 q 569 179 517 247 q 715 111 621 111 z "},"я":{"ha":835,"x_min":104,"x_max":731,"o":"m 104 0 l 282 304 q 163 388 206 335 q 121 513 121 442 q 200 681 121 622 q 428 739 279 739 l 731 739 l 731 0 l 583 0 l 583 279 l 429 279 l 267 0 l 104 0 m 428 396 l 583 396 l 583 622 l 428 622 q 315 593 354 622 q 275 510 275 564 q 315 426 275 456 q 428 396 354 396 z "},"ђ":{"ha":872,"x_min":76,"x_max":768,"o":"m 156 0 l 156 810 l 76 810 l 76 918 l 156 918 l 156 990 l 303 990 l 303 918 l 461 918 l 461 810 l 303 810 l 303 639 q 393 728 335 700 q 519 756 451 756 q 701 679 635 756 q 768 475 768 603 l 768 10 q 717 -151 768 -93 q 561 -208 665 -208 l 485 -208 l 485 -87 l 539 -87 q 599 -61 576 -87 q 621 10 621 -35 l 621 422 q 586 574 621 524 q 478 625 551 625 q 350 573 397 625 q 303 422 303 521 l 303 0 l 156 0 z "},"ѣ":{"ha":949,"x_min":76,"x_max":892,"o":"m 233 0 l 233 738 l 76 738 l 76 856 l 233 856 l 233 990 l 381 990 l 381 856 l 538 856 l 538 738 l 381 738 l 381 497 l 561 497 q 806 432 719 497 q 892 247 892 367 q 806 64 892 128 q 561 0 719 0 l 233 0 m 381 118 l 556 118 q 690 151 643 118 q 738 247 738 183 q 690 344 738 310 q 556 379 643 379 l 381 379 l 381 118 z "},"ѫ":{"ha":1003,"x_min":65,"x_max":939,"o":"m 65 0 l 196 290 q 257 366 217 339 q 346 399 297 393 l 133 621 l 133 739 l 872 739 l 872 621 l 658 399 q 747 365 707 393 q 808 290 788 338 l 939 0 l 781 0 l 682 240 q 647 288 668 275 q 592 300 626 300 l 574 300 l 574 0 l 429 0 l 429 300 l 411 300 q 356 288 376 300 q 322 240 336 275 l 222 0 l 65 0 m 293 621 l 503 403 l 713 621 l 293 621 z "},"ѳ":{"ha":817,"x_min":58,"x_max":758,"o":"m 408 -17 q 224 31 303 -17 q 101 165 144 79 q 58 369 58 251 q 101 574 58 488 q 224 708 144 660 q 408 756 303 756 q 593 708 514 756 q 715 574 672 660 q 758 369 758 488 q 715 165 758 251 q 593 31 672 79 q 408 -17 514 -17 m 394 436 q 491 394 457 407 q 546 381 525 382 q 590 381 567 379 q 606 382 599 381 q 551 563 603 499 q 408 628 500 628 q 286 584 335 628 q 219 461 238 540 q 232 463 226 463 q 310 460 267 467 q 394 436 354 454 m 408 111 q 526 150 479 111 q 593 261 574 189 q 550 264 572 261 q 494 278 528 267 q 403 315 460 290 q 321 341 361 335 q 249 346 281 347 q 213 338 231 344 q 270 171 219 231 q 408 111 321 111 z "},"ѵ":{"ha":840,"x_min":31,"x_max":810,"o":"m 300 0 l 31 739 l 185 739 l 389 151 l 529 558 q 622 692 560 646 q 769 739 685 739 l 810 739 l 810 618 l 796 618 q 667 518 704 618 l 478 0 l 300 0 z "},"җ":{"ha":1269,"x_min":65,"x_max":1204,"o":"m 65 0 l 383 369 l 79 739 l 269 739 l 556 386 l 556 739 l 703 739 l 703 388 l 989 739 l 1176 739 l 872 369 l 1101 103 l 1204 103 l 1204 -210 l 1057 -210 l 1057 0 l 1003 0 l 703 353 l 703 0 l 556 0 l 556 353 l 256 0 l 65 0 z "},"қ":{"ha":871,"x_min":104,"x_max":806,"o":"m 104 0 l 104 739 l 254 739 l 254 381 l 578 739 l 768 739 l 428 369 l 686 103 l 806 103 l 806 -210 l 658 -210 l 658 0 l 592 0 l 254 358 l 254 0 l 104 0 z "},"ң":{"ha":929,"x_min":104,"x_max":825,"o":"m 104 0 l 104 739 l 251 739 l 251 428 l 563 428 l 563 739 l 710 739 l 710 103 l 825 103 l 825 -210 l 678 -210 l 678 0 l 563 0 l 563 308 l 251 308 l 251 0 l 104 0 z "},"ү":{"ha":778,"x_min":31,"x_max":749,"o":"m 315 0 l 31 739 l 185 739 l 389 165 l 593 739 l 749 739 l 463 0 l 463 -208 l 315 -208 l 315 0 z "},"ұ":{"ha":778,"x_min":31,"x_max":749,"o":"m 153 -60 l 153 60 l 292 60 l 31 739 l 185 739 l 389 165 l 593 739 l 749 739 l 486 60 l 626 60 l 626 -60 l 463 -60 l 463 -208 l 315 -208 l 315 -60 l 153 -60 z "},"ҳ":{"ha":892,"x_min":65,"x_max":826,"o":"m 65 0 l 333 378 l 76 739 l 240 739 l 422 474 l 599 739 l 767 739 l 513 375 l 704 103 l 826 103 l 826 -210 l 679 -210 l 679 0 l 614 0 l 424 282 l 232 0 l 65 0 z "},"ҷ":{"ha":949,"x_min":104,"x_max":865,"o":"m 604 0 l 604 350 q 518 256 576 292 q 386 221 460 221 q 181 306 257 221 q 104 535 104 390 l 104 739 l 251 739 l 251 551 q 293 403 251 458 q 406 349 335 349 q 551 403 497 349 q 604 553 604 458 l 604 739 l 753 739 l 753 103 l 865 103 l 865 -208 l 718 -208 l 718 0 l 604 0 z "},"һ":{"ha":821,"x_min":104,"x_max":717,"o":"m 104 0 l 104 986 l 251 986 l 251 632 q 338 726 281 696 q 468 756 396 756 q 653 677 589 756 q 717 475 717 599 l 717 0 l 569 0 l 569 436 q 429 632 569 632 q 299 581 347 632 q 251 433 251 531 l 251 0 l 104 0 z "},"ӏ":{"ha":386,"x_min":119,"x_max":267,"o":"m 119 0 l 119 986 l 267 986 l 267 0 l 119 0 z "},"ә":{"ha":800,"x_min":58,"x_max":742,"o":"m 392 756 q 578 708 499 756 q 699 573 657 660 q 742 369 742 486 q 699 166 742 253 q 579 31 657 79 q 396 -17 501 -17 q 219 29 296 -17 q 101 163 143 75 q 58 375 58 251 l 58 413 l 589 413 q 531 575 583 521 q 390 629 479 629 q 282 599 325 629 q 222 517 239 569 l 68 526 q 184 693 99 631 q 392 756 269 756 m 589 301 l 214 301 q 271 156 221 203 q 396 108 321 108 q 526 158 475 108 q 589 301 576 207 z "},"ӣ":{"ha":807,"x_min":104,"x_max":701,"o":"m 104 0 l 104 739 l 251 739 l 251 219 l 546 739 l 701 739 l 701 0 l 554 0 l 554 507 l 268 0 l 104 0 m 211 860 l 211 978 l 597 978 l 597 860 l 211 860 z "},"ө":{"ha":821,"x_min":54,"x_max":756,"o":"m 406 -17 q 220 31 299 -17 q 98 165 142 79 q 54 369 54 251 q 98 574 54 488 q 220 708 142 660 q 406 756 299 756 q 590 708 511 756 q 712 574 668 660 q 756 369 756 488 q 712 165 756 251 q 590 31 668 79 q 406 -17 511 -17 m 406 628 q 274 576 324 628 q 211 429 224 524 l 599 429 q 536 576 586 524 q 406 628 486 628 m 406 111 q 536 163 486 111 q 599 310 586 215 l 211 310 q 274 163 224 215 q 406 111 324 111 z "},"ӯ":{"ha":768,"x_min":31,"x_max":739,"o":"m 146 -208 l 146 -87 l 236 -87 q 292 -76 274 -87 q 319 -39 310 -65 l 343 22 l 297 22 l 31 739 l 186 739 l 389 158 l 582 739 l 739 739 l 444 -86 q 378 -179 422 -150 q 257 -208 335 -208 l 146 -208 m 190 860 l 190 978 l 576 978 l 576 860 l 190 860 z "},"Λ":{"ha":953,"x_min":28,"x_max":925,"o":"m 28 0 l 383 986 l 569 986 l 925 0 l 767 0 l 476 843 l 185 0 l 28 0 z "},"Ω":{"ha":1032,"x_min":61,"x_max":971,"o":"m 64 0 l 64 138 l 254 136 q 113 289 165 190 q 61 519 61 388 q 117 774 61 664 q 274 947 172 885 q 515 1008 376 1008 q 758 947 656 1008 q 915 774 860 885 q 971 519 971 664 q 919 289 971 388 q 779 136 867 190 l 969 138 l 969 0 l 581 0 l 581 138 q 701 188 647 139 q 785 321 754 238 q 817 506 817 404 q 738 774 817 676 q 515 871 660 871 q 295 774 374 871 q 217 506 217 676 q 248 321 217 404 q 332 188 279 238 q 450 138 385 139 l 450 0 l 64 0 z "},"λ":{"ha":824,"x_min":28,"x_max":796,"o":"m 28 0 l 313 703 l 279 783 q 245 846 263 825 q 189 867 228 867 l 115 867 l 115 986 l 203 986 q 338 940 290 986 q 425 796 386 894 l 661 201 q 693 141 676 163 q 747 119 710 119 l 796 119 l 796 0 l 729 0 q 635 19 672 0 q 570 81 597 39 q 515 190 543 122 l 386 517 l 181 0 l 28 0 z "},"π":{"ha":917,"x_min":69,"x_max":872,"o":"m 217 0 l 217 618 l 69 618 l 69 739 l 872 739 l 872 618 l 732 618 l 732 217 q 756 147 732 172 q 825 121 781 121 l 869 121 l 869 0 l 822 0 q 651 58 704 0 q 597 217 597 117 l 597 618 l 351 618 l 351 0 l 217 0 z "},"ℇ":{"ha":825,"x_min":54,"x_max":772,"o":"m 413 -22 q 224 15 306 -22 q 99 119 143 53 q 54 272 54 186 q 108 435 54 368 q 264 531 161 503 q 88 750 88 583 q 128 885 88 826 q 242 976 169 943 q 413 1008 315 1008 q 596 970 506 1008 q 742 871 686 932 l 653 763 q 543 849 610 815 q 415 883 476 883 q 278 846 329 883 q 228 744 228 808 q 256 650 228 686 q 328 598 285 614 q 415 582 371 582 l 486 583 l 486 461 l 415 463 q 254 416 314 465 q 194 283 194 367 q 254 153 194 203 q 415 103 314 103 q 561 140 485 103 q 688 238 638 176 l 772 126 q 678 49 736 82 q 551 -3 621 15 q 413 -22 482 -22 z "},"⓿":{"ha":1140,"x_min":58,"x_max":1083,"o":"m 571 -17 q 371 23 464 -17 q 208 133 278 63 q 98 297 138 204 q 58 497 58 390 q 98 695 58 603 q 208 858 138 788 q 371 969 278 929 q 571 1008 464 1008 q 769 969 676 1008 q 933 858 863 929 q 1043 695 1003 788 q 1083 497 1083 603 q 1043 297 1083 390 q 933 133 1003 204 q 769 23 863 63 q 571 -17 676 -17 m 574 211 q 738 286 676 211 q 799 492 799 361 q 738 697 799 622 q 574 771 678 771 q 410 697 471 771 q 349 492 349 622 q 410 286 349 361 q 574 211 471 211 m 471 393 q 456 492 456 435 q 574 679 456 679 q 633 663 608 679 l 471 393 m 574 303 q 515 324 540 303 l 679 593 q 692 492 692 550 q 574 303 692 303 z "},"❶":{"ha":1140,"x_min":58,"x_max":1083,"o":"m 571 -17 q 371 23 464 -17 q 208 133 278 63 q 98 297 138 204 q 58 497 58 390 q 98 695 58 603 q 208 858 138 788 q 371 969 278 929 q 571 1008 464 1008 q 769 969 676 1008 q 933 858 863 929 q 1043 695 1003 788 q 1083 497 1083 603 q 1043 297 1083 390 q 933 133 1003 204 q 769 23 863 63 q 571 -17 676 -17 m 547 222 l 654 222 l 654 761 l 571 761 q 539 672 571 704 q 446 640 507 640 l 411 640 l 411 560 l 547 561 l 547 222 z "},"❷":{"ha":1140,"x_min":58,"x_max":1083,"o":"m 571 -17 q 371 23 464 -17 q 208 133 278 63 q 98 297 138 204 q 58 497 58 390 q 98 695 58 603 q 208 858 138 788 q 371 969 278 929 q 571 1008 464 1008 q 769 969 676 1008 q 933 858 863 929 q 1043 695 1003 788 q 1083 497 1083 603 q 1043 297 1083 390 q 933 133 1003 204 q 769 23 863 63 q 571 -17 676 -17 m 386 222 l 765 222 l 765 314 l 503 314 q 519 362 503 338 q 576 408 536 386 l 636 439 q 732 509 697 471 q 767 613 767 547 q 719 726 767 682 q 585 771 672 771 q 445 724 496 771 q 386 594 394 676 l 486 590 q 586 682 499 682 q 642 663 619 682 q 664 611 664 644 q 649 556 664 575 q 597 517 635 538 l 526 479 q 436 412 467 447 q 396 331 406 376 q 386 222 386 286 z "},"❸":{"ha":1140,"x_min":58,"x_max":1083,"o":"m 571 -17 q 371 23 464 -17 q 208 133 278 63 q 98 297 138 204 q 58 497 58 390 q 98 695 58 603 q 208 858 138 788 q 371 969 278 929 q 571 1008 464 1008 q 769 969 676 1008 q 933 858 863 929 q 1043 695 1003 788 q 1083 497 1083 603 q 1043 297 1083 390 q 933 133 1003 204 q 769 23 863 63 q 571 -17 676 -17 m 578 211 q 726 256 669 211 q 782 375 782 300 q 755 458 782 422 q 661 508 728 493 q 732 549 707 521 q 757 625 757 576 q 711 731 757 690 q 571 771 665 771 q 435 729 482 771 q 381 622 389 688 l 485 615 q 509 663 488 644 q 571 681 531 681 q 632 661 613 681 q 651 611 651 642 q 629 561 651 578 q 571 544 607 544 l 533 544 l 533 460 l 571 460 q 651 438 625 460 q 676 379 676 415 q 651 321 676 342 q 578 300 625 300 q 503 319 526 300 q 478 369 481 339 l 372 365 q 421 253 378 294 q 578 211 464 211 z "},"❹":{"ha":1140,"x_min":58,"x_max":1083,"o":"m 571 -17 q 371 23 464 -17 q 208 133 278 63 q 98 297 138 204 q 58 497 58 390 q 98 695 58 603 q 208 858 138 788 q 371 969 278 929 q 571 1008 464 1008 q 769 969 676 1008 q 933 858 863 929 q 1043 695 1003 788 q 1083 497 1083 603 q 1043 297 1083 390 q 933 133 1003 204 q 769 23 863 63 q 571 -17 676 -17 m 588 222 l 693 222 l 693 340 l 767 340 l 767 431 l 693 431 l 693 760 l 586 760 l 336 421 l 336 340 l 588 340 l 588 222 m 443 431 l 588 617 l 588 431 l 443 431 z "},"❺":{"ha":1140,"x_min":58,"x_max":1083,"o":"m 571 -17 q 371 23 464 -17 q 208 133 278 63 q 98 297 138 204 q 58 497 58 390 q 98 695 58 603 q 208 858 138 788 q 371 969 278 929 q 571 1008 464 1008 q 769 969 676 1008 q 933 858 863 929 q 1043 695 1003 788 q 1083 497 1083 603 q 1043 297 1083 390 q 933 133 1003 204 q 769 23 863 63 q 571 -17 676 -17 m 569 211 q 719 261 665 211 q 774 399 774 311 q 731 528 774 476 q 601 579 689 579 q 499 543 532 579 l 513 671 l 739 671 l 739 760 l 425 760 l 385 446 l 485 446 q 521 483 499 469 q 581 497 543 497 q 647 469 625 497 q 669 399 669 440 q 644 326 669 351 q 571 300 618 300 q 479 361 494 300 l 375 356 q 432 249 382 288 q 569 211 482 211 z "},"❻":{"ha":1140,"x_min":58,"x_max":1083,"o":"m 571 -17 q 371 23 464 -17 q 208 133 278 63 q 98 297 138 204 q 58 497 58 390 q 98 695 58 603 q 208 858 138 788 q 371 969 278 929 q 571 1008 464 1008 q 769 969 676 1008 q 933 858 863 929 q 1043 695 1003 788 q 1083 497 1083 603 q 1043 297 1083 390 q 933 133 1003 204 q 769 23 863 63 q 571 -17 676 -17 m 581 211 q 731 261 672 211 q 790 401 790 311 q 736 542 790 496 q 599 589 682 589 q 524 574 554 589 q 478 535 493 558 q 515 644 483 606 q 599 683 546 683 q 686 626 672 683 l 785 636 q 727 737 771 703 q 600 771 683 771 q 469 730 519 771 q 396 619 419 689 q 372 464 372 550 q 429 275 372 339 q 581 211 486 211 m 583 300 q 507 328 535 300 q 481 404 479 357 q 510 478 481 451 q 583 504 539 504 q 689 404 689 504 q 661 328 689 357 q 583 300 633 300 z "},"❼":{"ha":1140,"x_min":58,"x_max":1083,"o":"m 571 -17 q 371 23 464 -17 q 208 133 278 63 q 98 297 138 204 q 58 497 58 390 q 98 695 58 603 q 208 858 138 788 q 371 969 278 929 q 571 1008 464 1008 q 769 969 676 1008 q 933 858 863 929 q 1043 695 1003 788 q 1083 497 1083 603 q 1043 297 1083 390 q 933 133 1003 204 q 769 23 863 63 q 571 -17 676 -17 m 493 222 l 597 222 q 641 474 597 364 q 767 686 685 585 l 767 761 l 397 761 l 397 669 l 650 669 q 534 458 575 572 q 493 222 493 344 z "},"❽":{"ha":1140,"x_min":58,"x_max":1083,"o":"m 571 -17 q 371 23 464 -17 q 208 133 278 63 q 98 297 138 204 q 58 497 58 390 q 98 695 58 603 q 208 858 138 788 q 371 969 278 929 q 571 1008 464 1008 q 769 969 676 1008 q 933 858 863 929 q 1043 695 1003 788 q 1083 497 1083 603 q 1043 297 1083 390 q 933 133 1003 204 q 769 23 863 63 q 571 -17 676 -17 m 576 211 q 734 252 682 211 q 786 367 786 293 q 756 454 786 417 q 672 513 725 492 q 738 553 714 526 q 761 632 761 581 q 716 734 761 697 q 576 771 671 771 q 438 734 483 771 q 392 632 392 697 q 415 553 392 581 q 481 513 439 526 q 397 455 426 493 q 367 367 367 417 q 419 252 367 293 q 576 211 471 211 m 576 550 q 497 619 497 550 q 576 682 497 682 q 656 619 656 682 q 576 550 656 550 m 576 300 q 474 376 474 300 q 500 440 474 414 q 576 465 526 465 q 653 440 626 465 q 679 376 679 414 q 576 300 679 300 z "},"❾":{"ha":1140,"x_min":58,"x_max":1083,"o":"m 571 -17 q 371 23 464 -17 q 208 133 278 63 q 98 297 138 204 q 58 497 58 390 q 98 695 58 603 q 208 858 138 788 q 371 969 278 929 q 571 1008 464 1008 q 769 969 676 1008 q 933 858 863 929 q 1043 695 1003 788 q 1083 497 1083 603 q 1043 297 1083 390 q 933 133 1003 204 q 769 23 863 63 q 571 -17 676 -17 m 578 771 q 428 721 486 771 q 369 581 369 671 q 423 440 369 486 q 561 393 476 393 q 635 409 604 393 q 681 447 667 425 q 644 338 676 376 q 561 299 613 299 q 472 356 486 299 l 374 346 q 432 245 389 279 q 560 211 475 211 q 689 252 639 211 q 763 363 739 293 q 786 518 786 432 q 729 707 786 643 q 578 771 672 771 m 576 682 q 652 653 624 682 q 679 578 681 625 q 649 504 678 531 q 575 478 621 478 q 471 578 471 478 q 499 653 471 625 q 576 682 526 682 z "},"⓪":{"ha":1156,"x_min":58,"x_max":1099,"o":"m 576 -24 q 375 17 469 -24 q 210 128 281 57 q 99 294 139 200 q 58 497 58 389 q 99 698 58 604 q 210 863 139 792 q 375 975 281 935 q 576 1015 469 1015 q 779 975 685 1015 q 945 863 874 935 q 1058 698 1017 792 q 1099 497 1099 604 q 1058 294 1099 389 q 945 128 1017 200 q 779 17 874 57 q 576 -24 685 -24 m 576 85 q 739 116 664 85 q 870 204 814 147 q 958 336 926 261 q 989 497 989 411 q 958 658 989 583 q 870 788 926 732 q 739 876 814 844 q 576 907 664 907 q 416 876 490 907 q 285 788 342 844 q 197 658 229 732 q 165 497 165 583 q 197 336 165 411 q 285 204 229 261 q 416 116 342 147 q 576 85 490 85 m 581 211 q 417 286 478 211 q 356 492 356 361 q 416 697 356 622 q 581 771 476 771 q 744 697 683 771 q 806 492 806 622 q 744 286 806 361 q 581 211 683 211 m 463 492 q 476 393 463 435 l 640 663 q 581 679 615 679 q 463 492 463 679 m 581 303 q 699 492 699 303 q 685 594 699 553 l 521 322 q 581 303 547 303 z "},"①":{"ha":1156,"x_min":58,"x_max":1099,"o":"m 576 -24 q 375 17 469 -24 q 210 128 281 57 q 99 294 139 200 q 58 497 58 389 q 99 698 58 604 q 210 863 139 792 q 375 975 281 935 q 576 1015 469 1015 q 779 975 685 1015 q 945 863 874 935 q 1058 698 1017 792 q 1099 497 1099 604 q 1058 294 1099 389 q 945 128 1017 200 q 779 17 874 57 q 576 -24 685 -24 m 576 85 q 739 116 664 85 q 870 204 814 147 q 958 336 926 261 q 989 497 989 411 q 958 658 989 583 q 870 788 926 732 q 739 876 814 844 q 576 907 664 907 q 416 876 490 907 q 285 788 342 844 q 197 658 229 732 q 165 497 165 583 q 197 336 165 411 q 285 204 229 261 q 416 116 342 147 q 576 85 490 85 m 550 222 l 550 561 l 414 560 l 414 640 l 449 640 q 542 672 510 640 q 575 761 575 704 l 657 761 l 657 222 l 550 222 z "},"②":{"ha":1156,"x_min":58,"x_max":1099,"o":"m 576 -24 q 375 17 469 -24 q 210 128 281 57 q 99 294 139 200 q 58 497 58 389 q 99 698 58 604 q 210 863 139 792 q 375 975 281 935 q 576 1015 469 1015 q 779 975 685 1015 q 945 863 874 935 q 1058 698 1017 792 q 1099 497 1099 604 q 1058 294 1099 389 q 945 128 1017 200 q 779 17 874 57 q 576 -24 685 -24 m 576 85 q 739 116 664 85 q 870 204 814 147 q 958 336 926 261 q 989 497 989 411 q 958 658 989 583 q 870 788 926 732 q 739 876 814 844 q 576 907 664 907 q 416 876 490 907 q 285 788 342 844 q 197 658 229 732 q 165 497 165 583 q 197 336 165 411 q 285 204 229 261 q 416 116 342 147 q 576 85 490 85 m 390 222 q 400 331 390 286 q 440 412 410 376 q 531 479 471 447 l 601 517 q 653 556 639 538 q 668 611 668 575 q 646 663 668 644 q 590 682 624 682 q 490 590 503 682 l 390 594 q 449 724 399 676 q 589 771 500 771 q 724 726 676 771 q 771 613 771 682 q 736 509 771 547 q 640 439 701 471 l 581 408 q 524 362 540 386 q 507 314 507 338 l 769 314 l 769 222 l 390 222 z "},"③":{"ha":1156,"x_min":58,"x_max":1099,"o":"m 576 -24 q 375 17 469 -24 q 210 128 281 57 q 99 294 139 200 q 58 497 58 389 q 99 698 58 604 q 210 863 139 792 q 375 975 281 935 q 576 1015 469 1015 q 779 975 685 1015 q 945 863 874 935 q 1058 698 1017 792 q 1099 497 1099 604 q 1058 294 1099 389 q 945 128 1017 200 q 779 17 874 57 q 576 -24 685 -24 m 576 85 q 739 116 664 85 q 870 204 814 147 q 958 336 926 261 q 989 497 989 411 q 958 658 989 583 q 870 788 926 732 q 739 876 814 844 q 576 907 664 907 q 416 876 490 907 q 285 788 342 844 q 197 658 229 732 q 165 497 165 583 q 197 336 165 411 q 285 204 229 261 q 416 116 342 147 q 576 85 490 85 m 581 211 q 424 253 468 211 q 376 365 381 294 l 481 369 q 507 319 483 339 q 581 300 531 300 q 653 321 628 300 q 679 379 679 342 q 654 438 679 415 q 575 460 629 460 l 538 460 l 538 544 l 575 544 q 633 561 611 544 q 656 611 656 578 q 636 661 656 642 q 574 681 617 681 q 513 663 535 681 q 488 615 492 644 l 383 622 q 439 729 392 688 q 574 771 486 771 q 715 731 669 771 q 760 625 760 690 q 735 549 760 576 q 664 508 711 521 q 758 458 732 493 q 785 375 785 422 q 729 256 785 300 q 581 211 674 211 z "},"④":{"ha":1156,"x_min":58,"x_max":1099,"o":"m 576 -24 q 375 17 469 -24 q 210 128 281 57 q 99 294 139 200 q 58 497 58 389 q 99 698 58 604 q 210 863 139 792 q 375 975 281 935 q 576 1015 469 1015 q 779 975 685 1015 q 945 863 874 935 q 1058 698 1017 792 q 1099 497 1099 604 q 1058 294 1099 389 q 945 128 1017 200 q 779 17 874 57 q 576 -24 685 -24 m 576 85 q 739 116 664 85 q 870 204 814 147 q 958 336 926 261 q 989 497 989 411 q 958 658 989 583 q 870 788 926 732 q 739 876 814 844 q 576 907 664 907 q 416 876 490 907 q 285 788 342 844 q 197 658 229 732 q 165 497 165 583 q 197 336 165 411 q 285 204 229 261 q 416 116 342 147 q 576 85 490 85 m 592 222 l 592 340 l 340 340 l 340 421 l 590 760 l 699 760 l 699 431 l 771 431 l 771 340 l 699 340 l 699 222 l 592 222 m 449 431 l 592 431 l 592 617 l 449 431 z "},"⑤":{"ha":1156,"x_min":58,"x_max":1099,"o":"m 576 -24 q 375 17 469 -24 q 210 128 281 57 q 99 294 139 200 q 58 497 58 389 q 99 698 58 604 q 210 863 139 792 q 375 975 281 935 q 576 1015 469 1015 q 779 975 685 1015 q 945 863 874 935 q 1058 698 1017 792 q 1099 497 1099 604 q 1058 294 1099 389 q 945 128 1017 200 q 779 17 874 57 q 576 -24 685 -24 m 576 85 q 739 116 664 85 q 870 204 814 147 q 958 336 926 261 q 989 497 989 411 q 958 658 989 583 q 870 788 926 732 q 739 876 814 844 q 576 907 664 907 q 416 876 490 907 q 285 788 342 844 q 197 658 229 732 q 165 497 165 583 q 197 336 165 411 q 285 204 229 261 q 416 116 342 147 q 576 85 490 85 m 576 211 q 439 249 489 211 q 382 356 389 288 l 486 361 q 578 300 501 300 q 651 326 625 300 q 676 399 676 351 q 654 469 676 440 q 588 497 632 497 q 528 483 550 497 q 490 446 506 469 l 392 446 l 432 760 l 746 760 l 746 671 l 519 671 l 506 543 q 608 579 539 579 q 738 528 694 579 q 781 399 781 476 q 726 261 781 311 q 576 211 671 211 z "},"⑥":{"ha":1156,"x_min":58,"x_max":1099,"o":"m 576 -24 q 375 17 469 -24 q 210 128 281 57 q 99 294 139 200 q 58 497 58 389 q 99 698 58 604 q 210 863 139 792 q 375 975 281 935 q 576 1015 469 1015 q 779 975 685 1015 q 945 863 874 935 q 1058 698 1017 792 q 1099 497 1099 604 q 1058 294 1099 389 q 945 128 1017 200 q 779 17 874 57 q 576 -24 685 -24 m 576 85 q 739 116 664 85 q 870 204 814 147 q 958 336 926 261 q 989 497 989 411 q 958 658 989 583 q 870 788 926 732 q 739 876 814 844 q 576 907 664 907 q 416 876 490 907 q 285 788 342 844 q 197 658 229 732 q 165 497 165 583 q 197 336 165 411 q 285 204 229 261 q 416 116 342 147 q 576 85 490 85 m 581 211 q 429 275 486 211 q 372 464 372 339 q 396 619 372 550 q 469 730 419 689 q 599 771 519 771 q 726 737 683 771 q 785 636 769 703 l 686 626 q 597 683 672 683 q 514 644 546 683 q 478 535 482 606 q 524 574 493 558 q 597 589 554 589 q 735 542 682 589 q 789 401 789 496 q 731 261 789 311 q 581 211 672 211 m 582 300 q 660 328 632 300 q 688 404 688 357 q 583 504 688 504 q 509 478 538 504 q 479 404 481 451 q 506 328 478 357 q 582 300 535 300 z "},"⑦":{"ha":1156,"x_min":58,"x_max":1099,"o":"m 576 -24 q 375 17 469 -24 q 210 128 281 57 q 99 294 139 200 q 58 497 58 389 q 99 698 58 604 q 210 863 139 792 q 375 975 281 935 q 576 1015 469 1015 q 779 975 685 1015 q 945 863 874 935 q 1058 698 1017 792 q 1099 497 1099 604 q 1058 294 1099 389 q 945 128 1017 200 q 779 17 874 57 q 576 -24 685 -24 m 576 85 q 739 116 664 85 q 870 204 814 147 q 958 336 926 261 q 989 497 989 411 q 958 658 989 583 q 870 788 926 732 q 739 876 814 844 q 576 907 664 907 q 416 876 490 907 q 285 788 342 844 q 197 658 229 732 q 165 497 165 583 q 197 336 165 411 q 285 204 229 261 q 416 116 342 147 q 576 85 490 85 m 492 222 q 533 458 492 344 q 650 669 575 572 l 397 669 l 397 761 l 765 761 l 765 686 q 641 474 685 585 q 597 222 597 364 l 492 222 z "},"⑧":{"ha":1156,"x_min":58,"x_max":1099,"o":"m 576 -24 q 375 17 469 -24 q 210 128 281 57 q 99 294 139 200 q 58 497 58 389 q 99 698 58 604 q 210 863 139 792 q 375 975 281 935 q 576 1015 469 1015 q 779 975 685 1015 q 945 863 874 935 q 1058 698 1017 792 q 1099 497 1099 604 q 1058 294 1099 389 q 945 128 1017 200 q 779 17 874 57 q 576 -24 685 -24 m 576 85 q 739 116 664 85 q 870 204 814 147 q 958 336 926 261 q 989 497 989 411 q 958 658 989 583 q 870 788 926 732 q 739 876 814 844 q 576 907 664 907 q 416 876 490 907 q 285 788 342 844 q 197 658 229 732 q 165 497 165 583 q 197 336 165 411 q 285 204 229 261 q 416 116 342 147 q 576 85 490 85 m 581 211 q 423 252 475 211 q 371 367 371 293 q 401 455 371 417 q 485 513 431 493 q 419 553 443 526 q 396 632 396 581 q 442 734 396 697 q 581 771 488 771 q 720 734 675 771 q 765 632 765 697 q 742 553 765 581 q 676 513 718 526 q 760 454 729 492 q 790 367 790 417 q 738 252 790 293 q 581 211 686 211 m 581 550 q 660 619 660 550 q 581 682 660 682 q 501 619 501 682 q 581 550 501 550 m 581 300 q 683 376 683 300 q 657 440 683 414 q 581 465 631 465 q 504 440 531 465 q 478 376 478 414 q 581 300 478 300 z "},"⑨":{"ha":1156,"x_min":58,"x_max":1099,"o":"m 576 -24 q 375 17 469 -24 q 210 128 281 57 q 99 294 139 200 q 58 497 58 389 q 99 698 58 604 q 210 863 139 792 q 375 975 281 935 q 576 1015 469 1015 q 779 975 685 1015 q 945 863 874 935 q 1058 698 1017 792 q 1099 497 1099 604 q 1058 294 1099 389 q 945 128 1017 200 q 779 17 874 57 q 576 -24 685 -24 m 576 85 q 739 116 664 85 q 870 204 814 147 q 958 336 926 261 q 989 497 989 411 q 958 658 989 583 q 870 788 926 732 q 739 876 814 844 q 576 907 664 907 q 416 876 490 907 q 285 788 342 844 q 197 658 229 732 q 165 497 165 583 q 197 336 165 411 q 285 204 229 261 q 416 116 342 147 q 576 85 490 85 m 592 771 q 743 707 686 771 q 800 518 800 643 q 776 363 800 432 q 703 252 753 293 q 572 211 653 211 q 445 245 489 211 q 388 346 401 279 l 486 356 q 574 299 500 299 q 658 338 626 299 q 694 447 689 376 q 649 409 679 425 q 574 393 618 393 q 436 440 490 393 q 382 581 382 486 q 441 721 382 671 q 592 771 500 771 m 589 682 q 511 653 539 682 q 483 578 483 625 q 589 478 483 478 q 663 504 633 478 q 692 578 692 531 q 665 653 693 625 q 589 682 638 682 z "},"⁄":{"ha":233,"x_min":-278,"x_max":511,"o":"m -278 0 l 394 986 l 511 986 l -161 0 l -278 0 z "},"½":{"ha":1132,"x_min":28,"x_max":1075,"o":"m 164 449 l 164 788 l 28 786 l 28 867 l 63 867 q 156 899 124 867 q 189 988 189 931 l 271 988 l 271 449 l 164 449 m 126 0 l 799 986 l 915 986 l 243 0 l 126 0 m 694 0 q 704 109 694 64 q 744 190 714 154 q 835 257 775 225 l 906 294 q 958 334 943 315 q 972 389 972 353 q 950 441 972 422 q 894 460 928 460 q 794 368 807 460 l 694 372 q 753 501 703 454 q 893 549 804 549 q 1028 504 981 549 q 1075 390 1075 460 q 1040 287 1075 325 q 944 217 1006 249 l 885 186 q 828 140 844 164 q 811 92 811 115 l 1074 92 l 1074 0 l 694 0 z "},"⅓":{"ha":1117,"x_min":28,"x_max":1074,"o":"m 164 449 l 164 788 l 28 786 l 28 867 l 63 867 q 156 899 124 867 q 189 988 189 931 l 271 988 l 271 449 l 164 449 m 126 0 l 799 986 l 915 986 l 243 0 l 126 0 m 869 -11 q 713 31 757 -11 q 665 143 669 72 l 769 147 q 796 97 772 117 q 869 78 819 78 q 942 99 917 78 q 968 157 968 119 q 943 215 968 193 q 864 238 918 238 l 826 238 l 826 322 l 864 322 q 922 339 900 322 q 944 389 944 356 q 925 439 944 419 q 863 458 906 458 q 802 440 824 458 q 776 393 781 422 l 672 400 q 728 507 681 465 q 863 549 775 549 q 1003 508 958 549 q 1049 403 1049 468 q 1024 326 1049 354 q 953 286 1000 299 q 1047 235 1021 271 q 1074 153 1074 200 q 1018 33 1074 78 q 869 -11 963 -11 z "},"⅔":{"ha":1206,"x_min":57,"x_max":1164,"o":"m 57 449 q 67 558 57 513 q 107 638 76 603 q 197 706 138 674 l 268 743 q 320 783 306 764 q 335 838 335 801 q 313 890 335 871 q 257 908 290 908 q 157 817 169 908 l 57 821 q 116 950 65 903 q 256 997 167 997 q 390 953 343 997 q 438 839 438 908 q 403 735 438 774 q 307 665 368 697 l 247 635 q 190 588 207 613 q 174 540 174 564 l 436 540 l 436 449 l 57 449 m 217 0 l 889 986 l 1006 986 l 333 0 l 217 0 m 960 -11 q 803 31 847 -11 q 756 143 760 72 l 860 147 q 886 97 863 117 q 960 78 910 78 q 1033 99 1007 78 q 1058 157 1058 119 q 1033 215 1058 193 q 954 238 1008 238 l 917 238 l 917 322 l 954 322 q 1013 339 990 322 q 1035 389 1035 356 q 1015 439 1035 419 q 953 458 996 458 q 892 440 914 458 q 867 393 871 422 l 763 400 q 818 507 771 465 q 953 549 865 549 q 1094 508 1049 549 q 1139 403 1139 468 q 1115 326 1139 354 q 1043 286 1090 299 q 1138 235 1111 271 q 1164 153 1164 200 q 1108 33 1164 78 q 960 -11 1053 -11 z "},"¼":{"ha":1043,"x_min":28,"x_max":1015,"o":"m 164 449 l 164 788 l 28 786 l 28 867 l 63 867 q 156 899 124 867 q 189 988 189 931 l 271 988 l 271 449 l 164 449 m 126 0 l 799 986 l 915 986 l 243 0 l 126 0 m 836 0 l 836 118 l 585 118 l 585 199 l 835 538 l 943 538 l 943 208 l 1015 208 l 1015 118 l 943 118 l 943 0 l 836 0 m 693 208 l 836 208 l 836 394 l 693 208 z "},"¾":{"ha":1117,"x_min":28,"x_max":1089,"o":"m 232 438 q 76 479 119 438 q 28 592 32 521 l 132 596 q 158 546 135 565 q 232 526 182 526 q 305 547 279 526 q 331 606 331 568 q 306 664 331 642 q 226 686 281 686 l 189 686 l 189 771 l 226 771 q 285 788 263 771 q 307 838 307 804 q 288 888 307 868 q 225 907 268 907 q 165 889 186 907 q 139 842 143 871 l 35 849 q 90 956 43 914 q 225 997 138 997 q 366 957 321 997 q 411 851 411 917 q 387 775 411 803 q 315 735 363 747 q 410 684 383 719 q 436 601 436 649 q 381 482 436 526 q 232 438 325 438 m 200 0 l 872 986 l 989 986 l 317 0 l 200 0 m 910 0 l 910 118 l 658 118 l 658 199 l 908 538 l 1017 538 l 1017 208 l 1089 208 l 1089 118 l 1017 118 l 1017 0 l 910 0 m 767 208 l 910 208 l 910 394 l 767 208 z "},"⅕":{"ha":1133,"x_min":28,"x_max":1092,"o":"m 164 449 l 164 788 l 28 786 l 28 867 l 63 867 q 156 899 124 867 q 189 988 189 931 l 271 988 l 271 449 l 164 449 m 126 0 l 799 986 l 915 986 l 243 0 l 126 0 m 888 -11 q 750 27 800 -11 q 693 133 700 65 l 797 139 q 889 78 813 78 q 962 103 936 78 q 988 176 988 129 q 965 247 988 218 q 899 275 943 275 q 839 261 861 275 q 801 224 817 247 l 703 224 l 743 538 l 1057 538 l 1057 449 l 831 449 l 817 321 q 919 357 850 357 q 1049 306 1006 357 q 1092 176 1092 254 q 1037 39 1092 89 q 888 -11 982 -11 z "},"⅛":{"ha":1140,"x_min":28,"x_max":1099,"o":"m 164 449 l 164 788 l 28 786 l 28 867 l 63 867 q 156 899 124 867 q 189 988 189 931 l 271 988 l 271 449 l 164 449 m 126 0 l 799 986 l 915 986 l 243 0 l 126 0 m 889 -11 q 731 30 783 -11 q 679 144 679 71 q 709 233 679 194 q 793 290 739 271 q 728 331 751 304 q 704 410 704 358 q 750 512 704 475 q 889 549 796 549 q 1028 512 983 549 q 1074 410 1074 475 q 1050 331 1074 358 q 985 290 1026 304 q 1068 232 1038 269 q 1099 144 1099 194 q 1047 30 1099 71 q 889 -11 994 -11 m 889 328 q 968 397 968 328 q 889 460 968 460 q 810 397 810 460 q 889 328 810 328 m 889 78 q 992 154 992 78 q 965 217 992 192 q 889 243 939 243 q 813 217 839 243 q 786 154 786 192 q 889 78 786 78 z "},"⅜":{"ha":1214,"x_min":28,"x_max":1172,"o":"m 232 438 q 76 479 119 438 q 28 592 32 521 l 132 596 q 158 546 135 565 q 232 526 182 526 q 305 547 279 526 q 331 606 331 568 q 306 664 331 642 q 226 686 281 686 l 189 686 l 189 771 l 226 771 q 285 788 263 771 q 307 838 307 804 q 288 888 307 868 q 225 907 268 907 q 165 889 186 907 q 139 842 143 871 l 35 849 q 90 956 43 914 q 225 997 138 997 q 366 957 321 997 q 411 851 411 917 q 387 775 411 803 q 315 735 363 747 q 410 684 383 719 q 436 601 436 649 q 381 482 436 526 q 232 438 325 438 m 200 0 l 872 986 l 989 986 l 317 0 l 200 0 m 963 -11 q 805 30 857 -11 q 753 144 753 71 q 783 233 753 194 q 867 290 813 271 q 801 331 825 304 q 778 410 778 358 q 824 512 778 475 q 963 549 869 549 q 1102 512 1057 549 q 1147 410 1147 475 q 1124 331 1147 358 q 1058 290 1100 304 q 1142 232 1111 269 q 1172 144 1172 194 q 1120 30 1172 71 q 963 -11 1068 -11 m 963 328 q 1042 397 1042 328 q 963 460 1042 460 q 883 397 883 460 q 963 328 883 328 m 963 78 q 1065 154 1065 78 q 1039 217 1065 192 q 963 243 1013 243 q 886 217 913 243 q 860 154 860 192 q 963 78 860 78 z "},"⅝":{"ha":1232,"x_min":56,"x_max":1190,"o":"m 250 438 q 113 476 163 438 q 56 582 63 514 l 160 588 q 251 526 175 526 q 324 552 299 526 q 350 625 350 578 q 328 695 350 667 q 261 724 306 724 q 201 710 224 724 q 164 672 179 696 l 65 672 l 106 986 l 419 986 l 419 897 l 193 897 l 179 769 q 282 806 213 806 q 411 754 368 806 q 454 625 454 703 q 399 488 454 538 q 250 438 344 438 m 218 0 l 890 986 l 1007 986 l 335 0 l 218 0 m 981 -11 q 823 30 875 -11 q 771 144 771 71 q 801 233 771 194 q 885 290 831 271 q 819 331 843 304 q 796 410 796 358 q 842 512 796 475 q 981 549 888 549 q 1120 512 1075 549 q 1165 410 1165 475 q 1142 331 1165 358 q 1076 290 1118 304 q 1160 232 1129 269 q 1190 144 1190 194 q 1138 30 1190 71 q 981 -11 1086 -11 m 981 328 q 1060 397 1060 328 q 981 460 1060 460 q 901 397 901 460 q 981 328 901 328 m 981 78 q 1083 154 1083 78 q 1057 217 1083 192 q 981 243 1031 243 q 904 217 931 243 q 878 154 878 192 q 981 78 878 78 z "},"⅞":{"ha":1118,"x_min":28,"x_max":1076,"o":"m 122 447 q 164 683 122 569 q 281 894 206 797 l 28 894 l 28 986 l 396 986 l 396 911 q 272 699 315 810 q 228 447 228 589 l 122 447 m 104 0 l 776 986 l 893 986 l 221 0 l 104 0 m 867 -11 q 709 30 761 -11 q 657 144 657 71 q 687 233 657 194 q 771 290 717 271 q 706 331 729 304 q 682 410 682 358 q 728 512 682 475 q 867 549 774 549 q 1006 512 961 549 q 1051 410 1051 475 q 1028 331 1051 358 q 963 290 1004 304 q 1046 232 1015 269 q 1076 144 1076 194 q 1024 30 1076 71 q 867 -11 972 -11 m 867 328 q 946 397 946 328 q 867 460 946 460 q 788 397 788 460 q 867 328 788 328 m 867 78 q 969 154 969 78 q 943 217 969 192 q 867 243 917 243 q 790 217 817 243 q 764 154 764 192 q 867 78 764 78 z "},"₀":{"ha":561,"x_min":56,"x_max":506,"o":"m 281 -150 q 117 -75 178 -150 q 56 131 56 0 q 116 335 56 261 q 281 410 176 410 q 444 335 383 410 q 506 131 506 261 q 444 -75 506 0 q 281 -150 383 -150 m 163 131 q 176 32 163 74 l 340 301 q 281 318 315 318 q 163 131 163 318 m 281 -58 q 399 131 399 -58 q 385 233 399 192 l 221 -39 q 281 -58 247 -58 z "},"₁":{"ha":354,"x_min":28,"x_max":271,"o":"m 164 -139 l 164 200 l 28 199 l 28 279 l 63 279 q 156 311 124 279 q 189 400 189 343 l 271 400 l 271 -139 l 164 -139 z "},"₂":{"ha":494,"x_min":57,"x_max":438,"o":"m 57 -139 q 67 -30 57 -75 q 107 51 76 15 q 197 118 138 86 l 268 156 q 320 195 306 176 q 335 250 335 214 q 313 302 335 283 q 257 321 290 321 q 157 229 169 321 l 57 233 q 116 363 65 315 q 256 410 167 410 q 390 365 343 410 q 438 251 438 321 q 403 148 438 186 q 307 78 368 110 l 247 47 q 190 1 207 25 q 174 -47 174 -24 l 436 -47 l 436 -139 l 57 -139 z "},"₃":{"ha":478,"x_min":28,"x_max":436,"o":"m 232 -150 q 76 -108 119 -150 q 28 4 32 -67 l 132 8 q 158 -42 135 -22 q 232 -61 182 -61 q 305 -40 279 -61 q 331 18 331 -19 q 306 76 331 54 q 226 99 281 99 l 189 99 l 189 183 l 226 183 q 285 200 263 183 q 307 250 307 217 q 288 300 307 281 q 225 319 268 319 q 165 301 186 319 q 139 254 143 283 l 35 261 q 90 368 43 326 q 225 410 138 410 q 366 369 321 410 q 411 264 411 329 q 387 188 411 215 q 315 147 363 160 q 410 97 383 132 q 436 14 436 61 q 381 -106 436 -61 q 232 -150 325 -150 z "},"₄":{"ha":472,"x_min":14,"x_max":444,"o":"m 265 -139 l 265 -21 l 14 -21 l 14 60 l 264 399 l 372 399 l 372 69 l 444 69 l 444 -21 l 372 -21 l 372 -139 l 265 -139 m 122 69 l 265 69 l 265 256 l 122 69 z "},"₅":{"ha":496,"x_min":56,"x_max":454,"o":"m 250 -150 q 113 -112 163 -150 q 56 -6 63 -74 l 160 0 q 251 -61 175 -61 q 324 -35 299 -61 q 350 38 350 -10 q 328 108 350 79 q 261 136 306 136 q 201 122 224 136 q 164 85 179 108 l 65 85 l 106 399 l 419 399 l 419 310 l 193 310 l 179 182 q 282 218 213 218 q 411 167 368 218 q 454 38 454 115 q 399 -100 454 -50 q 250 -150 344 -150 z "},"₆":{"ha":529,"x_min":56,"x_max":472,"o":"m 264 -150 q 113 -86 169 -150 q 56 103 56 -22 q 79 258 56 189 q 153 369 103 328 q 282 410 203 410 q 410 376 367 410 q 468 275 453 342 l 369 265 q 281 322 356 322 q 197 283 229 322 q 161 174 165 244 q 207 213 176 197 q 281 228 238 228 q 419 181 365 228 q 472 40 472 135 q 414 -100 472 -50 q 264 -150 356 -150 m 265 -61 q 343 -33 315 -61 q 371 43 371 -4 q 267 143 371 143 q 192 117 221 143 q 163 43 164 90 q 190 -33 161 -4 q 265 -61 218 -61 z "},"₇":{"ha":424,"x_min":28,"x_max":396,"o":"m 122 -139 q 164 97 122 -17 q 281 308 206 211 l 28 308 l 28 400 l 396 400 l 396 325 q 272 113 315 224 q 228 -139 228 3 l 122 -139 z "},"₈":{"ha":503,"x_min":42,"x_max":461,"o":"m 251 -150 q 94 -109 146 -150 q 42 6 42 -68 q 72 94 42 56 q 156 151 101 132 q 90 192 114 165 q 67 271 67 219 q 113 373 67 336 q 251 410 158 410 q 391 373 346 410 q 436 271 436 336 q 413 192 436 219 q 347 151 389 165 q 431 93 400 131 q 461 6 461 56 q 409 -109 461 -68 q 251 -150 357 -150 m 251 189 q 331 258 331 189 q 251 321 331 321 q 172 258 172 321 q 251 189 172 189 m 251 -61 q 354 15 354 -61 q 328 78 354 53 q 251 104 301 104 q 175 78 201 104 q 149 15 149 53 q 251 -61 149 -61 z "},"₉":{"ha":529,"x_min":57,"x_max":474,"o":"m 265 410 q 417 346 360 410 q 474 157 474 282 q 450 1 474 71 q 376 -109 426 -68 q 246 -150 326 -150 q 119 -116 163 -150 q 61 -15 76 -82 l 160 -6 q 247 -62 174 -62 q 332 -24 300 -62 q 368 86 364 15 q 322 48 353 64 q 247 32 292 32 q 110 78 164 32 q 57 219 57 125 q 115 360 57 310 q 265 410 174 410 m 264 321 q 185 292 213 321 q 158 217 158 264 q 263 117 158 117 q 337 143 308 117 q 367 217 365 169 q 339 292 367 264 q 264 321 311 321 z "},"⁰":{"ha":561,"x_min":56,"x_max":506,"o":"m 281 438 q 117 513 178 438 q 56 718 56 588 q 116 923 56 849 q 281 997 176 997 q 444 923 383 997 q 506 718 506 849 q 444 513 506 588 q 281 438 383 438 m 163 718 q 176 619 163 661 l 340 889 q 281 906 315 906 q 163 718 163 906 m 281 529 q 399 718 399 529 q 385 821 399 779 l 221 549 q 281 529 247 529 z "},"¹":{"ha":354,"x_min":28,"x_max":271,"o":"m 164 449 l 164 788 l 28 786 l 28 867 l 63 867 q 156 899 124 867 q 189 988 189 931 l 271 988 l 271 449 l 164 449 z "},"²":{"ha":494,"x_min":57,"x_max":438,"o":"m 57 449 q 67 558 57 513 q 107 638 76 603 q 197 706 138 674 l 268 743 q 320 783 306 764 q 335 838 335 801 q 313 890 335 871 q 257 908 290 908 q 157 817 169 908 l 57 821 q 116 950 65 903 q 256 997 167 997 q 390 953 343 997 q 438 839 438 908 q 403 735 438 774 q 307 665 368 697 l 247 635 q 190 588 207 613 q 174 540 174 564 l 436 540 l 436 449 l 57 449 z "},"³":{"ha":478,"x_min":28,"x_max":436,"o":"m 232 438 q 76 479 119 438 q 28 592 32 521 l 132 596 q 158 546 135 565 q 232 526 182 526 q 305 547 279 526 q 331 606 331 568 q 306 664 331 642 q 226 686 281 686 l 189 686 l 189 771 l 226 771 q 285 788 263 771 q 307 838 307 804 q 288 888 307 868 q 225 907 268 907 q 165 889 186 907 q 139 842 143 871 l 35 849 q 90 956 43 914 q 225 997 138 997 q 366 957 321 997 q 411 851 411 917 q 387 775 411 803 q 315 735 363 747 q 410 684 383 719 q 436 601 436 649 q 381 482 436 526 q 232 438 325 438 z "},"⁴":{"ha":472,"x_min":14,"x_max":444,"o":"m 265 449 l 265 567 l 14 567 l 14 647 l 264 986 l 372 986 l 372 657 l 444 657 l 444 567 l 372 567 l 372 449 l 265 449 m 122 657 l 265 657 l 265 843 l 122 657 z "},"⁵":{"ha":496,"x_min":56,"x_max":454,"o":"m 250 438 q 113 476 163 438 q 56 582 63 514 l 160 588 q 251 526 175 526 q 324 552 299 526 q 350 625 350 578 q 328 695 350 667 q 261 724 306 724 q 201 710 224 724 q 164 672 179 696 l 65 672 l 106 986 l 419 986 l 419 897 l 193 897 l 179 769 q 282 806 213 806 q 411 754 368 806 q 454 625 454 703 q 399 488 454 538 q 250 438 344 438 z "},"⁶":{"ha":529,"x_min":56,"x_max":472,"o":"m 264 438 q 113 501 169 438 q 56 690 56 565 q 79 846 56 776 q 153 956 103 915 q 282 997 203 997 q 410 963 367 997 q 468 863 453 929 l 369 853 q 281 910 356 910 q 197 871 229 910 q 161 761 165 832 q 207 800 176 785 q 281 815 238 815 q 419 769 365 815 q 472 628 472 722 q 414 488 472 538 q 264 438 356 438 m 265 526 q 343 555 315 526 q 371 631 371 583 q 267 731 371 731 q 192 704 221 731 q 163 631 164 678 q 190 555 161 583 q 265 526 218 526 z "},"⁷":{"ha":424,"x_min":28,"x_max":396,"o":"m 122 447 q 164 683 122 569 q 281 894 206 797 l 28 894 l 28 986 l 396 986 l 396 911 q 272 699 315 810 q 228 447 228 589 l 122 447 z "},"⁸":{"ha":503,"x_min":42,"x_max":461,"o":"m 251 438 q 94 478 146 438 q 42 593 42 519 q 72 681 42 643 q 156 739 101 719 q 90 780 114 753 q 67 858 67 807 q 113 960 67 924 q 251 997 158 997 q 391 960 346 997 q 436 858 436 924 q 413 780 436 807 q 347 739 389 753 q 431 681 400 718 q 461 593 461 643 q 409 478 461 519 q 251 438 357 438 m 251 776 q 331 846 331 776 q 251 908 331 908 q 172 846 172 908 q 251 776 172 776 m 251 526 q 354 603 354 526 q 328 666 354 640 q 251 692 301 692 q 175 666 201 692 q 149 603 149 640 q 251 526 149 526 z "},"⁹":{"ha":529,"x_min":57,"x_max":474,"o":"m 265 997 q 417 933 360 997 q 474 744 474 869 q 450 589 474 658 q 376 478 426 519 q 246 438 326 438 q 119 472 163 438 q 61 572 76 506 l 160 582 q 247 525 174 525 q 332 564 300 525 q 368 674 364 603 q 322 635 353 651 q 247 619 292 619 q 110 666 164 619 q 57 807 57 713 q 115 947 57 897 q 265 997 174 997 m 264 908 q 185 880 213 908 q 158 804 158 851 q 263 704 158 704 q 337 731 308 704 q 367 804 365 757 q 339 880 367 851 q 264 908 311 908 z "}," ":{"ha":338,"x_min":0,"x_max":0,"o":""}," ":{"ha":338,"x_min":0,"x_max":0,"o":""},".":{"ha":296,"x_min":58,"x_max":238,"o":"m 58 0 l 58 175 l 238 175 l 238 0 l 58 0 z "},",":{"ha":296,"x_min":58,"x_max":238,"o":"m 65 -218 l 135 0 l 58 0 l 58 175 l 238 175 l 238 21 l 150 -218 l 65 -218 z "},":":{"ha":419,"x_min":119,"x_max":299,"o":"m 119 0 l 119 175 l 299 175 l 299 0 l 119 0 m 119 529 l 119 704 l 299 704 l 299 529 l 119 529 z "},";":{"ha":419,"x_min":119,"x_max":299,"o":"m 119 529 l 119 704 l 299 704 l 299 529 l 119 529 m 126 -218 l 196 0 l 119 0 l 119 175 l 299 175 l 299 21 l 211 -218 l 126 -218 z "},"…":{"ha":850,"x_min":58,"x_max":793,"o":"m 58 0 l 58 175 l 238 175 l 238 0 l 58 0 m 336 0 l 336 175 l 515 175 l 515 0 l 336 0 m 614 0 l 614 175 l 793 175 l 793 0 l 614 0 z "},"!":{"ha":317,"x_min":68,"x_max":249,"o":"m 114 294 q 103 410 108 343 q 92 548 97 478 q 88 674 88 618 l 88 986 l 238 986 l 238 674 q 233 548 238 618 q 223 410 229 478 q 213 294 217 343 l 114 294 m 68 0 l 68 175 l 249 175 l 249 0 l 68 0 z "},"¡":{"ha":317,"x_min":68,"x_max":249,"o":"m 68 761 l 249 761 l 249 586 l 68 586 l 68 761 m 88 -225 l 88 88 q 92 213 88 143 q 103 351 97 283 q 114 467 108 418 l 213 467 q 223 351 217 418 q 233 213 229 283 q 238 88 238 143 l 238 -225 l 88 -225 z "},"?":{"ha":792,"x_min":58,"x_max":733,"o":"m 317 290 q 348 453 317 394 q 453 554 379 511 q 533 608 506 585 q 569 658 560 632 q 579 724 579 685 q 536 831 579 789 q 415 874 493 874 q 214 686 233 874 l 58 694 q 111 857 67 786 q 233 968 156 928 q 415 1008 310 1008 q 584 972 513 1008 q 694 870 656 935 q 733 724 733 806 q 715 622 733 664 q 659 544 697 579 q 560 471 621 508 q 485 399 506 438 q 465 290 465 361 l 317 290 m 299 0 l 299 175 l 478 175 l 478 0 l 299 0 z "},"¿":{"ha":792,"x_min":58,"x_max":733,"o":"m 493 783 l 493 608 l 313 608 l 313 783 l 493 783 m 376 -225 q 208 -188 279 -225 q 97 -87 136 -151 q 58 60 58 -22 q 76 162 58 119 q 133 240 94 204 q 232 313 171 275 q 306 385 286 346 q 326 493 326 424 l 474 493 q 442 331 474 390 q 339 229 411 272 q 259 175 286 199 q 222 125 232 151 q 213 60 213 99 q 256 -48 213 -6 q 376 -90 299 -90 q 578 97 558 -90 l 733 89 q 681 -74 725 -3 q 559 -185 636 -144 q 376 -225 482 -225 z "},"·":{"ha":296,"x_min":58,"x_max":238,"o":"m 58 333 l 58 508 l 238 508 l 238 333 l 58 333 z "},"•":{"ha":457,"x_min":57,"x_max":401,"o":"m 229 263 q 103 310 150 263 q 57 429 57 357 q 103 549 57 501 q 229 596 150 596 q 355 549 308 596 q 401 429 401 501 q 355 310 401 357 q 229 263 308 263 z "},"*":{"ha":593,"x_min":58,"x_max":536,"o":"m 213 522 l 128 574 l 217 708 l 58 708 l 58 814 l 217 813 l 128 947 l 213 1000 l 297 858 l 383 1000 l 467 947 l 378 813 l 536 814 l 536 708 l 378 708 l 467 574 l 383 522 l 297 663 l 213 522 z "},"〃":{"ha":522,"x_min":58,"x_max":465,"o":"m 58 390 l 144 668 l 283 668 l 156 390 l 58 390 m 240 390 l 328 668 l 465 668 l 339 390 l 240 390 z "},"#":{"ha":715,"x_min":-8,"x_max":717,"o":"m 57 0 l 101 258 l -8 258 l 11 378 l 122 378 l 163 603 l 47 603 l 65 722 l 183 722 l 229 986 l 360 986 l 314 722 l 478 722 l 524 986 l 654 986 l 607 722 l 717 722 l 699 603 l 586 603 l 547 378 l 663 378 l 644 258 l 526 258 l 481 0 l 351 0 l 396 258 l 232 258 l 186 0 l 57 0 m 253 378 l 417 378 l 457 603 l 292 603 l 253 378 z "},"/":{"ha":686,"x_min":51,"x_max":604,"o":"m 51 -153 l 463 1042 l 604 1042 l 194 -153 l 51 -153 z "},"\\":{"ha":653,"x_min":50,"x_max":603,"o":"m 603 -153 l 460 -153 l 50 1042 l 193 1042 l 603 -153 z "},"-":{"ha":581,"x_min":58,"x_max":524,"o":"m 58 340 l 58 469 l 524 469 l 524 340 l 58 340 z "},"–":{"ha":822,"x_min":58,"x_max":765,"o":"m 58 342 l 58 469 l 765 469 l 765 342 l 58 342 z "},"—":{"ha":1261,"x_min":58,"x_max":1204,"o":"m 58 342 l 58 469 l 1204 469 l 1204 342 l 58 342 z "},"_":{"ha":775,"x_min":58,"x_max":718,"o":"m 58 -128 l 58 0 l 718 0 l 718 -128 l 58 -128 z "},"〜":{"ha":1186,"x_min":58,"x_max":1129,"o":"m 826 275 q 738 285 776 275 q 660 314 699 294 q 571 360 621 333 q 468 403 521 388 q 369 419 415 419 q 249 389 306 419 q 128 297 193 358 l 58 399 q 172 490 121 457 q 272 536 224 522 q 375 550 321 550 q 615 476 472 550 q 702 433 669 449 q 761 412 735 418 q 824 406 788 406 q 933 432 882 406 q 1058 525 985 458 l 1129 422 q 826 275 974 275 z "},"(":{"ha":403,"x_min":61,"x_max":383,"o":"m 253 -153 q 61 444 61 139 q 253 1042 61 750 l 383 1042 q 210 444 210 742 q 383 -153 210 149 l 253 -153 z "},")":{"ha":403,"x_min":19,"x_max":342,"o":"m 150 -153 l 19 -153 q 193 444 193 149 q 19 1042 193 742 l 150 1042 q 342 444 342 750 q 150 -153 342 139 z "},"{":{"ha":549,"x_min":61,"x_max":529,"o":"m 449 -164 q 265 -95 331 -164 q 199 82 199 -26 l 199 197 q 61 375 199 375 l 61 507 q 199 683 199 506 l 199 799 q 265 976 199 907 q 449 1046 331 1046 l 529 1046 l 529 914 q 383 889 426 918 q 339 790 339 860 l 339 672 q 292 513 339 571 q 182 443 246 456 l 182 440 q 293 369 247 428 q 339 208 339 311 l 339 92 q 383 -8 339 22 q 529 -35 426 -37 l 529 -164 l 449 -164 z "},"}":{"ha":549,"x_min":19,"x_max":488,"o":"m 100 -164 l 19 -164 l 19 -35 q 166 -8 122 -37 q 210 92 210 22 l 210 208 q 256 369 210 311 q 368 440 301 428 l 368 443 q 257 513 304 456 q 210 672 210 571 l 210 790 q 166 889 210 860 q 19 914 122 918 l 19 1046 l 100 1046 q 284 976 218 1046 q 350 799 350 907 l 350 683 q 488 507 350 506 l 488 375 q 350 197 350 375 l 350 82 q 284 -95 350 -26 q 100 -164 218 -164 z "},"[":{"ha":501,"x_min":119,"x_max":482,"o":"m 482 -153 l 119 -153 l 119 1042 l 482 1042 l 482 922 l 260 922 l 260 -33 l 482 -33 l 482 -153 z "},"]":{"ha":501,"x_min":19,"x_max":382,"o":"m 19 -153 l 19 -33 l 242 -33 l 242 922 l 19 922 l 19 1042 l 382 1042 l 382 -153 l 19 -153 z "},"〈":{"ha":508,"x_min":58,"x_max":450,"o":"m 306 -158 l 58 492 l 306 1140 l 450 1140 l 201 492 l 450 -158 l 306 -158 z "},"〉":{"ha":508,"x_min":58,"x_max":450,"o":"m 201 -158 l 58 -158 l 306 492 l 58 1140 l 201 1140 l 450 492 l 201 -158 z "},"【":{"ha":500,"x_min":58,"x_max":443,"o":"m 443 -87 l 58 -87 l 58 1146 l 443 1146 q 258 529 258 847 q 443 -87 258 213 z "},"】":{"ha":500,"x_min":58,"x_max":443,"o":"m 58 -87 q 243 529 243 213 q 58 1146 243 847 l 443 1146 l 443 -87 l 58 -87 z "},"「":{"ha":538,"x_min":58,"x_max":479,"o":"m 58 326 l 58 1147 l 479 1147 l 479 1031 l 178 1031 l 178 326 l 58 326 z "},"」":{"ha":538,"x_min":58,"x_max":479,"o":"m 479 678 l 479 -143 l 58 -143 l 58 -26 l 360 -26 l 360 678 l 479 678 z "},"《":{"ha":772,"x_min":58,"x_max":715,"o":"m 306 -158 l 58 492 l 306 1140 l 450 1140 l 201 492 l 450 -158 l 306 -158 m 571 -158 l 324 492 l 571 1140 l 715 1140 l 467 492 l 715 -158 l 571 -158 z "},"》":{"ha":772,"x_min":58,"x_max":715,"o":"m 467 -158 l 322 -158 l 571 492 l 322 1140 l 467 1140 l 715 492 l 467 -158 m 201 -158 l 58 -158 l 306 492 l 58 1140 l 201 1140 l 450 492 l 201 -158 z "},"〔":{"ha":542,"x_min":58,"x_max":485,"o":"m 407 -203 l 58 111 l 58 871 l 404 1181 l 482 1096 l 178 824 l 178 158 l 485 -118 l 407 -203 z "},"〕":{"ha":542,"x_min":58,"x_max":485,"o":"m 136 -203 l 58 -118 l 365 158 l 365 824 l 61 1096 l 139 1181 l 485 871 l 485 111 l 136 -203 z "},"『":{"ha":536,"x_min":58,"x_max":479,"o":"m 58 324 l 58 1147 l 479 1147 l 479 925 l 281 925 l 281 324 l 58 324 m 115 381 l 222 381 l 222 982 l 421 982 l 421 1090 l 115 1090 l 115 381 z "},"』":{"ha":536,"x_min":58,"x_max":479,"o":"m 479 683 l 479 -140 l 58 -140 l 58 82 l 257 82 l 257 683 l 479 683 m 421 626 l 314 626 l 314 25 l 115 25 l 115 -83 l 421 -83 l 421 626 z "},"〖":{"ha":500,"x_min":58,"x_max":442,"o":"m 442 -87 l 58 -87 l 58 1146 l 442 1146 q 257 529 257 847 q 442 -87 257 213 m 333 -26 q 194 529 194 250 q 333 1085 194 811 l 121 1085 l 121 -26 l 333 -26 z "},"〗":{"ha":500,"x_min":58,"x_max":442,"o":"m 58 -87 q 243 529 243 213 q 58 1146 243 847 l 442 1146 l 442 -87 l 58 -87 m 167 -26 l 378 -26 l 378 1085 l 167 1085 q 306 529 306 811 q 167 -26 306 250 z "},"‚":{"ha":296,"x_min":58,"x_max":238,"o":"m 65 -218 l 135 0 l 58 0 l 58 175 l 238 175 l 238 21 l 150 -218 l 65 -218 z "},"„":{"ha":549,"x_min":58,"x_max":490,"o":"m 318 -221 l 388 -3 l 311 -3 l 311 172 l 490 172 l 490 18 l 403 -221 l 318 -221 m 65 -221 l 135 -3 l 58 -3 l 58 172 l 238 172 l 238 18 l 150 -221 l 65 -221 z "},"“":{"ha":554,"x_min":61,"x_max":493,"o":"m 233 1008 l 164 790 l 242 790 l 242 615 l 61 615 l 61 769 l 149 1008 l 233 1008 m 486 1008 l 417 790 l 493 790 l 493 615 l 314 615 l 314 769 l 401 1008 l 486 1008 z "},"”":{"ha":554,"x_min":61,"x_max":493,"o":"m 321 593 l 390 811 l 314 811 l 314 986 l 493 986 l 493 832 l 406 593 l 321 593 m 68 593 l 138 811 l 61 811 l 61 986 l 240 986 l 240 832 l 153 593 l 68 593 z "},"‘":{"ha":303,"x_min":61,"x_max":242,"o":"m 233 1008 l 164 790 l 242 790 l 242 615 l 61 615 l 61 769 l 149 1008 l 233 1008 z "},"’":{"ha":303,"x_min":61,"x_max":240,"o":"m 68 593 l 138 811 l 61 811 l 61 986 l 240 986 l 240 832 l 153 593 l 68 593 z "},"«":{"ha":792,"x_min":58,"x_max":735,"o":"m 425 106 l 253 106 l 58 332 l 58 435 l 253 661 l 425 661 l 186 383 l 425 106 m 735 106 l 561 106 l 367 332 l 367 435 l 561 661 l 735 661 l 496 383 l 735 106 z "},"»":{"ha":800,"x_min":57,"x_max":732,"o":"m 365 106 l 603 383 l 365 661 l 538 661 l 732 435 l 732 332 l 538 106 l 365 106 m 57 106 l 294 383 l 57 661 l 229 661 l 424 435 l 424 332 l 229 106 l 57 106 z "},"‹":{"ha":483,"x_min":58,"x_max":425,"o":"m 425 106 l 253 106 l 58 332 l 58 435 l 253 661 l 425 661 l 186 383 l 425 106 z "},"›":{"ha":483,"x_min":58,"x_max":425,"o":"m 58 106 l 296 383 l 58 661 l 231 661 l 425 435 l 425 332 l 231 106 l 58 106 z "},"\"":{"ha":501,"x_min":61,"x_max":440,"o":"m 89 611 l 61 874 l 61 986 l 197 986 l 189 611 l 89 611 m 313 611 l 303 986 l 440 986 l 440 874 l 411 611 l 313 611 z "},"'":{"ha":258,"x_min":61,"x_max":197,"o":"m 83 611 l 61 874 l 61 986 l 197 986 l 197 874 l 176 611 l 83 611 z "},"ƒ":{"ha":718,"x_min":76,"x_max":667,"o":"m 76 0 l 76 125 l 164 125 q 249 201 239 125 l 293 606 l 181 606 l 181 726 l 306 726 l 314 796 q 378 938 324 889 q 528 986 433 988 l 667 985 l 667 861 l 539 861 q 454 783 464 861 l 449 726 l 667 726 l 667 606 l 435 606 l 388 189 q 323 47 378 96 q 172 -1 268 -3 l 76 0 z "},"฿":{"ha":918,"x_min":119,"x_max":838,"o":"m 119 0 l 119 986 l 378 986 l 378 1118 l 483 1118 l 483 985 q 716 905 636 974 q 796 713 796 836 q 746 578 796 632 q 613 510 696 524 q 778 438 718 499 q 838 279 838 378 q 744 75 838 150 q 485 0 651 0 l 483 0 l 483 -126 l 378 -126 l 378 0 l 119 0 m 269 565 l 378 565 l 378 851 l 269 851 l 269 565 m 643 707 q 483 849 643 831 l 483 568 q 643 707 643 586 m 269 135 l 378 135 l 378 438 l 269 438 l 269 135 m 485 438 l 483 438 l 483 135 l 485 135 q 631 174 578 135 q 685 285 685 214 q 633 398 685 358 q 485 438 581 438 z "},"☹":{"ha":1156,"x_min":58,"x_max":1099,"o":"m 576 -24 q 375 17 469 -24 q 210 128 281 57 q 99 294 139 200 q 58 497 58 389 q 99 698 58 604 q 210 863 139 792 q 375 975 281 935 q 576 1015 469 1015 q 779 975 685 1015 q 945 863 874 935 q 1058 698 1017 792 q 1099 497 1099 604 q 1058 294 1099 389 q 945 128 1017 200 q 779 17 874 57 q 576 -24 685 -24 m 576 85 q 739 116 664 85 q 870 204 814 147 q 958 336 926 261 q 989 497 989 411 q 958 658 989 583 q 870 788 926 732 q 739 876 814 844 q 576 907 664 907 q 416 876 490 907 q 285 788 342 844 q 197 658 229 732 q 165 497 165 583 q 197 336 165 411 q 285 204 229 261 q 416 116 342 147 q 576 85 490 85 m 446 572 q 396 593 417 572 q 375 644 375 614 q 396 692 375 672 q 446 713 417 713 q 496 692 475 713 q 517 644 517 672 q 496 593 517 614 q 446 572 475 572 m 725 572 q 675 593 696 572 q 654 644 654 614 q 675 692 654 672 q 725 713 696 713 q 775 692 754 713 q 796 644 796 672 q 775 593 796 614 q 725 572 754 572 m 307 286 q 407 452 332 390 q 585 514 482 514 q 763 452 688 514 q 861 286 838 390 l 756 286 q 689 382 733 349 q 585 415 644 415 q 480 382 525 415 q 413 286 435 349 l 307 286 z "},"☺":{"ha":1156,"x_min":58,"x_max":1099,"o":"m 576 -24 q 375 17 469 -24 q 210 128 281 57 q 99 294 139 200 q 58 497 58 389 q 99 698 58 604 q 210 863 139 792 q 375 975 281 935 q 576 1015 469 1015 q 779 975 685 1015 q 945 863 874 935 q 1058 698 1017 792 q 1099 497 1099 604 q 1058 294 1099 389 q 945 128 1017 200 q 779 17 874 57 q 576 -24 685 -24 m 576 85 q 739 116 664 85 q 870 204 814 147 q 958 336 926 261 q 989 497 989 411 q 958 658 989 583 q 870 788 926 732 q 739 876 814 844 q 576 907 664 907 q 416 876 490 907 q 285 788 342 844 q 197 658 229 732 q 165 497 165 583 q 197 336 165 411 q 285 204 229 261 q 416 116 342 147 q 576 85 490 85 m 446 572 q 396 593 417 572 q 375 644 375 614 q 396 692 375 672 q 446 713 417 713 q 496 692 475 713 q 517 644 517 672 q 496 593 517 614 q 446 572 475 572 m 725 572 q 675 593 696 572 q 654 644 654 614 q 675 692 654 672 q 725 713 696 713 q 775 692 754 713 q 796 644 796 672 q 775 593 796 614 q 725 572 754 572 m 585 228 q 444 262 508 228 q 338 354 381 296 q 286 488 296 413 l 386 488 q 458 371 403 417 q 585 325 513 325 q 712 371 657 325 q 783 488 767 417 l 885 488 q 831 354 874 413 q 725 262 789 296 q 585 228 661 228 z "},"":{"ha":833,"x_min":11,"x_max":822,"o":"m 146 0 q 49 38 88 0 q 11 135 11 76 l 11 676 q 49 773 11 735 q 146 811 88 811 l 688 811 q 784 773 746 811 q 822 676 822 735 l 822 135 q 784 38 822 76 q 688 0 746 0 l 146 0 m 119 172 l 713 172 l 415 688 l 119 172 z "},"@":{"ha":1285,"x_min":61,"x_max":1224,"o":"m 900 -97 q 582 -158 753 -158 q 301 -99 418 -158 q 123 74 185 -39 q 61 346 61 186 q 107 605 61 488 q 236 808 153 722 q 435 940 319 893 q 690 986 550 986 q 971 925 851 986 q 1157 753 1090 864 q 1224 492 1224 642 q 1189 292 1224 378 q 1093 160 1154 207 q 951 113 1032 113 q 851 142 892 113 q 797 222 810 172 q 706 139 764 172 q 585 106 647 106 q 399 176 464 106 q 333 361 333 246 q 369 532 333 456 q 472 653 406 608 q 625 697 538 697 q 733 674 686 697 q 804 613 781 651 l 810 693 l 931 693 l 907 407 q 901 339 904 376 q 899 276 899 301 q 965 214 899 214 q 1073 285 1033 214 q 1113 483 1113 357 q 1003 778 1113 676 q 686 881 894 881 q 417 814 533 881 q 237 628 301 747 q 172 350 172 508 q 280 52 172 157 q 586 -53 388 -53 q 874 4 743 -53 l 900 -97 m 608 213 q 711 244 671 213 q 772 324 751 275 q 792 429 792 374 q 757 544 792 499 q 644 590 722 590 q 549 560 588 590 q 489 481 510 531 q 468 371 468 431 q 500 258 468 303 q 608 213 532 213 z "},"&":{"ha":903,"x_min":54,"x_max":876,"o":"m 375 -22 q 139 47 224 -22 q 54 242 54 115 q 73 355 54 306 q 135 450 92 404 q 251 544 178 496 q 178 656 204 604 q 151 772 151 707 q 220 945 151 882 q 411 1008 289 1008 q 600 948 535 1008 q 665 789 665 888 q 617 645 665 707 q 457 513 568 583 l 658 257 q 704 446 704 319 l 853 432 q 823 274 850 350 q 753 147 796 197 l 876 0 l 701 0 l 656 56 q 542 -1 614 21 q 375 -22 471 -22 m 379 610 q 480 691 450 653 q 510 778 510 729 q 484 847 510 822 q 413 871 458 871 q 334 844 363 871 q 306 769 306 817 q 322 697 306 732 q 379 610 338 661 m 390 113 q 494 126 453 113 q 558 163 536 140 l 335 442 q 239 352 268 396 q 210 250 210 308 q 253 150 210 188 q 390 113 297 113 z "},"¶":{"ha":858,"x_min":61,"x_max":739,"o":"m 371 0 l 371 426 q 209 460 279 426 q 100 558 139 494 q 61 706 61 621 q 101 854 61 792 q 215 951 142 917 q 382 986 288 986 l 739 986 l 739 0 l 603 0 l 603 863 l 507 863 l 507 0 l 371 0 z "},"§":{"ha":789,"x_min":75,"x_max":713,"o":"m 410 -90 q 174 -20 261 -90 q 75 160 86 50 l 226 169 q 281 71 236 107 q 407 35 326 35 q 525 60 490 35 q 560 128 560 86 q 515 198 560 168 q 363 250 471 228 q 158 330 219 279 q 97 464 96 381 q 222 635 99 579 q 100 789 100 692 q 182 949 100 890 q 401 1008 264 1008 q 615 945 532 1008 q 713 767 697 882 l 564 758 q 508 852 553 819 q 390 885 463 885 q 292 859 331 885 q 254 794 254 833 q 289 730 254 753 q 415 683 324 707 q 589 630 524 660 q 683 556 654 600 q 713 449 713 513 q 599 293 713 339 q 684 224 657 265 q 711 121 711 182 q 673 11 711 58 q 567 -63 635 -36 q 410 -90 499 -90 m 439 351 q 538 379 500 351 q 575 454 575 407 q 543 522 575 496 q 464 561 511 549 q 369 574 417 574 q 276 544 315 574 q 238 472 238 514 q 256 415 238 442 q 319 370 275 388 q 439 351 364 353 z "},"©":{"ha":1147,"x_min":61,"x_max":1086,"o":"m 574 -17 q 375 23 468 -17 q 211 133 282 63 q 101 297 140 204 q 61 496 61 390 q 101 695 61 603 q 211 858 140 788 q 375 969 282 929 q 574 1008 468 1008 q 773 969 681 1008 q 936 858 865 929 q 1047 695 1007 788 q 1086 496 1086 603 q 1047 297 1086 390 q 936 133 1007 204 q 773 23 865 63 q 574 -17 681 -17 m 574 100 q 725 131 654 100 q 850 215 796 161 q 935 342 904 269 q 967 496 967 414 q 935 651 967 579 q 850 776 904 722 q 725 861 796 831 q 574 892 654 892 q 422 861 493 892 q 297 776 351 831 q 211 651 242 722 q 181 496 181 579 q 211 342 181 414 q 297 215 242 269 q 422 131 351 161 q 574 100 493 100 m 579 206 q 434 242 497 206 q 335 345 371 279 q 300 496 300 411 q 335 647 300 582 q 434 748 371 711 q 579 785 497 785 q 704 757 649 785 q 794 681 760 729 q 835 569 829 632 l 713 563 q 668 646 706 614 q 579 678 631 678 q 466 628 510 678 q 422 496 422 578 q 466 363 422 414 q 579 313 510 313 q 672 347 633 313 q 718 439 710 382 l 840 432 q 798 315 833 365 q 706 235 763 264 q 579 206 650 206 z "},"®":{"ha":889,"x_min":61,"x_max":828,"o":"m 444 240 q 295 270 365 240 q 173 353 225 300 q 91 476 121 406 q 61 625 61 546 q 91 774 61 704 q 173 896 121 843 q 295 978 225 949 q 444 1008 365 1008 q 594 978 525 1008 q 715 896 663 949 q 798 774 768 843 q 828 625 828 704 q 798 476 828 546 q 715 353 768 406 q 594 270 663 300 q 444 240 525 240 m 444 322 q 599 364 532 322 q 705 474 667 406 q 743 625 743 543 q 705 775 743 707 q 599 884 667 843 q 444 925 532 925 q 290 884 357 925 q 183 775 222 843 q 144 625 144 707 q 183 474 144 543 q 290 364 222 406 q 444 322 357 322 m 289 417 l 289 832 l 436 832 q 563 797 517 832 q 608 703 608 763 q 585 629 608 660 q 521 588 563 599 l 622 417 l 525 417 l 435 575 l 378 575 l 378 417 l 289 417 m 378 646 l 440 646 q 500 661 479 646 q 521 704 521 676 q 440 758 521 758 l 378 758 l 378 646 z "},"℗":{"ha":889,"x_min":61,"x_max":828,"o":"m 444 240 q 295 270 365 240 q 173 353 225 300 q 91 476 121 406 q 61 625 61 546 q 91 774 61 704 q 173 896 121 843 q 295 978 225 949 q 444 1008 365 1008 q 594 978 525 1008 q 715 896 663 949 q 798 774 768 843 q 828 625 828 704 q 798 476 828 546 q 715 353 768 406 q 594 270 663 300 q 444 240 525 240 m 444 322 q 599 364 532 322 q 705 474 667 406 q 743 625 743 543 q 705 775 743 707 q 599 884 667 843 q 444 925 532 925 q 290 884 357 925 q 183 775 222 843 q 144 625 144 707 q 183 474 144 543 q 290 364 222 406 q 444 322 357 322 m 313 417 l 313 832 l 460 832 q 586 797 542 832 q 631 703 631 763 q 586 608 631 640 q 460 575 542 575 l 400 575 l 400 417 l 313 417 m 400 646 l 464 646 q 522 661 501 646 q 543 704 543 676 q 464 758 543 758 l 400 758 l 400 646 z "},"™":{"ha":1249,"x_min":119,"x_max":1129,"o":"m 582 499 l 582 986 l 710 986 l 856 599 l 1003 986 l 1129 986 l 1129 499 l 1033 499 l 1033 838 l 910 499 l 801 499 l 678 832 l 678 499 l 582 499 m 269 499 l 269 894 l 119 894 l 119 986 l 518 986 l 518 894 l 369 894 l 369 499 l 269 499 z "},"°":{"ha":572,"x_min":58,"x_max":514,"o":"m 286 551 q 172 581 224 551 q 90 663 121 611 q 58 781 58 715 q 90 897 58 844 q 172 978 121 949 q 286 1008 224 1008 q 401 978 349 1008 q 483 897 453 949 q 514 781 514 844 q 483 663 514 715 q 401 581 453 611 q 286 551 349 551 m 286 668 q 365 699 332 668 q 397 781 397 731 q 365 863 397 831 q 286 894 332 894 q 208 863 242 894 q 175 781 175 831 q 208 699 175 731 q 286 668 240 668 z "},"′":{"ha":314,"x_min":56,"x_max":258,"o":"m 56 667 l 117 986 l 258 986 l 183 667 l 56 667 z "},"″":{"ha":510,"x_min":56,"x_max":456,"o":"m 56 667 l 117 986 l 258 986 l 183 667 l 56 667 m 253 667 l 314 986 l 456 986 l 381 667 l 253 667 z "},"|":{"ha":381,"x_min":119,"x_max":261,"o":"m 119 -153 l 119 1042 l 261 1042 l 261 -153 l 119 -153 z "},"¦":{"ha":381,"x_min":119,"x_max":261,"o":"m 119 549 l 119 1042 l 261 1042 l 261 549 l 119 549 m 119 -153 l 119 340 l 261 340 l 261 -153 l 119 -153 z "},"†":{"ha":813,"x_min":119,"x_max":693,"o":"m 336 0 l 336 615 l 119 615 l 119 739 l 336 739 l 336 986 l 475 986 l 475 739 l 693 739 l 693 615 l 475 615 l 475 0 l 336 0 z "},"‡":{"ha":813,"x_min":119,"x_max":693,"o":"m 119 238 l 119 361 l 336 361 l 336 615 l 119 615 l 119 739 l 336 739 l 336 986 l 475 986 l 475 739 l 693 739 l 693 615 l 475 615 l 475 361 l 693 361 l 693 238 l 475 238 l 475 0 l 336 0 l 336 238 l 119 238 z "}}}
